<?xml version="1.0" encoding="utf-8"?>
<!-- Generator: Adobe Illustrator 22.0.0, SVG Export Plug-In . SVG Version: 6.00 Build 0)  -->
<svg version="1.1" id="Calque_1" xmlns="http://www.w3.org/2000/svg" xmlns:xlink="http://www.w3.org/1999/xlink" x="0px" y="0px"
	 viewBox="0 0 200 100" style="enable-background:new 0 0 200 100;" xml:space="preserve">
<style type="text/css">
	.st0{fill:#FFFFFF;}
	.st1{fill:url(#SVGID_1_);}
	.st2{fill:url(#SVGID_2_);}
	.st3{fill:url(#SVGID_3_);}
	.st4{fill:url(#SVGID_4_);}
	.st5{fill-rule:evenodd;clip-rule:evenodd;fill:#2C368F;}
	.st6{fill-rule:evenodd;clip-rule:evenodd;fill:#EC1C24;}
</style>
<path class="st0" d="M190.7,82.9c-8.6-5-17-4.2-25.5-2.5c-8.5,1.7-17.9,6.1-22.2,7.2c-4.3,1.1-4.1,0.1-3.4-3.4
	c0.8-4.2-3.7-3.8-8-2.3c-6.2,2.2-15.8,5.7-25.7,7.1s-12.3-0.8-12.3-0.8l9-68.4c0,0,2.8,3.7,16.6,0.9c13.9-2.8,22.7-7.8,28.3-7.8
	c3.3,0,2.4,2.4,2,3.9c-0.4,1.5-0.6,4.3,1.9,3.6s18.9-7.9,28.5-8.8c9.5-0.9,16,0.7,20.1,3.6L190.7,82.9z"/>
<g>
	<linearGradient id="SVGID_1_" gradientUnits="userSpaceOnUse" x1="101.5202" y1="15.5463" x2="197.847" y2="24.442">
		<stop  offset="0" style="stop-color:#2E3191"/>
		<stop  offset="8.924279e-02" style="stop-color:#2C3493"/>
		<stop  offset="0.1624" style="stop-color:#273E9B"/>
		<stop  offset="0.2298" style="stop-color:#1E50A7"/>
		<stop  offset="0.2938" style="stop-color:#1268B8"/>
		<stop  offset="0.3548" style="stop-color:#0286CE"/>
		<stop  offset="0.3626" style="stop-color:#008BD1"/>
		<stop  offset="0.4191" style="stop-color:#0189D0"/>
		<stop  offset="0.4432" style="stop-color:#0582CA"/>
		<stop  offset="0.461" style="stop-color:#0B75C2"/>
		<stop  offset="0.4758" style="stop-color:#1464B5"/>
		<stop  offset="0.4886" style="stop-color:#204DA5"/>
		<stop  offset="0.5" style="stop-color:#2E3191"/>
		<stop  offset="0.6209" style="stop-color:#0073BC"/>
		<stop  offset="1" style="stop-color:#2E3191"/>
	</linearGradient>
	<path class="st1" d="M179.9,11.7c-9.5,0.9-25.9,8-28.5,8.8s-2.3-2-1.9-3.6c0.4-1.5,1.3-3.9-2-3.9c-5.7,0-14.5,5-28.3,7.8
		c-13.9,2.8-16.6-0.9-16.6-0.9l-0.9,7c1.4,0.6,3.3,1.1,5.8,1.3c7.9,0.6,28-6.7,34.6-8.3s6.4,1.1,6,3.6c-0.4,2.4-1.1,3.3,3,2.5
		c4.2-0.8,16.9-7,30.8-8.5c9.9-1.1,15.2,2.2,17.4,4.2l0.9-6.4C195.9,12.4,189.5,10.8,179.9,11.7z"/>
</g>
<g>
	<linearGradient id="SVGID_2_" gradientUnits="userSpaceOnUse" x1="95.828" y1="77.1603" x2="192.1559" y2="86.0561">
		<stop  offset="0" style="stop-color:#2E3191"/>
		<stop  offset="8.924279e-02" style="stop-color:#2C3493"/>
		<stop  offset="0.1624" style="stop-color:#273E9B"/>
		<stop  offset="0.2298" style="stop-color:#1E50A7"/>
		<stop  offset="0.2938" style="stop-color:#1268B8"/>
		<stop  offset="0.3548" style="stop-color:#0286CE"/>
		<stop  offset="0.3626" style="stop-color:#008BD1"/>
		<stop  offset="0.4191" style="stop-color:#0189D0"/>
		<stop  offset="0.4432" style="stop-color:#0582CA"/>
		<stop  offset="0.461" style="stop-color:#0B75C2"/>
		<stop  offset="0.4758" style="stop-color:#1464B5"/>
		<stop  offset="0.4886" style="stop-color:#204DA5"/>
		<stop  offset="0.5" style="stop-color:#2E3191"/>
		<stop  offset="0.6209" style="stop-color:#0073BC"/>
		<stop  offset="1" style="stop-color:#2E3191"/>
	</linearGradient>
	<path class="st2" d="M105.9,89c9.9-1.4,19.5-4.9,25.7-7.1c4.3-1.5,8.8-1.9,8,2.3c-0.6,3.6-0.9,4.6,3.4,3.4
		c4.3-1.1,13.7-5.6,22.2-7.2c8.5-1.7,16.9-2.4,25.5,2.5l0.9-6.2c-4.1-2.9-10.5-4.5-20.1-3.6c-9.5,0.9-25.9,8-28.5,8.8
		s-2.3-2-1.9-3.6c0.4-1.5,1.3-3.9-2-3.9c-5.7,0-14.5,5-28.3,7.8c-11.6,2.3-15.4,0.1-16.4-0.6l-0.9,6.8C93.5,88.2,95.9,90.4,105.9,89
		z"/>
</g>
<path class="st0" d="M97.2,83.7c-8.6-5-17-4.2-25.5-2.5c-8.5,1.7-17.9,6.1-22.2,7.2S45.4,88.5,46,85c0.8-4.2-3.7-3.8-8-2.3
	c-6.2,2.2-15.8,5.7-25.7,7.1S0,89,0,89l9-68.4c0,0,2.8,3.7,16.6,0.9c13.9-2.8,22.7-7.8,28.3-7.8c3.3,0,2.4,2.4,2,3.9
	c-0.4,1.5-0.6,4.3,1.9,3.6c2.5-0.8,18.9-7.9,28.5-8.8c9.5-0.9,16,0.7,20.1,3.6L97.2,83.7z"/>
<g>
	<linearGradient id="SVGID_3_" gradientUnits="userSpaceOnUse" x1="7.9894" y1="16.3942" x2="104.3162" y2="25.2898">
		<stop  offset="0" style="stop-color:#2E3191"/>
		<stop  offset="8.924279e-02" style="stop-color:#2C3493"/>
		<stop  offset="0.1624" style="stop-color:#273E9B"/>
		<stop  offset="0.2298" style="stop-color:#1E50A7"/>
		<stop  offset="0.2938" style="stop-color:#1268B8"/>
		<stop  offset="0.3548" style="stop-color:#0286CE"/>
		<stop  offset="0.3626" style="stop-color:#008BD1"/>
		<stop  offset="0.4191" style="stop-color:#0189D0"/>
		<stop  offset="0.4432" style="stop-color:#0582CA"/>
		<stop  offset="0.461" style="stop-color:#0B75C2"/>
		<stop  offset="0.4758" style="stop-color:#1464B5"/>
		<stop  offset="0.4886" style="stop-color:#204DA5"/>
		<stop  offset="0.5" style="stop-color:#2E3191"/>
		<stop  offset="0.6209" style="stop-color:#0073BC"/>
		<stop  offset="1" style="stop-color:#2E3191"/>
	</linearGradient>
	<path class="st3" d="M86.4,12.5c-9.5,0.9-25.9,8-28.5,8.8c-2.5,0.8-2.3-2-1.9-3.6c0.4-1.5,1.3-3.9-2-3.9c-5.7,0-14.5,5-28.3,7.8
		C11.8,24.4,9,20.7,9,20.7l-0.9,7c1.4,0.6,3.3,1.1,5.8,1.3c7.9,0.6,28-6.7,34.6-8.3c6.6-1.5,6.4,1.1,6,3.6c-0.4,2.4-1.1,3.3,3,2.5
		c4.2-0.8,16.9-7,30.8-8.5c9.9-1.1,15.2,2.2,17.4,4.2l0.9-6.4C102.4,13.2,95.9,11.7,86.4,12.5z"/>
</g>
<g>
	<linearGradient id="SVGID_4_" gradientUnits="userSpaceOnUse" x1="2.2972" y1="78.0082" x2="98.6251" y2="86.9039">
		<stop  offset="0" style="stop-color:#2E3191"/>
		<stop  offset="8.924279e-02" style="stop-color:#2C3493"/>
		<stop  offset="0.1624" style="stop-color:#273E9B"/>
		<stop  offset="0.2298" style="stop-color:#1E50A7"/>
		<stop  offset="0.2938" style="stop-color:#1268B8"/>
		<stop  offset="0.3548" style="stop-color:#0286CE"/>
		<stop  offset="0.3626" style="stop-color:#008BD1"/>
		<stop  offset="0.4191" style="stop-color:#0189D0"/>
		<stop  offset="0.4432" style="stop-color:#0582CA"/>
		<stop  offset="0.461" style="stop-color:#0B75C2"/>
		<stop  offset="0.4758" style="stop-color:#1464B5"/>
		<stop  offset="0.4886" style="stop-color:#204DA5"/>
		<stop  offset="0.5" style="stop-color:#2E3191"/>
		<stop  offset="0.6209" style="stop-color:#0073BC"/>
		<stop  offset="1" style="stop-color:#2E3191"/>
	</linearGradient>
	<path class="st4" d="M12.3,89.8c9.9-1.4,19.5-4.9,25.7-7.1c4.3-1.5,8.8-1.9,8,2.3c-0.6,3.6-0.9,4.6,3.4,3.4s13.7-5.6,22.2-7.2
		c8.5-1.7,16.9-2.4,25.5,2.5l0.9-6.2C94,74.6,87.5,73,78,73.9c-9.5,0.9-25.9,8-28.5,8.8s-2.3-2-1.9-3.6c0.4-1.5,1.3-3.9-2-3.9
		c-5.7,0-14.5,5-28.3,7.8C5.7,85.3,1.8,83.1,0.9,82.3L0,89C0,89,2.4,91.2,12.3,89.8z"/>
</g>
<g>
	<path class="st5" d="M21,58.8c0.8,0.1,0.8,3.7,0.9,5.6c0,0,0,3.6,1.8,3.9c1.8,0.3,8-10,8.8-10.9c0.8-0.9,0.6,1.1,0.1,3
		c-0.5,1.9-1.7,5.4-2.3,5.8s-2.5,1.2-2.5,2.6c0,1.4,2.4,2.4,6,1.8c3.6-0.6,7.6-2.7,7.5-4.5c-0.1-1.8-1.9-2.2-1.9-2.2
		S42.7,48,43.7,47c1-1,3.6-2.4,3.2-3.9c-0.4-1.5-1.8-1.5-5.4-0.9c-3.6,0.6-4.8,1.9-6,3.7c-1.3,1.8-5.6,8.5-6.4,8.6
		c-0.8,0.1-1-6.7-1.6-8.4c-0.6-1.7-2.6-1.7-5.2-1.7s-6.3,1.8-6.4,3.1c-0.1,1.3,2.1,1.9,2.4,2.5c0.4,0.6-0.6,3.5-1.4,5.7
		c-0.8,2.2-4.2,10.6-5.2,11.1c-1,0.5-2.6,1.2-2.8,2.6c-0.2,1.4,3.3,2.6,5.9,2.4s4.7-1.3,4.7-2.5c0-1.3-1.4-1.8-1.5-2.2
		C17.9,66.6,21,58.8,21,58.8z"/>
	<path class="st5" d="M66.6,46c0.6-1.9-0.5-2.1-1.7-1.6c-1.2,0.4-4,2.7-4.6,2.4c-0.6-0.3-2.4-2-5.4-0.6c-1.8,0.8-8.6,5.8-10.9,13.6
		c-2.3,7.8,0.7,8.4,2,8.5c2.9,0.1,8.6-5.5,8.6-5.5s0.2,3.3,1.1,3.5c0.9,0.2,5.8-2.3,7.9-4.6c2.1-2.2,1.3-3.1,0.5-3.1
		c-0.8,0-1.1-0.7-0.7-1.9C63.8,55.5,66,47.9,66.6,46z M57.3,54.7c-1.2,2.6-3.9,6.5-4.8,5.9c-0.8-0.6,0.3-4.2,2.1-6.9
		c1.8-2.7,3-4.1,3.3-4C58.7,49.8,58.5,52,57.3,54.7z"/>
	<path class="st5" d="M89,42.7c-0.1-0.6-1.1-1.7-1.7-2.4c-0.6-0.8-0.9-0.4-1.5,0.4c-0.6,0.8-1.9,1.8-1.9,1.8
		c-6.3-1.3-11.8,1.4-14.8,6.4c-3,5,0.9,7.4,0.9,7.4s-3.9,2.5-4.6,4.6c-0.7,2.1,1.2,3.4,1.2,3.4c-4.3,2.8-1.5,6.9,5.5,6.4
		c7-0.6,12.6-5.6,12.9-9.3c0.3-3.7-4.5-4.1-6-3.8c-1.5,0.3-4.6,1.3-5.7,0.8c-1.1-0.6,0-1.8,0-1.8c6.5,0.7,12.6-2.5,14.4-5.5
		c1.8-2.9,0.1-5.8,0.1-5.8S89.1,43.4,89,42.7z M73.6,65.2c1.7-0.4,3.7-0.9,3.4-0.1c-0.4,0.8-3.9,2.1-5.4,2c-1.5-0.1-3-0.7-2.2-2
		C69.4,65.2,71.9,65.7,73.6,65.2z M79.8,49.8c-0.6,2-1.9,3.6-2.6,3.4c-0.8-0.2-0.8-2.3-0.2-4.3c0.6-2,2.2-3.5,3-3.3
		C80.8,45.9,80.5,47.8,79.8,49.8z"/>
	<path class="st5" d="M91.9,49c0,0-2.4,0.1-1.7-1.8c0.6-1.8,3.1-2.5,5.5-2.8c2.4-0.3,6.4-0.1,5.3,3c-1.1,3-3.6,9.7-3.8,10.3
		c-0.3,0.6,0.8,0.4,1.5,0.6c0.6,0.1,1.7,2.1-2.7,4.2c-4.3,2.1-8.9,0.8-7.9-2.4C89,56.8,91.8,49.6,91.9,49z"/>
	<polygon class="st5" points="100.4,29 100.6,33.9 105.4,34.7 101.2,37.3 101.5,41.7 97.9,38.7 93.2,40.9 95.6,36.3 92.6,33.2 
		97.5,33.2 	"/>
</g>
<g>
	<g>
		<path class="st6" d="M122.8,43c-0.5-0.6-1.3-1-1.6-1.1c-0.3-0.1-1.1,0.1-1.2,0.4s-2.2,2.8-2.2,2.8s-6.8-0.5-11.4,2.2
			c-4.6,2.8-5.7,7.5-2.5,10.9c0,0-3.5,0.8-4.1,3.6s1,3.3,1,3.3s-1.5,0.4-1.6,2.6c-0.1,2.2,1.7,4.8,8.5,5.1c6.8,0.3,11.9-6.1,11.1-10
			c-0.7-4-6.4-2.3-7.7-2.2c-1.2,0.1-4.6,1.1-4.2-1.5c0,0,3,1.1,6.8-0.1c3.8-1.2,7.4-4.4,8.6-7.5c1.1-3-0.3-4.6-0.3-4.6
			s0.8-1.4,1.1-2C123.5,44.4,123.4,43.5,122.8,43z M109.3,67.5c1-0.2,2.3-0.1,1,1.1c-1.3,1.1-5.1,1-6.1,0c-0.9-1-0.6-1.7-0.6-1.7
			c0.3-0.1,0.7,0.1,1.8,0.5C106.6,67.7,108.4,67.7,109.3,67.5z M113.8,52.1c-0.7,2.1-2,4.4-3,3.6c-0.8-0.6,0-3.4,0.8-4.8
			c0.8-1.4,1.4-2.4,2.3-2.2C114.6,48.8,114.5,50,113.8,52.1z"/>
		<path class="st6" d="M142.4,41.9c-3.6-2.7-10.6-0.2-15.8,5.7c-5.2,5.8-6.5,12.7-2.9,15.4c3.6,2.7,10.6,0.2,15.8-5.7
			C144.6,51.5,145.9,44.6,142.4,41.9z M134.6,52.8c-1.2,3.5-2.7,6.1-3.8,5.7c-1-0.4-0.5-3.4,0.7-6.8c1.2-3.5,2.7-6.1,3.8-5.7
			C136.4,46.3,135.8,49.4,134.6,52.8z"/>
		<path class="st6" d="M147.2,46.3c0-0.4-1.1-0.5-1.5-0.6c-0.4-0.1-1.2-1.1,0.3-2.7c1.5-1.6,5.5-4.3,8-4.5c2.6-0.3,3.4,0.6,2.5,3.9
			c-0.9,3.3-2.4,6.7-2.8,8.3c-0.4,1.5-0.4,1.9,0.6,2.1c1,0.2,2.2-2.1,3-4.1c0.8-2,2-6.4,2.4-7.4c0.5-1.3,2.9-2.8,5.7-2.5
			c2.5,0.2,3.5,1.1,2.3,4.7c-1.2,3.7-2.9,7.1-3.2,8c-0.3,0.9-0.4,2,0.8,2c1.2,0,2.8,0.7,0.8,2.8c-2,2-7.4,3.7-9.1,3.3
			c-1.7-0.4-1.2-2.5-1.2-3.4c0-0.8-1.4,0.3-2.5,1.4c-1.2,1-5.7,3.6-7.5,2.8c-1.9-0.8-2.2-3.6-0.8-7.5S147.2,46.8,147.2,46.3z"/>
		<path class="st6" d="M157.5,37.5h-1.4c0,0-2.1,0.1-1.6-0.5c0.5-0.6,1.1-1.2,1.6-1.7c1.7-1.8,4.3-4.7,4.6-4.8
			c0.3-0.2,1.9-0.2,2.4,0.1c0.5,0.3,2.8,6.1,2.9,6.4c0.1,0.3,0.1,0.6-0.7,0.6c-0.8,0-2.2,0-2.5,0c-0.3,0-0.4-0.3-0.6-0.7
			c-0.2-0.4-0.9-2.8-0.9-2.8s-2.4,2.5-2.7,2.8C158.3,37.2,158,37.5,157.5,37.5z"/>
		<path class="st6" d="M180.4,47.2c0,0,1.3,0.4,1.8,0.6c0.6,0.2,1.1,0.6,1.1,0.6s1-2.7,1.1-3.3c0.1-0.6,0.1-1.1-0.5-1.3
			c-0.6-0.1-2.7-1-2.7-1s1-3.1,1.4-3.8c0.4-0.7,0.3-1.5-0.3-1.7c-0.5-0.3-4.4-1.4-5.1-1.1c-0.8,0.3-1.8,1.5-2.2,2.3
			c-0.4,0.8-1.2,2.1-1.2,2.1s-1.5-0.2-2.4,0.3c-0.9,0.5-1.8,2-1.8,2.9c0,0.8,0.6,1,2.8,1.3c0,0-3,9-3.6,10.8
			c-0.6,1.8-0.6,5.8,4.4,5.8s8.7-2.1,8.5-4.1c-0.3-2-1.5-1.5-2.4-1.5c-1,0-2.1,0-1.5-2.2C178.4,51.7,180,47.7,180.4,47.2z"/>
	</g>
</g>
</svg>
