<?xml version="1.0" encoding="utf-8"?>
<!-- Generator: Adobe Illustrator 22.0.0, SVG Export Plug-In . SVG Version: 6.00 Build 0)  -->
<svg version="1.1" id="Calque_1" xmlns="http://www.w3.org/2000/svg" xmlns:xlink="http://www.w3.org/1999/xlink" x="0px" y="0px"
	 viewBox="0 0 200 100" style="enable-background:new 0 0 200 100;" xml:space="preserve">
<style type="text/css">
	.st0{fill-rule:evenodd;clip-rule:evenodd;fill:#FFFFFF;}
	.st1{fill-rule:evenodd;clip-rule:evenodd;fill:#231F20;}
	.st2{fill-rule:evenodd;clip-rule:evenodd;fill:#646568;}
	.st3{fill-rule:evenodd;clip-rule:evenodd;fill:#C4C7C8;}
	.st4{fill-rule:evenodd;clip-rule:evenodd;fill:#FCED1E;}
	.st5{fill-rule:evenodd;clip-rule:evenodd;fill:#EA2227;}
	.st6{fill-rule:evenodd;clip-rule:evenodd;fill:#2F368E;}
	.st7{fill:#2F368E;}
	.st8{fill:none;stroke:#FFFFFF;stroke-width:1.076;stroke-linejoin:round;stroke-miterlimit:22.926;}
</style>
<path class="st0" d="M72.6,27.6c30,0,54.4,10,54.4,22.4c0,12.4-24.4,22.4-54.4,22.4c-30,0-54.4-10-54.4-22.4
	C18.2,37.6,42.6,27.6,72.6,27.6"/>
<path class="st0" d="M72.6,27.6c30,0,54.4,10,54.4,22.4c0,12.4-24.4,22.4-54.4,22.4c-30,0-54.4-10-54.4-22.4
	C18.2,37.6,42.6,27.6,72.6,27.6"/>
<path class="st1" d="M42,59.8L0.8,50.1c-0.2,0.1-0.3,0.4-0.3,0.6c-0.1,0.2-0.1,0.4-0.1,0.6L41.3,62c0.3-0.1,0.6-0.4,0.7-0.8
	C42.2,60.7,42.2,60.2,42,59.8"/>
<path class="st2" d="M42,59.8L0.8,50.1c-0.1,0.1-0.1,0.2-0.2,0.3l41.6,10.1C42.2,60.2,42.1,60,42,59.8"/>
<path class="st0" d="M42,59.8c-1.2-0.3-2.4-0.6-3.6-0.8c-0.1,0.2-0.3,0.3-0.4,0.5c-0.3,0.5-0.4,1-0.3,1.6c1.2,0.3,2.4,0.6,3.6,1
	c0.6-0.3,0.9-1,0.9-1.6C42.1,60.2,42.1,60,42,59.8 M0.8,50.2c-0.1,0.1-0.2,0.2-0.2,0.3c-0.2,0.3-0.2,0.6-0.2,0.9l1.1,0.3
	c0-0.3,0.1-0.7,0.2-1c0.1-0.1,0.1-0.2,0.2-0.3L0.8,50.2z"/>
<path class="st3" d="M0.8,50.2c-0.1,0.1-0.1,0.1-0.2,0.2l1.1,0.3c0,0,0.1-0.2,0.2-0.3L0.8,50.2z M41.9,59.8
	c-1.2-0.3-2.4-0.6-3.6-0.8c-0.1,0.2-0.3,0.3-0.3,0.5l4,1C42.1,60.3,42.1,60,41.9,59.8"/>
<path class="st1" d="M17.6,61.1c3.1-0.3,7.8-5.6,10.8-8.8c2.3-2.5,8.1-4.8,8.5-5.7c-1.8-1.6-4.6-1.3-5.7-0.2
	c-3.5-4.8-2.9-11.2-5.3-14.2c-1.7-2.6-19.4,6.5-17.9,10.6c0.6,1.7,6.7,5.1,9.5,10.1c-1.5,0.8-3.4,4.1-2.4,6.9
	C15.7,60.5,16.6,61.1,17.6,61.1"/>
<path class="st4" d="M18.4,54.5c0.9,1.1,3.6,1.4,5.3,0.1c0.7-1.2,2.2-2.9,3-4c-3.1,2.3-8.3,3.2-9.6,1.6C17.2,52.3,18.2,54,18.4,54.5
	"/>
<path class="st2" d="M36.7,46.9c0.1-0.1,0.2-0.1,0.2-0.3c-1.2-1.1-4-1.5-5.6-0.1c-2.2,1.7-4.3,3.7-6.1,6.2c-1.6,2-2.8,4.2-5,6.3
	c-1,1.2-2.4,1.8-3.5,1.3c-2.6-2.2-0.1-5.7,1.2-6.7c-0.1-0.3-0.2-0.3-0.3-0.6c-1.3,0.9-2.4,2.8-2.5,4.8c-0.1,1.3,0.3,2.4,1.7,3.1
	c0.8,0.3,1.2,0.3,2.2-0.2c3.2-1.8,4.9-5.6,6.6-7.7c1.9-2.2,4-4.6,6.2-6.1C33.8,45.5,35.4,46.3,36.7,46.9 M14.8,35.7
	c4.7-2.1,10.8-2.7,8.1,2.4c2.9-2.3,4.1-4.4,3-5.9C25.2,31.2,20.9,32.1,14.8,35.7"/>
<path class="st1" d="M99,63.3h0.8v-0.5h1.1v1.5h-3.5v-1h0.5v-2.7h-0.5v-1h2.1v1H99V63.3z M94.1,62.9L94,63.2h0.4v1h-2.1v-1h0.5
	l1.1-2.7h-0.5v-1h1.8l1.5,3.7h0.5v1h-2.1v-1h0.4l-0.1-0.4H94.1z M95.1,62l-0.3-1.1L94.4,62H95.1z M88.9,63.2h0.4v1h-2.1v-1h0.5v-2.7
	h-0.5v-1h1.5l1.8,2.6v-1.6H90v-1h2.1v1h-0.4v3.7h-1l-1.8-2.6V63.2z M81.9,61.8c0-0.3,0.1-0.6,0.2-0.9c0.1-0.3,0.3-0.5,0.5-0.8
	c0.2-0.2,0.5-0.4,0.8-0.5c0.3-0.1,0.6-0.2,1-0.2c0.3,0,0.6,0.1,0.9,0.2c0.3,0.1,0.6,0.3,0.8,0.5c0.2,0.2,0.4,0.5,0.6,0.8
	c0.1,0.3,0.2,0.6,0.2,0.9c0,0.3-0.1,0.6-0.2,0.9c-0.1,0.3-0.3,0.6-0.5,0.8c-0.2,0.2-0.5,0.4-0.8,0.5c-0.3,0.1-0.6,0.2-1,0.2
	c-0.4,0-0.7-0.1-1-0.2c-0.3-0.1-0.6-0.3-0.8-0.6c-0.2-0.2-0.4-0.5-0.5-0.8C81.9,62.5,81.9,62.2,81.9,61.8 M83.1,61.8
	c0,0.4,0.1,0.7,0.4,0.9c0.2,0.3,0.5,0.4,0.9,0.4c0.4,0,0.7-0.1,0.9-0.4c0.2-0.2,0.4-0.6,0.4-0.9c0-0.3-0.1-0.6-0.4-0.9
	c-0.2-0.2-0.5-0.4-0.9-0.4c-0.4,0-0.7,0.1-0.9,0.4C83.2,61.2,83.1,61.5,83.1,61.8 M80.9,63.2h0.4v1h-2.1v-1h0.5v-2.7h-0.5v-1h2.1v1
	h-0.4V63.2z M77.5,63.2h0.4v1h-2.1v-1h0.4v-2.7h-0.4v0.6H75v-1.6h3.8v1.6h-0.9v-0.6h-0.4V63.2z M72.1,62.9L72,63.2h0.4v1h-2.1v-1
	h0.5l1.1-2.7h-0.5v-1h1.8l1.5,3.7h0.5v1H73v-1h0.4l-0.1-0.4H72.1z M73.1,62l-0.3-1.1L72.4,62H73.1z M66.9,63.2h0.4v1h-2.1v-1h0.5
	v-2.7h-0.5v-1h1.5l1.8,2.6v-1.6H68v-1h2.1v1h-0.4v3.7h-1l-1.8-2.6V63.2z M62.4,63.2h0.3v1h-1.9v-1h0.5v-2.7h-0.5v-1h1.9
	c0.4,0,0.7,0,0.9,0.1c0.2,0,0.3,0.1,0.5,0.2c0.2,0.1,0.4,0.3,0.5,0.5c0.1,0.2,0.2,0.5,0.2,0.7c0,0.3-0.1,0.6-0.2,0.9
	c-0.2,0.3-0.4,0.4-0.7,0.6l0.6,0.7h0.5v1h-1l-1.4-1.7V63.2z M62.4,61.7h0.2c0.3,0,0.5,0,0.7-0.1c0.1-0.1,0.2-0.2,0.2-0.4
	c0-0.2-0.1-0.3-0.2-0.4c-0.1-0.1-0.3-0.1-0.6-0.1h-0.3V61.7z M59.1,63.3v-0.5h1.1v1.5h-3.5v-1h0.5v-2.7h-0.5v-1h3.5V61h-1.1v-0.5
	h-0.8v0.8h1.1v1h-1.1v0.9H59.1z M54.8,63.2h0.4v1h-2.1v-1h0.4v-2.7h-0.4v0.6h-0.9v-1.6h3.8v1.6h-0.9v-0.6h-0.4V63.2z M48.6,63.2H49
	v1H47v-1h0.5v-2.7H47v-1h1.5l1.8,2.6v-1.6h-0.5v-1h2.1v1h-0.4v3.7h-1l-1.8-2.6V63.2z M46,63.2h0.4v1h-2.1v-1h0.5v-2.7h-0.5v-1h2.1v1
	H46V63.2z"/>
<polygon class="st5" points="50.5,43.3 53.1,45.1 52.1,48 54.7,46.2 57.3,48 56.3,45.1 58.9,43.3 55.7,43.3 54.7,40.3 53.7,43.3 "/>
<path class="st6" d="M85.2,55.6h-7V41.7v-2.2c0-0.7,0-1.9-1.3-1.9c-1.3,0-1.3,1.2-1.3,1.9v9.3v0.6c0,0.8,0,2,1.1,2v4.3h-7.2V42.1
	v-2.6c0-0.7,0-1.9-1.3-1.9c-1.6,0-1.6,1.2-1.6,1.9v1.8v7.3v0.8c0,0.8,0,2,1.3,2v4.3h-8.4v-4.3c1.5,0,1.5-0.8,1.5-1.2v-0.8v-0.9v-9
	c0-0.7,0-1.9-1.5-1.9v-4.3h7.3v1.2c0.6-0.7,1.1-1.2,1.7-1.4c0.6-0.2,1.3-0.3,2.2-0.3c1,0,1.8,0.1,2.3,0.3c0.5,0.2,1,0.8,1.6,1.7
	c0.7-0.7,1.5-1.2,2.1-1.6c0.7-0.3,1.5-0.5,2.5-0.5c1.6,0,2.8,0.5,3.6,1.4c0.8,0.9,1.3,2.4,1.3,4.6v10.6c0,0.8,0,2,1.3,2L85.2,55.6z"
	/>
<path class="st7" d="M86.8,54.6c0.4-0.2,0.6-0.4,0.7-0.6c0.1-0.2,0.5-1,1.3-2.5c0.7-1.5,1.2-2.4,1.3-2.9c0.2-0.4,0.4-0.8,0.6-1.1
	c0.2-0.3,0.5-0.5,0.8-0.7c0,0.2,0,0.4-0.1,0.6c-0.1,0.3-0.3,0.8-0.6,1.8c-0.4,0.9-0.7,1.7-1.1,2.4c-0.4,0.7-0.8,1.4-1.2,2.1
	c0.7,0.2,1.4,0.3,1.9,0.4c0.5,0.1,1,0.1,1.3,0.1c0.2,0,0.5,0,0.9,0c0.4,0,0.7,0,0.9,0c0.2,0,0.3,0,0.5,0c0.1,0,0.3,0,0.4,0
	c-0.2,0.4-0.4,0.6-0.6,0.7c-0.2,0.1-0.5,0.1-0.8,0.1c-0.1,0-0.2,0-0.4,0c-0.2,0-0.3,0-0.4,0c-0.4,0-0.8,0-1.2-0.1
	c-1.1-0.2-1.8-0.3-2.1-0.3c-0.2,0-0.4,0-0.6,0c-0.3,0-0.7,0.4-1.4,1.1c-0.3,0.3-0.6,0.5-0.9,0.5c-0.1-0.2-0.2-0.4-0.1-0.6
	c0-0.3,0.1-0.5,0.3-0.6C86.2,55,86.5,54.8,86.8,54.6"/>
<polygon class="st5" points="85.8,43.3 88.4,45.1 87.4,48 90,46.2 92.5,48 91.6,45.1 94.1,43.3 90.9,43.3 90,40.3 89,43.3 "/>
<path class="st1" d="M122.4,27.2l-5.8-1.4l0.2-1c0.1-0.5,0.2-1,0.2-1.4c0-0.4-0.2-0.8-0.5-1.3c-0.4,0.3-0.8,0.6-1,1
	c-0.2,0.3-0.4,0.8-0.6,1.4l-0.2,0.8l-4.8-1.2l0.7-2.9c0.2,0,0.6-0.2,1.2-0.6c0.4-0.2,0.7-0.5,1.1-0.7l2-1.6l-0.8-1.7
	c-0.2-0.6-0.5-1.1-0.8-1.5c-0.3-0.4-0.6-0.7-0.9-0.8l0.8-3.1l5.8,1.4l-0.2,1c-0.1,0.4-0.2,0.8-0.2,1.1c0,0.3,0.1,0.7,0.3,1.2
	c0.4-0.3,0.8-0.5,0.9-0.8c0.2-0.3,0.3-0.7,0.4-1.1l0.3-1l5.2,1.3l-0.7,2.9c-0.3,0.1-0.6,0.3-1,0.5c-0.3,0.2-0.6,0.4-0.9,0.6
	l-2.1,1.5l1.2,2.9c0.1,0.3,0.3,0.7,0.4,1c0.1,0.3,0.3,0.5,0.6,0.7L122.4,27.2z M108.9,24l-6.4-1.2l0.6-3c0.4-0.1,0.6-0.4,0.7-0.8
	l1-4.9c0.1-0.4,0.1-0.6,0-0.8c0-0.2-0.1-0.4-0.3-0.6l0.6-3.1l5.7,1.1l-1.7,8.6c-0.1,0.4-0.1,0.8-0.1,1.1c0.1,0.3,0.2,0.5,0.4,0.5
	L108.9,24z M111.4,7.7c-0.1,0.7-0.5,1.2-1.1,1.5c-0.6,0.3-1.3,0.3-2.2,0.2c-0.8-0.1-1.3-0.5-1.8-1c-0.4-0.5-0.6-1.1-0.5-1.7
	c0.1-0.7,0.5-1.2,1.2-1.4c0.7-0.2,1.4-0.3,2.1-0.2c0.8,0.1,1.4,0.4,1.8,0.8C111.4,6.4,111.5,7,111.4,7.7 M101.2,22.7l-5.6-0.6
	c0.1-0.7,0.1-1.4,0.2-2c0-0.6,0.1-1.2,0.1-1.7l0.5-4.9c0.1-0.5,0-0.8-0.2-1.1C96,12.1,95.7,12,95.4,12c-0.1,0-0.2,0-0.3,0
	c-0.1,0-0.2,0-0.5,0.1L94,17.3c0,0.4,0,0.7,0.1,0.9c0.1,0.3,0.2,0.5,0.5,0.7l-0.3,3l-5.7-0.6c0-0.7,0-1.3,0.1-1.8
	c0-0.5,0.1-1,0.1-1.5l0-0.3l0.5-4.7c0.1-0.4,0-0.8,0-1c-0.1-0.4-0.4-0.7-0.9-0.7c-0.2,0-0.5,0-0.8,0L87,16.6
	c-0.1,0.9,0.1,1.4,0.5,1.6l-0.3,3l-6.5-0.7l0.3-3c0.3-0.2,0.6-0.4,0.7-0.6c0.1-0.2,0.2-0.5,0.2-1l0.4-3.7c0.1-0.6,0.1-0.9,0-1.2
	c-0.1-0.4-0.3-0.6-0.6-0.8l0.3-3.2l5.8,0.6l-0.1,0.7c1-0.7,2.2-1,3.4-0.9C92,7.7,92.5,7.8,92.9,8c0.4,0.2,0.8,0.6,1.2,1.3
	c0.7-0.4,1.3-0.6,1.7-0.8c0.7-0.2,1.4-0.3,2.2-0.2c1.3,0.1,2.2,0.5,2.8,1.2c0.6,0.6,0.9,1.6,0.7,2.9l-0.6,5.4c-0.1,0.5,0,0.9,0,1.3
	c0.1,0.3,0.2,0.5,0.5,0.6L101.2,22.7z M79,20.9l-6.5-0.1l0.1-3c0.3-0.1,0.5-0.4,0.5-0.9l0.1-5c0-0.4,0-0.6-0.1-0.8
	c-0.1-0.2-0.2-0.3-0.4-0.6l0.1-3.2l5.8,0.1l-0.2,8.8c0,0.4,0,0.8,0.1,1.1c0.1,0.3,0.3,0.4,0.5,0.4L79,20.9z M78.6,4.4
	c0,0.7-0.3,1.3-0.9,1.6c-0.6,0.4-1.3,0.6-2.1,0.5c-0.8,0-1.4-0.2-1.9-0.7c-0.5-0.4-0.8-1-0.8-1.6c0-0.7,0.3-1.2,0.9-1.6
	c0.6-0.4,1.3-0.5,2-0.5c0.8,0,1.4,0.2,1.9,0.5C78.3,3.1,78.6,3.7,78.6,4.4 M64.9,17.2l-0.3-6.1C64.3,11.1,64,11,63.8,11
	c-0.7,0-1,0.5-1,1.4l0.2,3c0,0.8,0.1,1.3,0.3,1.6c0.1,0.3,0.4,0.4,0.8,0.4c0.1,0,0.2,0,0.4-0.1C64.6,17.3,64.8,17.3,64.9,17.2
	 M70.4,10.2c-0.4,0.3-0.6,0.9-0.6,1.6l0.5,9.4c0.1,2-0.3,3.4-1.2,4.2c-0.8,0.6-2.2,1-4.1,1.1l-0.5,0c-1,0.1-2.1-0.1-3.3-0.3
	c-1.2-0.3-2-0.6-2.5-1.1l-0.2-3.2l5-0.3c0,0.6,0.1,1,0.2,1.2c0.1,0.2,0.3,0.3,0.7,0.3c0.4,0,0.7-0.1,0.8-0.3
	c0.1-0.2,0.2-0.4,0.1-0.8l-0.1-1.7c-0.3,0.3-0.8,0.5-1.3,0.7c-0.5,0.2-1.1,0.3-1.8,0.4c-1.3,0.1-2.4-0.2-3.1-0.9
	c-0.7-0.6-1.2-1.6-1.2-2.7l-0.3-5.4C57.4,10.9,57.5,9.7,58,9c0.6-0.9,1.6-1.4,3.2-1.5c0.7,0,1.3,0,1.6,0c0.6,0.1,1.2,0.4,1.7,0.8
	l0-0.8l5.8-0.3L70.4,10.2z M50.4,18l-0.2-1.5c-0.4,0.2-0.8,0.3-1,0.4c-0.6,0.4-0.9,0.8-0.9,1.2c0,0.3,0.1,0.5,0.3,0.6
	c0.1,0.1,0.3,0.2,0.5,0.1c0.2,0,0.5-0.1,0.7-0.3C50.1,18.4,50.3,18.2,50.4,18 M56.9,21.2l-5.6,0.8l-0.1-1c-1,0.8-1.5,1.2-1.6,1.2
	c-0.5,0.3-1.1,0.5-1.8,0.6c-1.2,0.2-2.1,0-2.9-0.5c-1-0.6-1.5-1.6-1.7-2.9c-0.1-1,0.1-2,0.8-2.8c0.6-0.7,1.3-1.2,2.2-1.5l3.6-1.7
	l-0.1-0.7c0-0.3-0.1-0.6-0.3-0.8c-0.1-0.2-0.3-0.3-0.6-0.3l-0.2,0c-0.3,0-0.6,0.2-0.7,0.6c-0.1,0.3-0.1,0.8,0,1.4l-4.8,0.7l-0.5-3.3
	c0.7-0.7,1.7-1.3,2.7-1.7c1.1-0.4,2.2-0.7,3.3-0.9c1.5-0.2,2.8-0.1,3.9,0.3c1.3,0.5,2.1,1.5,2.3,2.9l0.8,5.3
	c0.1,0.4,0.2,0.6,0.3,0.8c0,0,0.2,0.2,0.5,0.4L56.9,21.2z M42.5,22.8l-5.5,1.2c-0.2-0.7-0.3-1.4-0.5-2c-0.2-0.6-0.3-1.1-0.5-1.6
	l-1.1-4.8c-0.1-0.5-0.3-0.8-0.5-1c-0.3-0.2-0.5-0.2-0.9-0.2c-0.1,0-0.2,0.1-0.3,0.1c-0.1,0-0.2,0.1-0.4,0.2l1.2,5.2
	c0.1,0.4,0.2,0.7,0.4,0.9c0.2,0.2,0.4,0.4,0.7,0.5l0.7,2.9l-5.5,1.3c-0.2-0.7-0.4-1.3-0.6-1.8c-0.1-0.5-0.3-1-0.4-1.5l-0.1-0.3
	L28,17.5c-0.1-0.4-0.2-0.8-0.4-1c-0.3-0.4-0.6-0.5-1.1-0.4c-0.2,0.1-0.5,0.1-0.7,0.3l1.2,5.2c0.2,0.9,0.5,1.3,1,1.4l0.7,2.9
	l-6.4,1.4l-0.7-2.9c0.3-0.3,0.4-0.6,0.4-0.8c0-0.2,0-0.6-0.1-1l-0.9-3.6c-0.1-0.5-0.2-0.9-0.4-1.1c-0.2-0.3-0.5-0.5-0.8-0.5
	l-0.7-3.1L25,13l0.2,0.7c0.7-1,1.7-1.6,2.9-1.9c0.7-0.2,1.3-0.2,1.7-0.1c0.4,0.1,1,0.3,1.6,0.8c0.6-0.6,1-1,1.4-1.3
	c0.6-0.4,1.3-0.8,2-0.9c1.2-0.3,2.2-0.2,3,0.2c0.8,0.4,1.3,1.3,1.6,2.5l1.2,5.3c0.1,0.5,0.3,0.9,0.4,1.2c0.2,0.3,0.4,0.4,0.6,0.4
	L42.5,22.8z"/>
<path class="st8" d="M122,26l-5.8-1.4l0.3-1c0.1-0.5,0.2-1,0.2-1.4c0-0.4-0.2-0.8-0.5-1.3c-0.4,0.3-0.8,0.6-1,1
	c-0.2,0.3-0.4,0.8-0.6,1.4l-0.2,0.8l-4.8-1.2l0.7-2.9c0.2,0,0.6-0.2,1.2-0.6c0.4-0.2,0.7-0.5,1.1-0.7l2-1.6l-0.8-1.7
	c-0.2-0.6-0.5-1.1-0.8-1.5c-0.3-0.4-0.6-0.7-0.9-0.8l0.8-3.1l5.8,1.4l-0.3,1c-0.1,0.4-0.2,0.8-0.2,1.1c0,0.3,0.1,0.7,0.3,1.2
	c0.4-0.3,0.8-0.5,0.9-0.8c0.2-0.3,0.3-0.7,0.4-1.1l0.2-1l5.2,1.3l-0.7,2.9c-0.3,0.1-0.6,0.3-1,0.5c-0.3,0.2-0.6,0.4-0.9,0.6
	l-2.1,1.5l1.2,2.9c0.1,0.3,0.3,0.7,0.4,1c0.1,0.3,0.3,0.5,0.6,0.7L122,26z M108.5,22.8l-6.4-1.2l0.6-3c0.4-0.1,0.6-0.4,0.7-0.8
	l1-4.9c0.1-0.4,0.1-0.6,0-0.8c0-0.2-0.1-0.4-0.3-0.6l0.6-3.1l5.7,1.1l-1.7,8.6c-0.1,0.4-0.1,0.8-0.1,1.1c0,0.3,0.2,0.5,0.4,0.5
	L108.5,22.8z M111,6.6c-0.1,0.7-0.5,1.2-1.1,1.5c-0.6,0.3-1.3,0.3-2.2,0.2c-0.8-0.1-1.4-0.5-1.8-1c-0.4-0.5-0.6-1.1-0.5-1.7
	c0.1-0.7,0.5-1.2,1.2-1.4c0.7-0.2,1.4-0.3,2.1-0.2c0.8,0.1,1.4,0.4,1.8,0.8C111,5.2,111.1,5.8,111,6.6z M100.8,21.5l-5.6-0.6
	c0.1-0.7,0.1-1.4,0.2-2c0-0.6,0.1-1.2,0.1-1.7l0.5-4.9c0-0.5,0-0.8-0.2-1.1c-0.2-0.3-0.4-0.4-0.8-0.4c-0.1,0-0.2,0-0.3,0
	c-0.1,0-0.2,0-0.5,0.1l-0.6,5.3c0,0.4,0,0.7,0.1,0.9c0.1,0.3,0.2,0.5,0.5,0.7l-0.3,3l-5.7-0.6c0-0.7,0-1.4,0.1-1.8
	c0-0.5,0.1-1,0.1-1.5l0-0.3l0.5-4.7c0.1-0.4,0-0.8,0-1c-0.1-0.4-0.4-0.7-0.9-0.7c-0.2,0-0.5,0-0.8,0l-0.6,5.3
	c-0.1,0.9,0.1,1.4,0.5,1.6l-0.3,3l-6.5-0.7l0.3-3c0.3-0.2,0.6-0.4,0.7-0.6c0.1-0.2,0.2-0.5,0.2-1l0.4-3.7c0.1-0.6,0.1-0.9,0-1.2
	c-0.1-0.4-0.3-0.6-0.6-0.8L81.7,6l5.8,0.6l-0.1,0.7c1-0.7,2.2-1,3.4-0.9c0.7,0.1,1.3,0.2,1.7,0.4c0.4,0.2,0.8,0.6,1.2,1.3
	c0.7-0.4,1.3-0.6,1.7-0.8c0.7-0.2,1.4-0.3,2.2-0.2c1.3,0.1,2.2,0.5,2.8,1.2c0.6,0.6,0.9,1.6,0.7,2.9l-0.6,5.4
	c-0.1,0.5-0.1,0.9,0,1.3c0.1,0.3,0.2,0.5,0.5,0.6L100.8,21.5z M78.6,19.7l-6.5-0.1l0.1-3c0.3-0.1,0.5-0.5,0.5-0.9l0.1-5
	c0-0.4,0-0.6-0.1-0.8c-0.1-0.2-0.2-0.3-0.4-0.6l0.1-3.2l5.8,0.1L78,15c0,0.4,0,0.8,0.1,1.1c0.1,0.3,0.3,0.4,0.5,0.4L78.6,19.7z
	 M78.2,3.2c0,0.7-0.3,1.3-0.9,1.6c-0.6,0.4-1.3,0.6-2.1,0.5c-0.8,0-1.4-0.2-1.9-0.7c-0.5-0.4-0.8-1-0.8-1.6c0-0.7,0.3-1.2,0.9-1.6
	C74,1.2,74.7,1,75.4,1c0.8,0,1.4,0.2,1.9,0.5C77.9,1.9,78.2,2.5,78.2,3.2z M64.5,16.1L64.2,10c-0.3-0.1-0.6-0.2-0.8-0.2
	c-0.7,0-1,0.5-1,1.4l0.2,3c0,0.8,0.1,1.3,0.3,1.6c0.1,0.3,0.4,0.4,0.8,0.4c0.1,0,0.2,0,0.4-0.1C64.2,16.2,64.4,16.1,64.5,16.1z
	 M70,9c-0.4,0.3-0.6,0.9-0.6,1.6l0.5,9.4c0.1,2-0.3,3.4-1.2,4.2c-0.8,0.6-2.2,1-4.1,1.1l-0.5,0c-1,0.1-2.1-0.1-3.3-0.3
	c-1.2-0.3-2-0.6-2.5-1.1l-0.2-3.2l5-0.3c0,0.6,0.1,1,0.2,1.2c0.1,0.2,0.3,0.3,0.8,0.3c0.4,0,0.7-0.1,0.8-0.3
	c0.1-0.2,0.2-0.5,0.1-0.8l-0.1-1.7c-0.3,0.3-0.8,0.5-1.3,0.7c-0.5,0.2-1.1,0.3-1.8,0.4c-1.3,0.1-2.3-0.2-3.1-0.9
	c-0.7-0.6-1.1-1.6-1.2-2.7L57,11.2c-0.1-1.6,0.1-2.7,0.5-3.4c0.6-0.9,1.6-1.4,3.2-1.5c0.7,0,1.3,0,1.6,0c0.6,0.1,1.2,0.4,1.7,0.8
	l0-0.8L69.8,6L70,9z M50,16.8l-0.2-1.5c-0.4,0.2-0.8,0.3-1,0.4c-0.6,0.4-0.9,0.8-0.9,1.2c0,0.3,0.1,0.5,0.3,0.6
	c0.1,0.1,0.3,0.2,0.5,0.1c0.2,0,0.5-0.1,0.7-0.3C49.7,17.2,49.9,17,50,16.8z M56.5,20l-5.6,0.8l-0.1-1c-1,0.8-1.5,1.2-1.6,1.2
	c-0.5,0.3-1.1,0.5-1.8,0.6c-1.2,0.2-2.1,0-2.9-0.5c-0.9-0.6-1.5-1.6-1.7-2.9c-0.1-1,0.1-2,0.8-2.8c0.6-0.7,1.3-1.2,2.2-1.5l3.6-1.7
	l-0.1-0.7c0-0.3-0.1-0.6-0.3-0.8c-0.1-0.2-0.3-0.3-0.6-0.3l-0.2,0c-0.3,0-0.6,0.2-0.7,0.6c-0.1,0.3-0.1,0.8,0,1.4l-4.8,0.7l-0.5-3.3
	C43,9,43.9,8.5,45,8c1.1-0.4,2.2-0.7,3.3-0.9c1.5-0.2,2.8-0.1,3.9,0.3c1.3,0.5,2.1,1.5,2.3,2.9l0.8,5.3c0.1,0.4,0.2,0.7,0.3,0.8
	c0,0,0.2,0.2,0.5,0.4L56.5,20z M42.1,21.7l-5.5,1.2c-0.2-0.7-0.3-1.4-0.5-2c-0.2-0.6-0.3-1.1-0.5-1.6l-1.1-4.8
	c-0.1-0.5-0.3-0.8-0.5-1c-0.2-0.2-0.5-0.2-0.9-0.2c-0.1,0-0.2,0.1-0.3,0.1c-0.1,0-0.2,0.1-0.4,0.2l1.2,5.2c0.1,0.4,0.2,0.7,0.4,0.9
	c0.2,0.2,0.4,0.4,0.7,0.5l0.7,2.9l-5.5,1.3c-0.2-0.7-0.4-1.3-0.6-1.8c-0.1-0.5-0.3-1-0.4-1.5l-0.1-0.3l-1.1-4.6
	c-0.1-0.4-0.2-0.8-0.4-1C27,15,26.6,14.8,26.1,15c-0.2,0.1-0.5,0.1-0.7,0.3l1.2,5.2c0.2,0.9,0.5,1.3,1,1.4l0.7,2.9L22,26.2l-0.7-2.9
	c0.3-0.3,0.4-0.6,0.4-0.8c0-0.2,0-0.6-0.1-1l-0.9-3.6c-0.1-0.5-0.2-0.9-0.3-1.1c-0.2-0.3-0.5-0.5-0.8-0.5l-0.7-3.1l5.7-1.3l0.2,0.7
	c0.7-1,1.7-1.6,2.9-1.9c0.7-0.2,1.3-0.2,1.7-0.1c0.4,0.1,1,0.3,1.6,0.8c0.6-0.6,1-1,1.4-1.3c0.6-0.4,1.3-0.7,2-0.9
	c1.2-0.3,2.2-0.2,3,0.2c0.8,0.4,1.3,1.3,1.6,2.5l1.2,5.3c0.1,0.5,0.3,0.9,0.4,1.2c0.2,0.3,0.4,0.4,0.7,0.4L42.1,21.7z"/>
<path class="st5" d="M122,26l-5.8-1.4l0.3-1c0.1-0.5,0.2-1,0.2-1.4c0-0.4-0.2-0.8-0.5-1.3c-0.4,0.3-0.8,0.6-1,1
	c-0.2,0.3-0.4,0.8-0.6,1.4l-0.2,0.8l-4.8-1.2l0.7-2.9c0.2,0,0.6-0.2,1.2-0.6c0.4-0.2,0.7-0.5,1.1-0.7l2-1.6l-0.8-1.7
	c-0.2-0.6-0.5-1.1-0.8-1.5c-0.3-0.4-0.6-0.7-0.9-0.8l0.8-3.1l5.8,1.4l-0.2,1c-0.1,0.4-0.2,0.8-0.2,1.1c0,0.3,0.1,0.7,0.3,1.2
	c0.4-0.3,0.7-0.5,0.9-0.8c0.2-0.3,0.3-0.7,0.4-1.1l0.3-1l5.2,1.3l-0.7,2.9c-0.3,0.1-0.6,0.3-1,0.5c-0.3,0.2-0.6,0.4-0.9,0.6
	l-2.1,1.5l1.2,2.9c0.1,0.3,0.3,0.7,0.4,1c0.1,0.3,0.3,0.5,0.6,0.7L122,26z M108.5,22.8l-6.4-1.2l0.6-3c0.4-0.1,0.6-0.4,0.7-0.8
	l1-4.9c0.1-0.4,0.1-0.6,0-0.8c0-0.2-0.1-0.4-0.3-0.6l0.6-3.1l5.7,1.1l-1.7,8.6c-0.1,0.4-0.1,0.8-0.1,1.1c0.1,0.3,0.2,0.5,0.4,0.5
	L108.5,22.8z M111,6.5c-0.1,0.7-0.5,1.2-1.1,1.5c-0.6,0.3-1.3,0.3-2.2,0.2c-0.8-0.1-1.3-0.5-1.8-1c-0.4-0.5-0.6-1.1-0.5-1.7
	c0.1-0.7,0.5-1.2,1.2-1.4c0.7-0.2,1.4-0.3,2.1-0.2c0.8,0.1,1.4,0.4,1.8,0.8C111,5.2,111.1,5.8,111,6.5 M100.8,21.5l-5.6-0.6
	c0.1-0.7,0.1-1.4,0.2-2c0-0.6,0.1-1.2,0.1-1.7l0.5-4.9c0-0.5,0-0.8-0.2-1.1c-0.2-0.3-0.4-0.4-0.8-0.4c-0.1,0-0.2,0-0.3,0
	c-0.1,0-0.2,0-0.5,0.1l-0.6,5.3c0,0.4,0,0.7,0.1,0.9c0.1,0.3,0.2,0.5,0.5,0.7l-0.3,3l-5.7-0.6c0-0.7,0-1.4,0.1-1.8
	c0-0.5,0.1-1,0.1-1.5l0-0.3l0.5-4.7c0-0.4,0-0.8,0-1c-0.1-0.4-0.4-0.7-0.9-0.7c-0.2,0-0.5,0-0.8,0l-0.6,5.3
	c-0.1,0.9,0.1,1.4,0.5,1.6l-0.3,3l-6.5-0.7l0.3-3c0.4-0.2,0.6-0.4,0.7-0.6c0.1-0.2,0.2-0.5,0.2-1l0.4-3.7c0.1-0.6,0.1-0.9,0-1.2
	c-0.1-0.4-0.3-0.6-0.6-0.8L81.7,6l5.8,0.6l-0.1,0.7c1-0.7,2.2-1,3.4-0.9c0.7,0.1,1.3,0.2,1.7,0.4c0.4,0.2,0.8,0.6,1.2,1.3
	c0.7-0.4,1.3-0.6,1.7-0.8c0.7-0.2,1.4-0.3,2.2-0.2c1.3,0.1,2.2,0.5,2.8,1.2c0.6,0.6,0.8,1.6,0.7,2.9l-0.6,5.4c-0.1,0.5,0,0.9,0,1.3
	c0.1,0.3,0.2,0.5,0.5,0.6L100.8,21.5z M78.6,19.7l-6.5-0.1l0.1-3c0.3-0.1,0.5-0.4,0.5-0.9l0.1-5c0-0.4,0-0.6-0.1-0.8
	c-0.1-0.2-0.2-0.3-0.4-0.6l0.1-3.2l5.8,0.1L78,15c0,0.4,0,0.8,0.1,1.1c0.1,0.3,0.3,0.4,0.5,0.4L78.6,19.7z M78.2,3.2
	c0,0.7-0.3,1.3-0.9,1.6c-0.6,0.4-1.3,0.6-2.1,0.5c-0.8,0-1.4-0.2-1.9-0.7c-0.5-0.4-0.8-1-0.8-1.6c0-0.7,0.3-1.2,0.9-1.6
	C74,1.2,74.7,1,75.4,1c0.8,0,1.4,0.2,1.9,0.5C77.9,1.9,78.2,2.5,78.2,3.2 M64.5,16L64.2,10c-0.3-0.1-0.6-0.2-0.8-0.2
	c-0.7,0-1,0.5-1,1.4l0.2,3c0,0.8,0.1,1.3,0.3,1.6c0.1,0.3,0.4,0.4,0.8,0.4c0.1,0,0.2,0,0.4-0.1C64.2,16.1,64.4,16.1,64.5,16 M70,9
	c-0.4,0.3-0.6,0.9-0.6,1.6l0.5,9.4c0.1,2-0.3,3.4-1.2,4.2c-0.8,0.6-2.2,1-4.1,1.1l-0.5,0c-1,0.1-2.1-0.1-3.3-0.3
	c-1.2-0.3-2-0.6-2.5-1.1l-0.2-3.2l5-0.3c0,0.6,0.1,1,0.2,1.2c0.1,0.2,0.3,0.3,0.7,0.3c0.4,0,0.7-0.1,0.8-0.3
	c0.1-0.2,0.2-0.4,0.1-0.8l-0.1-1.7c-0.4,0.3-0.8,0.5-1.3,0.7c-0.5,0.2-1.1,0.3-1.7,0.4c-1.3,0.1-2.4-0.2-3.1-0.9
	c-0.7-0.6-1.1-1.6-1.2-2.7l-0.3-5.4c-0.1-1.6,0.1-2.7,0.5-3.4c0.6-0.9,1.6-1.4,3.2-1.5c0.7,0,1.3,0,1.6,0c0.6,0.1,1.2,0.4,1.7,0.8
	l0-0.8L69.8,6L70,9z M50,16.8l-0.2-1.5c-0.4,0.2-0.8,0.3-1,0.4c-0.6,0.4-0.9,0.8-0.9,1.2c0,0.3,0.1,0.5,0.3,0.6
	c0.1,0.1,0.3,0.2,0.5,0.1c0.2,0,0.5-0.1,0.7-0.3C49.7,17.2,49.9,17,50,16.8 M56.5,20l-5.6,0.8l-0.1-1c-1,0.8-1.5,1.2-1.6,1.2
	c-0.5,0.3-1.1,0.5-1.8,0.6c-1.2,0.2-2.1,0-2.9-0.5c-1-0.6-1.5-1.6-1.7-2.9c-0.1-1,0.1-2,0.8-2.8c0.6-0.7,1.3-1.2,2.2-1.5l3.6-1.7
	l-0.1-0.7c0-0.3-0.1-0.6-0.3-0.8c-0.1-0.2-0.3-0.3-0.6-0.3l-0.2,0c-0.3,0-0.6,0.2-0.7,0.6c-0.1,0.3-0.1,0.8,0,1.4l-4.8,0.7l-0.5-3.3
	C43,9,43.9,8.4,45,8c1.1-0.4,2.2-0.7,3.3-0.9c1.5-0.2,2.8-0.1,3.9,0.3c1.3,0.5,2.1,1.5,2.3,2.9l0.8,5.3c0.1,0.4,0.2,0.6,0.3,0.8
	c0,0,0.2,0.2,0.5,0.4L56.5,20z M42.1,21.6l-5.5,1.2c-0.2-0.7-0.3-1.4-0.5-2c-0.2-0.6-0.3-1.1-0.5-1.6l-1.1-4.8
	c-0.1-0.5-0.3-0.8-0.5-1c-0.2-0.2-0.5-0.2-0.9-0.2c-0.1,0-0.2,0.1-0.3,0.1c-0.1,0-0.2,0.1-0.4,0.2l1.2,5.2c0.1,0.4,0.2,0.7,0.4,0.9
	c0.2,0.2,0.4,0.4,0.7,0.5l0.7,2.9l-5.5,1.3c-0.2-0.7-0.4-1.3-0.6-1.8c-0.1-0.5-0.3-1-0.4-1.5l-0.1-0.3l-1.1-4.6
	c-0.1-0.4-0.2-0.8-0.4-1c-0.3-0.4-0.6-0.5-1.1-0.4c-0.2,0.1-0.5,0.1-0.7,0.3l1.2,5.2c0.2,0.9,0.5,1.3,1,1.4l0.7,2.9L22,26.2
	l-0.7-2.9c0.3-0.3,0.4-0.6,0.4-0.8c0-0.2,0-0.6-0.1-1l-0.9-3.6c-0.1-0.5-0.2-0.9-0.3-1.1c-0.2-0.3-0.5-0.5-0.8-0.5l-0.7-3.1l5.7-1.3
	l0.2,0.7c0.7-1,1.7-1.6,2.9-1.9c0.7-0.2,1.3-0.2,1.7-0.1c0.4,0.1,1,0.3,1.6,0.8c0.6-0.6,1-1,1.4-1.3c0.6-0.4,1.3-0.7,2-0.9
	c1.2-0.3,2.2-0.2,3,0.2c0.8,0.4,1.3,1.3,1.6,2.5l1.2,5.3c0.1,0.5,0.3,0.9,0.4,1.2c0.2,0.3,0.4,0.4,0.7,0.4L42.1,21.6z"/>
<path class="st1" d="M65.3,98.6l-1.6-1.8l1.8-1.5l1.2,1.4l1.5-1.3l1.5,1.7L68,98.6l-1.2-1.3L65.3,98.6z M74.3,88.4
	c0,0.1,0.2,0.3,0.7,0.6c0.5,0.4,0.8,0.7,1.1,1c0.4,0.6,0.6,1.1,0.7,1.7v0.1l0,0.4c0,0.1,0,0.2-0.1,0.4c0.1-0.2,0.2-0.5,0.3-0.9
	c0-0.2,0-0.4,0.1-0.5c0-0.2,0-0.3,0-0.5c0-1-0.2-1.7-0.6-2.2c-0.3-0.4-0.7-0.6-1.3-0.5c-0.2,0-0.4,0-0.6,0.1
	C74.4,88.1,74.3,88.2,74.3,88.4 M85.6,98.2l-1.9-1.5l1.5-1.8l1.5,1.2l1.2-1.5l1.8,1.4l-1.5,1.8l-1.4-1.1L85.6,98.2z M96.3,84.9
	l-1.1-0.4c-0.5-0.1-0.8-0.2-1.1-0.1c-0.4,0.1-0.8,0.3-1,0.6c-0.1,0.2-0.2,0.4-0.2,0.7l3.6-0.7l0,0L96.3,84.9z M40.2,89.4l-2.9-0.1
	l-0.5-0.2c-0.4,0.7-0.9,1.3-1.5,1.9c-0.9,0.9-1.8,1.5-2.8,1.8c-1.3,0.4-2.8,0.4-4.3-0.2c-1.3-0.4-2.3-1.1-3.1-2.1
	c-0.6-0.8-1.1-1.7-1.3-2.7c-0.2-0.8-0.3-1.6-0.2-2.3l7.5-4.3l-0.2,0.4c-0.1,0.1-0.2,0.2-0.2,0.3c-0.1,0.1-0.1,0.2-0.1,0.3
	c-0.3,0.7-0.2,1.5,0.1,2.2c0.4,0.7,0.9,1.2,1.7,1.5c0.8,0.3,1.5,0.3,2.3,0c0.6-0.2,1-0.5,1.1-0.8c0.2-0.4,0-1.1-0.5-1.9
	c-0.4-0.6-0.6-0.9-0.6-1.2l3.1-2.2l0.6,2.1l1.7,0.6c1,0.4,1.7,0.4,2,0c0.3-0.3,0.7-0.5,1.1-0.4c0,0.3,0.1,0.6,0.2,0.8
	c0,0.1,0.1,0.2,0.1,0.3c0,0.1,0.1,0.2,0.3,0.5c0.6-0.1,1.1-0.4,1.4-0.6c0.2-0.2,0.4-0.2,0.6-0.2c0.1,0,0.1,0.1,0.1,0.3
	c0,0.4,0.1,0.7,0.1,0.7c0.1,0.1,0.2,0.3,0.3,0.4l13.2,2L59,85.9c-0.1-0.2-0.3-0.4-0.7-0.6l-10.1-1.6l-0.1-0.1c0.2-1.3,1-2.5,2.4-3.5
	c1.1-0.8,2.5-1.5,4.1-2c1.5-0.4,2.6-0.6,3.4-0.5c0.4,0.1,0.6,0.3,0.7,0.7c0,0.1,0,0.4,0,0.7c0,0.3-0.1,0.8-0.2,1.4l-0.3,1.9
	c-0.3-0.5-0.5-0.8-0.6-1c-0.3-0.3-0.7-0.5-1.3-0.6c-0.2,0-0.5-0.1-0.8-0.1c-0.3,0-0.6,0-0.8,0.1c-0.2,0-0.5,0.1-0.7,0.1
	c-0.2,0-0.5,0.1-0.8,0.2l-1.6,0.5l0,0.1l7.9,1.2c1.2,0.2,2,0.8,2.6,1.8c0.4,0.8,0.6,1.6,0.4,2.5l0.8,0.1l0-0.1l1,0.1
	c1,0.1,1.6-0.1,2-0.5c0.1-0.2,0.4-0.6,0.7-1.2l0.5,0.1c0.3,0.9,0.5,1.4,0.9,1.6c0.3,0.2,1.1,0.3,2.5,0.4l0,0.1l1.8,0l1.1-1.1
	c0.2-0.2,0.4-0.3,0.6-0.5c0.2-0.1,0.4-0.3,0.6-0.3c0.4-0.2,0.9-0.3,1.5-0.3c0.7,0,1.2,0.1,1.6,0.4c0.5,0.3,0.8,0.9,1,1.7l2.7,0
	l0-0.2l1-0.1c1-0.1,1.6-0.4,1.8-0.8c0.1-0.2,0.3-0.6,0.5-1.3l0.5,0c0.4,0.8,0.8,1.3,1.1,1.4c0.3,0.1,1.2,0.1,2.5-0.1l0,0.3l3.5-0.8
	l-0.1-0.2L89.6,84c0.2-0.4,0.4-0.7,0.5-0.9c0.1-0.2,0.2-0.4,0.3-0.5c0.5-0.6,1-1,1.8-1.1c0.8-0.2,1.7,0,2.9,0.5l3,1.5
	c1.2,0.5,2.3,0.7,3.2,0.5l0.4-0.2l0.5-0.1l-0.6,7.5L89.2,94l-0.1-0.4c-1,0.1-1.6,0.1-1.9,0.1c-0.3-0.1-0.8-0.4-1.3-1
	c-0.1,0.3-0.3,0.6-0.3,0.7c-0.1,0.2-0.2,0.3-0.2,0.4c-0.2,0.2-0.7,0.4-1.3,0.5l0,0.4l-5.9,0.1l-2.7,3.1c-0.4-0.8-0.8-1.4-1.2-1.7
	c-0.5-0.4-1.1-0.8-1.8-0.9c-0.4-0.1-0.8-0.2-1.3-0.2c-0.5,0-1.1-0.1-1.8,0l0-0.2c-0.8-0.1-1.3-0.1-1.5-0.2c-0.3-0.1-0.7-0.5-1.1-1.3
	c-0.2,0.3-0.4,0.5-0.5,0.7c-0.1,0.2-0.2,0.3-0.3,0.3c-0.3,0.2-0.8,0.3-1.5,0.3l-0.8,0l0,0.2l-17.8-2.8l-0.2,0.5
	c-1-0.3-1.6-0.6-1.8-0.8c-0.2-0.2-0.5-0.6-0.7-1.1l-0.7,0.4c-0.4,0.2-0.7,0.2-1.1,0.1c-0.3-0.1-0.6-0.3-0.7-0.6
	C40.4,90.1,40.3,89.8,40.2,89.4 M115.4,81c-0.3-0.6-0.7-1.1-1.1-1.3c-0.4-0.2-0.8-0.2-1.2,0c-0.2,0.1-0.3,0.2-0.4,0.4
	c-0.1,0.1-0.1,0.1-0.2,0.2c-0.1,0.1-0.1,0.2-0.2,0.3c0.6,0.1,1,0.1,1.2,0.1c0.5,0.1,0.9,0.3,1.2,0.5c0.4,0.3,0.7,0.7,0.9,1.1
	c0.1,0.2,0.2,0.4,0.2,0.7l0.1,0.7c0-0.7,0-1.1-0.1-1.4C115.7,81.8,115.6,81.4,115.4,81 M110.2,88.6l-0.1-0.2
	c-1.4,0.4-2.3,0.7-2.7,0.7c-0.9,0.1-1.5-0.1-2-0.6c-0.3-0.4-0.7-1.4-1.2-3L100.3,75l3-3.1l3.1,10.3l2.6-0.8l1-0.5
	c0.2-0.1,0.4-0.4,0.7-0.9c0.2-0.4,0.3-0.7,0.5-1c0.1-0.2,0.3-0.5,0.4-0.6c0.4-0.6,0.9-1.1,1.5-1.3c0.6-0.3,1.1-0.2,1.7,0.1
	c0.2,0.1,0.6,0.6,1.4,1.5c0.7,0.8,1.4,1.4,2,1.8c0.2,0.1,0.4,0.2,0.7,0.3c0.1,0,0.4,0.1,0.8,0.1l-2.5,7.8c-0.9-0.5-1.7-0.9-2.1-1
	c-0.6-0.2-1.2-0.2-1.9,0C112.4,87.7,111.4,88.1,110.2,88.6 M95.2,95.6L95.2,95.6l1.1-1.9l2,1.1l-1.2,1.9L95.2,95.6z"/>
<path class="st8" d="M66.4,97.5l-1.6-1.8l1.8-1.5l1.2,1.4l1.5-1.3l1.5,1.7l-1.7,1.5l-1.2-1.3L66.4,97.5z M75.3,87.3
	c0,0.1,0.2,0.3,0.7,0.6c0.5,0.4,0.8,0.7,1.1,1c0.4,0.6,0.6,1.1,0.7,1.7l0,0.1l0,0.4c0,0.1,0,0.2-0.1,0.4c0.1-0.2,0.2-0.6,0.3-0.9
	c0-0.2,0-0.4,0.1-0.5c0-0.2,0-0.3,0-0.5c0-1-0.2-1.7-0.6-2.2c-0.3-0.4-0.7-0.6-1.2-0.5c-0.2,0-0.4,0-0.6,0.1
	C75.4,87,75.3,87.1,75.3,87.3z M86.6,97.1l-1.9-1.5l1.5-1.8l1.5,1.2l1.2-1.5l1.8,1.4l-1.5,1.8l-1.4-1.1L86.6,97.1z M97.4,83.8
	l-1.1-0.4c-0.5-0.1-0.8-0.2-1.1-0.1c-0.4,0.1-0.8,0.3-1,0.6c-0.1,0.2-0.2,0.4-0.2,0.7l3.6-0.7l0,0L97.4,83.8z M41.3,88.3l-2.9-0.1
	l-0.5-0.2c-0.4,0.7-0.9,1.3-1.5,1.9c-0.9,0.9-1.8,1.5-2.8,1.8c-1.4,0.4-2.8,0.4-4.3-0.2c-1.3-0.4-2.3-1.1-3.1-2.1
	c-0.6-0.8-1.1-1.7-1.3-2.7c-0.2-0.8-0.3-1.6-0.2-2.3l7.5-4.3l-0.2,0.4c-0.1,0.1-0.2,0.2-0.2,0.3c-0.1,0.1-0.1,0.2-0.1,0.3
	c-0.3,0.7-0.2,1.5,0.1,2.2c0.3,0.7,0.9,1.2,1.7,1.5c0.8,0.3,1.5,0.2,2.3,0c0.6-0.2,1-0.5,1.1-0.8c0.2-0.4,0-1.1-0.5-1.9
	c-0.3-0.6-0.6-0.9-0.6-1.2l3.1-2.2l0.6,2.1l1.7,0.6c1,0.4,1.7,0.4,2,0c0.3-0.3,0.7-0.5,1.1-0.4c0,0.3,0.1,0.6,0.2,0.8
	c0,0.1,0.1,0.2,0.1,0.3c0,0.1,0.1,0.2,0.3,0.5c0.6-0.1,1.1-0.4,1.4-0.6c0.2-0.2,0.4-0.2,0.6-0.2c0.1,0,0.1,0.1,0.1,0.3
	c0,0.4,0.1,0.7,0.1,0.7c0.1,0.1,0.2,0.3,0.3,0.4l13.2,2l-0.3-0.8c-0.1-0.2-0.3-0.4-0.7-0.6l-10.1-1.6l-0.1-0.1
	c0.2-1.3,1-2.5,2.4-3.5c1.1-0.8,2.5-1.5,4.1-2c1.5-0.4,2.6-0.6,3.4-0.5c0.4,0.1,0.6,0.3,0.7,0.7c0,0.1,0,0.4,0,0.7
	c0,0.3-0.1,0.8-0.2,1.4l-0.3,1.9c-0.3-0.5-0.5-0.8-0.6-1c-0.3-0.3-0.7-0.5-1.3-0.6c-0.2,0-0.5-0.1-0.8-0.1c-0.3,0-0.6,0-0.8,0.1
	c-0.2,0-0.5,0.1-0.7,0.1c-0.2,0-0.5,0.1-0.8,0.2l-1.6,0.5l0,0.1l7.9,1.2c1.2,0.2,2,0.8,2.6,1.8c0.4,0.8,0.6,1.6,0.4,2.5l0.8,0.1
	v-0.1l1,0.1c1,0.1,1.6-0.1,2-0.5c0.1-0.2,0.4-0.6,0.7-1.2l0.5,0.1c0.3,0.9,0.5,1.4,0.9,1.6c0.3,0.2,1.1,0.3,2.5,0.4l0,0.1l1.8,0
	l1.1-1.1c0.2-0.2,0.4-0.3,0.6-0.5c0.2-0.2,0.4-0.3,0.6-0.3c0.4-0.2,0.9-0.3,1.5-0.3c0.7,0,1.2,0.1,1.6,0.4c0.5,0.3,0.8,0.9,1,1.7
	l2.7,0l0-0.2l1-0.1c1-0.1,1.6-0.4,1.8-0.8c0.1-0.2,0.3-0.6,0.5-1.3l0.5,0c0.4,0.8,0.8,1.3,1.1,1.4c0.3,0.1,1.2,0.1,2.5-0.1l0,0.3
	l3.6-0.8l-0.1-0.2l-2.8-1.8c0.2-0.4,0.3-0.7,0.5-0.9c0.1-0.2,0.2-0.4,0.3-0.5c0.4-0.6,1-1,1.8-1.1c0.8-0.2,1.7,0,2.9,0.5l3,1.5
	c1.2,0.5,2.3,0.7,3.2,0.5l0.4-0.2l0.5-0.1l-0.6,7.5l-12.4,2.8l-0.1-0.4c-1,0.1-1.6,0.1-1.9,0.1c-0.3-0.1-0.8-0.4-1.3-1
	c-0.1,0.3-0.3,0.6-0.3,0.7c-0.1,0.2-0.2,0.3-0.2,0.4c-0.2,0.2-0.7,0.4-1.3,0.5l0,0.4l-5.9,0.1l-2.7,3.1c-0.4-0.8-0.8-1.4-1.2-1.7
	c-0.5-0.4-1.1-0.8-1.8-0.9c-0.4-0.1-0.8-0.2-1.3-0.2c-0.5,0-1.1-0.1-1.8,0l0-0.2c-0.8-0.1-1.3-0.1-1.5-0.2c-0.3-0.1-0.7-0.5-1.1-1.3
	c-0.2,0.3-0.3,0.5-0.5,0.7C67.1,92.9,67,93,66.9,93c-0.3,0.2-0.8,0.3-1.5,0.3l-0.8,0l0,0.2l-17.8-2.8l-0.2,0.5
	c-1-0.3-1.6-0.6-1.8-0.7c-0.2-0.2-0.5-0.6-0.7-1.1l-0.7,0.4c-0.4,0.2-0.7,0.2-1.1,0.1c-0.3-0.1-0.6-0.3-0.7-0.6
	C41.4,89,41.4,88.7,41.3,88.3z M116.5,79.9c-0.3-0.6-0.7-1.1-1.1-1.3c-0.4-0.2-0.8-0.2-1.2,0c-0.2,0.1-0.3,0.2-0.4,0.4
	c-0.1,0.1-0.1,0.1-0.2,0.2c-0.1,0.1-0.1,0.2-0.2,0.3c0.6,0.1,1,0.1,1.2,0.1c0.5,0.1,0.9,0.3,1.2,0.5c0.4,0.3,0.7,0.7,0.9,1.1
	c0.1,0.2,0.2,0.4,0.2,0.7l0.1,0.7c0-0.7,0-1.1-0.1-1.4C116.8,80.7,116.7,80.3,116.5,79.9z M111.3,87.5l-0.1-0.2
	c-1.4,0.4-2.3,0.7-2.7,0.7c-0.9,0.1-1.5-0.1-2-0.6c-0.3-0.4-0.7-1.4-1.2-3l-3.9-10.5l3-3.1l3.1,10.3l2.6-0.8l1-0.5
	c0.2-0.1,0.4-0.4,0.7-0.9c0.2-0.4,0.3-0.7,0.5-1c0.1-0.2,0.3-0.5,0.4-0.6c0.4-0.6,0.9-1.1,1.5-1.3c0.6-0.3,1.1-0.2,1.7,0.1
	c0.2,0.1,0.7,0.6,1.4,1.5c0.7,0.8,1.4,1.4,2,1.8c0.2,0.1,0.4,0.2,0.7,0.3c0.1,0,0.4,0.1,0.8,0.1l-2.5,7.8c-0.9-0.5-1.6-0.9-2.1-1
	c-0.6-0.2-1.2-0.2-1.9,0C113.5,86.6,112.5,87,111.3,87.5z M96.3,94.5L96.3,94.5l1.1-1.9l2,1.1l-1.2,1.9L96.3,94.5z"/>
<path class="st5" d="M66.4,97.5l-1.6-1.8l1.8-1.5l1.2,1.4l1.5-1.3l1.5,1.7l-1.7,1.5l-1.2-1.3L66.4,97.5z M75.4,87.3
	c0,0.1,0.2,0.3,0.7,0.6c0.5,0.4,0.8,0.7,1.1,1c0.4,0.6,0.6,1.1,0.7,1.7l0,0.1l0,0.4c0,0.1,0,0.2-0.1,0.4c0.1-0.2,0.2-0.5,0.3-0.9
	c0-0.2,0.1-0.4,0.1-0.5c0-0.2,0-0.3,0-0.5c0-1-0.2-1.7-0.6-2.2c-0.3-0.4-0.7-0.6-1.2-0.5c-0.2,0-0.4,0-0.6,0.1
	C75.4,87,75.4,87.1,75.4,87.3 M86.6,97.1l-1.9-1.5l1.5-1.8l1.5,1.2l1.2-1.5l1.8,1.4l-1.5,1.8l-1.4-1.1L86.6,97.1z M97.4,83.8
	l-1.1-0.4c-0.5-0.1-0.8-0.2-1.1-0.1c-0.4,0.1-0.8,0.3-1,0.6c-0.1,0.2-0.2,0.4-0.2,0.7l3.6-0.7l0,0L97.4,83.8z M41.3,88.3l-2.9-0.1
	l-0.5-0.2c-0.4,0.7-0.9,1.3-1.5,1.9c-0.9,0.9-1.8,1.5-2.8,1.8c-1.3,0.4-2.8,0.4-4.3-0.2c-1.3-0.4-2.3-1.1-3.1-2.1
	c-0.6-0.8-1.1-1.7-1.3-2.7c-0.2-0.8-0.3-1.6-0.2-2.3l7.5-4.3l-0.2,0.4c-0.1,0.1-0.2,0.2-0.2,0.3c-0.1,0.1-0.1,0.2-0.1,0.3
	c-0.3,0.7-0.2,1.5,0.1,2.2c0.4,0.7,0.9,1.2,1.7,1.5c0.8,0.3,1.5,0.2,2.3,0c0.6-0.2,1-0.5,1.1-0.8c0.2-0.4,0-1.1-0.5-1.9
	c-0.4-0.6-0.6-0.9-0.6-1.1l3.1-2.2l0.6,2.1l1.7,0.6c1,0.4,1.7,0.4,2,0c0.3-0.3,0.7-0.5,1.1-0.4c0,0.3,0.1,0.6,0.2,0.8
	c0,0.1,0.1,0.2,0.1,0.3c0,0.1,0.1,0.2,0.3,0.5c0.6-0.1,1.1-0.4,1.4-0.6c0.2-0.2,0.4-0.2,0.6-0.2c0.1,0,0.1,0.1,0.1,0.3
	c0,0.4,0.1,0.7,0.1,0.7c0.1,0.1,0.2,0.3,0.3,0.4l13.2,2l-0.3-0.8c-0.1-0.2-0.3-0.4-0.7-0.6l-10.1-1.6l-0.1-0.1
	c0.2-1.3,1-2.5,2.4-3.5c1.1-0.8,2.5-1.5,4.1-2c1.5-0.4,2.6-0.6,3.4-0.5c0.4,0.1,0.6,0.3,0.7,0.7c0,0.2,0,0.4,0,0.8
	c0,0.3-0.1,0.8-0.2,1.4l-0.3,1.9c-0.3-0.5-0.5-0.8-0.6-1c-0.3-0.3-0.7-0.5-1.3-0.6c-0.2,0-0.5,0-0.8-0.1c-0.3,0-0.6,0-0.8,0.1
	c-0.2,0-0.5,0.1-0.7,0.1c-0.2,0-0.5,0.1-0.8,0.2l-1.6,0.5l0,0.1l7.9,1.2c1.2,0.2,2,0.8,2.6,1.8c0.4,0.8,0.6,1.6,0.4,2.5l0.8,0.1
	l0-0.1l1,0c1,0,1.6-0.1,2-0.5c0.1-0.2,0.4-0.6,0.7-1.2l0.5,0.1c0.3,0.9,0.5,1.4,0.9,1.6c0.3,0.2,1.1,0.3,2.5,0.4l0,0.1l1.8,0
	l1.1-1.1c0.2-0.2,0.4-0.3,0.6-0.5c0.2-0.2,0.4-0.3,0.6-0.3c0.4-0.2,0.9-0.3,1.5-0.3c0.7,0,1.2,0.1,1.6,0.4c0.5,0.3,0.8,0.9,1,1.7
	l2.7,0l0-0.2l1-0.1c1-0.1,1.6-0.4,1.8-0.8c0.1-0.2,0.3-0.6,0.5-1.3l0.5,0c0.4,0.8,0.8,1.3,1.1,1.4c0.3,0.1,1.2,0.1,2.5-0.1l0,0.3
	l3.6-0.8l-0.1-0.2l-2.8-1.8c0.2-0.4,0.4-0.7,0.5-0.9c0.1-0.2,0.2-0.4,0.3-0.5c0.4-0.6,1-1,1.8-1.1c0.8-0.2,1.7,0,2.9,0.5l3,1.5
	c1.2,0.5,2.3,0.7,3.2,0.5l0.4-0.2l0.5-0.1l-0.6,7.5l-12.4,2.8l-0.1-0.4c-1,0.1-1.6,0.1-1.9,0.1c-0.3-0.1-0.8-0.4-1.3-1
	c-0.1,0.3-0.3,0.6-0.3,0.7c-0.1,0.2-0.2,0.3-0.2,0.4c-0.2,0.2-0.7,0.4-1.3,0.5l0,0.4l-5.9,0.1l-2.7,3.1c-0.4-0.8-0.8-1.4-1.2-1.7
	c-0.5-0.4-1.1-0.8-1.8-0.9c-0.4-0.1-0.8-0.2-1.3-0.2c-0.5,0-1.1-0.1-1.8,0l0-0.2c-0.8-0.1-1.3-0.1-1.5-0.2c-0.3-0.1-0.7-0.5-1.1-1.3
	c-0.2,0.3-0.4,0.5-0.5,0.7C67.1,92.8,67,93,66.9,93c-0.3,0.2-0.8,0.3-1.5,0.3l-0.8,0l0,0.2l-17.8-2.8l-0.2,0.5
	c-1-0.3-1.6-0.6-1.8-0.7c-0.2-0.2-0.5-0.6-0.7-1.1l-0.7,0.4c-0.4,0.2-0.7,0.2-1.1,0.1c-0.3-0.1-0.6-0.3-0.7-0.6
	C41.5,89,41.4,88.7,41.3,88.3 M116.5,79.9c-0.3-0.6-0.7-1.1-1.1-1.3c-0.4-0.2-0.8-0.2-1.2,0c-0.2,0.1-0.3,0.2-0.4,0.4
	c-0.1,0.1-0.1,0.1-0.2,0.2c-0.1,0.1-0.1,0.2-0.2,0.3c0.6,0.1,1,0.1,1.2,0.1c0.5,0.1,0.9,0.3,1.2,0.5c0.4,0.3,0.7,0.7,0.9,1.1
	c0.1,0.2,0.2,0.4,0.2,0.7l0.1,0.7c0-0.7,0-1.1-0.1-1.4C116.8,80.7,116.7,80.2,116.5,79.9 M111.3,87.5l-0.1-0.2
	c-1.4,0.4-2.3,0.7-2.7,0.7c-0.9,0.1-1.5-0.1-2-0.6c-0.3-0.4-0.7-1.4-1.2-3l-3.9-10.5l3-3.1l3.1,10.3l2.6-0.8l1-0.5
	c0.2-0.1,0.4-0.4,0.7-0.9c0.2-0.4,0.3-0.7,0.5-1c0.1-0.2,0.3-0.5,0.4-0.6c0.4-0.6,0.9-1.1,1.5-1.3c0.6-0.3,1.1-0.2,1.7,0.1
	c0.2,0.1,0.6,0.6,1.4,1.5c0.7,0.8,1.4,1.5,2,1.8c0.2,0.1,0.4,0.2,0.7,0.3c0.1,0,0.4,0.1,0.8,0.1l-2.5,7.8c-0.9-0.5-1.7-0.9-2.1-1
	c-0.6-0.2-1.2-0.2-1.9,0C113.5,86.6,112.5,87,111.3,87.5 M96.3,94.5L96.3,94.5l1.1-1.9l2,1.1l-1.2,1.9L96.3,94.5z"/>
</svg>
