<?xml version="1.0" encoding="utf-8"?>
<!-- Generator: Adobe Illustrator 22.0.0, SVG Export Plug-In . SVG Version: 6.00 Build 0)  -->
<svg version="1.1" id="Calque_1" xmlns="http://www.w3.org/2000/svg" xmlns:xlink="http://www.w3.org/1999/xlink" x="0px" y="0px"
	 viewBox="0 0 200 100" style="enable-background:new 0 0 200 100;" xml:space="preserve">
<style type="text/css">
	
		.st0{fill-rule:evenodd;clip-rule:evenodd;fill:none;stroke:#FFFFFF;stroke-width:2.3216;stroke-linecap:round;stroke-linejoin:round;stroke-miterlimit:22.9256;}
	.st1{fill-rule:evenodd;clip-rule:evenodd;fill:url(#SVGID_1_);}
</style>
<g>
	<path class="st0" d="M39.4,58.2c0,0.8,0.2,1.6,0.7,2.3c0.5,0.8,0.7,1.4,0.7,1.9c0,1.3-0.5,2.4-1.5,3.2c-1,0.9-2.5,1.6-4.5,2.1
		c-2,0.5-3.5,0.6-4.4,0.2c-1-0.4-1.5-1.1-1.5-2.4c0-0.6,0.2-1.4,0.5-2.4c0.1-0.3,0.2-0.5,0.3-0.6c0.2-0.5,0.3-1.4,0.4-2.6
		c0.1-1.2,0.2-3.2,0.2-5.8c0-2.3-0.1-3.9-0.3-4.7c-0.3-0.9-0.7-1.2-1.3-1.1c-0.6,0.1-1.1,0.6-1.4,1.5c-0.3,0.9-0.5,2.2-0.5,4
		c0,2.4,0,4.3,0,5.7c0,1.4,0.1,2.4,0.3,3c0,0.1,0.1,0.2,0.2,0.5c0.4,0.8,0.6,1.7,0.6,2.6c0,1.4-0.5,2.5-1.4,3.3
		c-0.9,0.8-2.4,1.5-4.6,2.1c-2.1,0.5-3.6,0.7-4.5,0.3c-0.9-0.3-1.3-1.2-1.3-2.5c0-0.7,0.3-1.7,0.8-2.8c0.1-0.3,0.3-0.6,0.3-0.7
		c0.2-0.4,0.3-1,0.3-1.8c0.1-0.8,0.1-2.4,0.1-4.9c0-3.1-0.1-5.1-0.3-6.1c-0.3-1-0.7-1.4-1.5-1.3c-0.5,0.1-0.9,0.7-1.2,1.6
		c-0.2,0.9-0.3,2.9-0.4,5.8c0,1.6,0,3.2-0.1,4.7c0,1.1,0.1,2.2,0.3,3.3c0.2,1.1,0.4,1.8,0.4,2c0,1.4-0.5,2.6-1.4,3.5
		c-0.9,0.9-2.4,1.6-4.4,2.2c-2.1,0.6-3.7,0.7-4.7,0.3C3.4,74.3,3,73.4,3,72c0-0.8,0.3-1.5,0.9-2.4c0.2-0.4,0.4-0.6,0.6-0.8
		c0.2-0.4,0.4-1.2,0.5-2.3c0.1-1.1,0.2-3.3,0.2-6.5c0-2.4,0-4.1-0.1-4.9c-0.1-0.8-0.2-1.4-0.5-1.7c-0.1-0.1-0.2-0.3-0.4-0.5
		c-0.6-0.7-0.9-1.3-0.9-2.1c0-0.9,0.3-1.7,0.8-2.4c0.5-0.7,1.4-1.6,2.8-2.6c1.1-0.8,2.2-1.5,3.3-2.1c1.1-0.6,2-0.9,2.7-1.1
		c0.4-0.1,0.7-0.1,0.9,0c0.2,0.1,0.3,0.4,0.4,0.8c0.1,0.5,0.2,1.2,0.2,2.3c0,1.1,0.2,1.6,0.5,1.5c0.2,0,0.4-0.4,0.7-1
		c0.3-0.7,0.5-1.1,0.7-1.4c0.7-1.2,1.5-2.1,2.4-2.8c0.9-0.7,1.9-1.2,3-1.4c0.9-0.2,1.6-0.2,2.3,0.1c0.6,0.2,1.2,0.7,1.7,1.4
		c0.2,0.3,0.4,0.8,0.7,1.4c0.3,0.6,0.5,0.9,0.7,0.8c0.2,0,0.4-0.4,0.8-1c0.4-0.6,0.6-1.1,0.8-1.4c0.9-1.3,1.7-2.1,2.4-2.7
		c0.7-0.5,1.5-0.9,2.5-1.1c2-0.4,3.6,0.1,4.6,1.4c1,1.3,1.5,3.5,1.5,6.6C39.5,50.1,39.4,54.2,39.4,58.2L39.4,58.2z M54.4,51.7
		c0-0.6,0-1-0.1-1.1c-0.1-0.1-0.4-0.1-0.9,0c-0.6,0.1-1.2,0.5-1.5,1.2c-0.4,0.7-0.6,1.5-0.6,2.6c0,1,0.1,1.8,0.4,2.2
		c0.3,0.5,0.7,0.7,1.2,0.5c0.5-0.1,0.9-0.5,1.1-1.1C54.2,55.3,54.3,53.9,54.4,51.7L54.4,51.7z M54.5,46.3c0-0.1,0-0.2,0-0.4
		c0.1-1,0.1-1.7,0.1-2.2c0-1.7-0.1-3-0.4-3.7c-0.3-0.7-0.7-1-1.3-0.9c-0.7,0.1-1.5,1-2.4,2.7c-0.2,0.3-0.3,0.5-0.3,0.6
		c-0.6,1.1-1.2,1.9-1.8,2.5c-0.5,0.5-1.2,0.9-1.8,1c-0.7,0.1-1.3-0.1-1.7-0.6c-0.5-0.6-0.7-1.3-0.7-2.3c0-2,1-3.8,2.9-5.5
		c1.9-1.7,4.3-2.8,7.2-3.3c3.2-0.6,5.6-0.2,7.2,1.1c1.6,1.3,2.4,3.4,2.4,6.4c0,0.8,0,1.9-0.1,3.2c0,1.3-0.1,2.3-0.1,2.8
		c0,0.3,0,0.5,0,0.8c0,2.1,0,3.4,0.2,3.9c0.1,0.5,0.5,0.7,1,0.8c0.4,0,0.7,0.2,0.9,0.5c0.2,0.3,0.3,0.6,0.3,1.1
		c0,1.4-0.7,2.9-2.1,4.4c-1.4,1.6-3,2.6-4.7,3c-0.6,0.1-1.1,0.2-1.5,0.1c-0.4-0.1-0.8-0.3-1.1-0.6c-0.2-0.2-0.4-0.4-0.7-0.7
		c-0.5-0.5-0.8-0.8-1-0.7c-0.2,0-0.4,0.3-0.7,0.6c-0.1,0.2-0.2,0.3-0.3,0.4c-0.8,0.9-1.5,1.5-2.2,2c-0.7,0.4-1.5,0.8-2.4,1
		c-2.2,0.5-3.9,0.2-5.1-1.1c-1.3-1.2-1.9-3.1-1.9-5.6c0-2.6,0.9-4.9,2.6-7c1.7-2.1,3.8-3.4,6.3-3.9c0.4-0.1,0.9-0.2,1.4-0.2
		C53.2,46.3,53.8,46.3,54.5,46.3L54.5,46.3z M72.7,59c-0.1,0.2-0.1,0.3-0.1,0.4c0,0.1,0,0.3,0,0.4c0,0.9,0.5,1.7,1.4,2.2
		c1,0.5,2.1,0.6,3.4,0.3c1.2-0.3,2.2-0.7,2.9-1.3c0.7-0.6,1-1.2,1-2c0-0.4-0.1-0.8-0.3-0.9c-0.2-0.2-0.5-0.3-0.9-0.2
		c-0.2,0-0.7,0.2-1.5,0.4c-0.8,0.2-1.4,0.4-2,0.5c-0.8,0.2-1.5,0.3-2.1,0.3C73.9,59.2,73.3,59.2,72.7,59L72.7,59z M75.9,38.6
		c0,1.8,0.2,3.2,0.6,4.1c0.4,0.9,1,1.3,1.8,1.2c0.7-0.1,1.3-0.5,1.6-1.2c0.3-0.7,0.5-1.7,0.5-3c0-1.8-0.2-3.2-0.6-4.1
		c-0.4-0.9-1-1.3-1.8-1.2c-0.7,0.1-1.2,0.5-1.6,1.2C76,36.3,75.9,37.3,75.9,38.6L75.9,38.6z M70.7,47.5c-1-0.5-1.8-1.3-2.3-2.4
		c-0.5-1.1-0.8-2.4-0.8-3.8c0-2.7,1-5,2.9-7.1c1.9-2,4.3-3.3,7.3-3.7c1-0.2,2.3-0.1,3.7,0.1c1.4,0.2,2.3,0.3,2.7,0.2
		c1.1-0.2,2.2-0.7,3.3-1.7c1.1-0.9,1.6-1.4,1.6-1.4c0.5-0.1,0.9,0.1,1.1,0.5c0.3,0.4,0.4,1,0.4,1.8c0,0.9-0.2,1.8-0.6,2.7
		c-0.4,0.8-1,1.8-1.8,2.8c0,0.3,0.1,0.5,0.1,0.8c0,0.3,0,0.6,0,0.8c0,2.7-0.9,5-2.8,6.9c-1.8,2-4.3,3.3-7.3,3.8
		c-0.5,0.1-1,0.2-1.6,0.2C76.1,48,75.5,48,74.9,48c-0.2,0.1-0.3,0.3-0.4,0.5c-0.1,0.2-0.1,0.5-0.1,0.7c0,0.6,0.3,1,0.8,1.3
		c0.6,0.3,1.3,0.3,2.2,0.1c0.5-0.1,1.6-0.4,3.1-0.9c1.5-0.5,2.8-0.9,3.8-1.1c2-0.4,3.6-0.1,4.6,0.8c1.1,0.9,1.6,2.4,1.6,4.5
		c0,3-1.3,5.7-3.7,8.2c-2.5,2.5-5.7,4.2-9.6,5.1c-3.1,0.7-5.7,0.6-7.7-0.4c-2-1-3-2.6-3-4.7c0-1,0.2-1.8,0.7-2.6
		c0.4-0.7,1.1-1.4,2.1-1.9c-0.9-0.4-1.5-0.9-1.9-1.6c-0.4-0.7-0.6-1.6-0.6-2.6c0-1.2,0.3-2.3,1-3.3C68.4,49.2,69.4,48.3,70.7,47.5
		L70.7,47.5z M104,29.9c0,2.4,0,4.9-0.1,7.3c0,2.4,0,4.9,0,7.3c0,0.6,0,1.1,0.1,1.4c0.1,0.3,0.3,0.6,0.7,0.9c0.1,0,0.2,0.1,0.3,0.2
		c0.7,0.6,1.1,1.2,1.1,2c0,1.1-0.6,2.1-1.8,2.9c-1.2,0.8-2.9,1.4-5.2,1.8c-2.4,0.4-4.2,0.5-5.5,0.1c-1.3-0.4-1.9-1.2-1.9-2.3
		c0-0.8,0.4-1.6,1.2-2.5c0,0,0,0,0,0c0.1-0.1,0.2-0.2,0.3-0.3c0.4-0.4,0.6-0.8,0.7-1.1c0.1-0.4,0.2-1.1,0.2-2c0-0.9,0.1-2.4,0.1-4.4
		c0-0.4,0-0.7,0-1.1c0-1.5-0.1-2.6-0.2-3.1c-0.1-0.5-0.5-0.9-0.9-1.2c0,0-0.1-0.1-0.2-0.1c-0.8-0.4-1.2-1.1-1.2-1.9
		c0-0.7,0.2-1.2,0.6-1.7c0.4-0.5,1.1-1,2.2-1.7c1.5-0.9,3-1.6,4.5-2.2c1.6-0.6,2.8-0.9,3.8-1c0.5-0.1,0.9,0,1,0.2
		c0.2,0.2,0.3,0.6,0.3,1.3C104,28.9,104,29.4,104,29.9L104,29.9z M96.3,26.6c-1.4,0.2-2.5,0-3.2-0.5c-0.7-0.5-1.1-1.4-1.1-2.6
		c0-1.3,0.7-2.5,2.1-3.5c1.4-1.1,3-1.7,5-1.9c1.5-0.2,2.6,0,3.5,0.5c0.8,0.5,1.2,1.3,1.1,2.3c0,1.4-0.7,2.6-2.1,3.6
		C100.2,25.7,98.4,26.4,96.3,26.6L96.3,26.6z M144.1,40.1c0,0.6,0.2,1.3,0.7,1.9c0.5,0.6,0.7,1.2,0.7,1.5c0,1-0.5,1.8-1.5,2.5
		c-1,0.6-2.5,1-4.5,1.3c-2,0.2-3.5,0.2-4.5-0.1c-1-0.3-1.5-1-1.5-2c0-0.5,0.2-1.1,0.6-1.8c0.1-0.2,0.2-0.4,0.2-0.5
		c0.2-0.4,0.3-1.1,0.4-2.1c0.1-1,0.1-2.5,0.1-4.6c0-1.8-0.1-3.1-0.4-3.8c-0.2-0.7-0.7-1-1.3-0.9c-0.6,0.1-1.1,0.4-1.4,1.1
		c-0.3,0.7-0.4,1.7-0.4,3.1c0,1.9,0,3.4,0.1,4.6c0.1,1.1,0.2,1.9,0.3,2.4c0,0.1,0.1,0.2,0.2,0.4c0.4,0.7,0.6,1.4,0.6,2.1
		c0,1.1-0.4,2-1.4,2.6c-0.9,0.6-2.4,1.1-4.5,1.4c-2.1,0.3-3.6,0.3-4.5,0c-0.9-0.3-1.3-1-1.3-2.1c0-0.6,0.3-1.4,0.8-2.3
		c0.1-0.3,0.3-0.4,0.3-0.6c0.2-0.3,0.3-0.8,0.3-1.4c0.1-0.6,0.1-2,0.1-4c0-2.5-0.1-4.1-0.4-4.9c-0.3-0.8-0.7-1.2-1.4-1.1
		c-0.6,0.1-1,0.5-1.2,1.2c-0.2,0.7-0.3,2.3-0.3,4.7c0,1.3,0,2.6,0,3.8c0,0.9,0.1,1.8,0.4,2.7c0.2,0.9,0.3,1.4,0.3,1.7
		c0,1.1-0.4,2-1.4,2.7c-0.9,0.7-2.4,1.2-4.3,1.5c-2.1,0.3-3.7,0.4-4.7,0c-1-0.4-1.4-1.1-1.4-2.2c0-0.6,0.3-1.3,0.9-2
		c0.2-0.3,0.4-0.5,0.5-0.7c0.2-0.3,0.4-1,0.5-1.9c0.1-0.9,0.2-2.7,0.2-5.3c0-2,0-3.3-0.1-4c-0.1-0.7-0.3-1.2-0.5-1.5
		c-0.1-0.1-0.3-0.3-0.4-0.4c-0.6-0.6-0.9-1.2-0.9-1.8c0-0.7,0.3-1.4,0.8-1.9c0.5-0.5,1.4-1.2,2.7-1.9c1.1-0.6,2.2-1.1,3.2-1.4
		c1.1-0.4,2-0.6,2.7-0.7c0.4,0,0.7,0,0.9,0.1c0.2,0.1,0.3,0.4,0.4,0.7c0.1,0.4,0.2,1,0.2,1.9c0,0.9,0.2,1.3,0.5,1.3
		c0.2,0,0.4-0.3,0.7-0.8c0.3-0.5,0.5-0.9,0.7-1.1c0.7-0.9,1.5-1.6,2.4-2.1c0.9-0.5,1.9-0.8,3-0.9c0.9-0.1,1.6,0,2.3,0.3
		c0.7,0.3,1.3,0.7,1.7,1.3c0.2,0.3,0.4,0.7,0.7,1.2c0.3,0.5,0.5,0.7,0.7,0.7c0.2,0,0.4-0.3,0.8-0.7c0.3-0.5,0.6-0.8,0.8-1.1
		c0.8-0.9,1.6-1.6,2.3-1.9c0.7-0.4,1.5-0.6,2.5-0.7c2.1-0.1,3.5,0.4,4.6,1.5c1,1.2,1.6,2.9,1.6,5.4
		C144.1,33.7,144.1,36.9,144.1,40.1L144.1,40.1z M159,36.2c0-0.5-0.1-0.8-0.2-0.9c-0.1-0.1-0.4-0.2-0.9-0.1
		c-0.6,0.1-1.2,0.3-1.5,0.8c-0.4,0.5-0.5,1.2-0.5,2c0,0.8,0.1,1.4,0.4,1.8c0.3,0.4,0.7,0.6,1.2,0.5c0.6-0.1,1-0.3,1.2-0.8
		C158.9,39.1,159,38,159,36.2L159,36.2z M159.1,32.1c0-0.1,0-0.2,0-0.3c0-0.8,0.1-1.4,0.1-1.7c0-1.4-0.1-2.4-0.4-2.9
		c-0.3-0.6-0.7-0.9-1.4-0.8c-0.7,0-1.5,0.7-2.4,1.9c-0.2,0.2-0.3,0.4-0.3,0.5c-0.6,0.8-1.2,1.4-1.7,1.8c-0.6,0.4-1.2,0.6-1.8,0.6
		c-0.7,0.1-1.3-0.2-1.8-0.7c-0.5-0.5-0.7-1.1-0.7-1.9c0-1.5,0.9-2.9,2.9-4.1c1.9-1.2,4.3-1.8,7.2-1.9c3.2-0.2,5.6,0.4,7.3,1.6
		c1.6,1.2,2.5,2.9,2.4,5.3c0,0.6,0,1.5-0.1,2.5c0,1.1-0.1,1.8-0.1,2.2c0,0.2,0,0.4,0,0.6c0,1.7,0,2.7,0.2,3.1c0.1,0.4,0.5,0.6,1,0.7
		c0.4,0.1,0.7,0.2,0.9,0.5c0.2,0.2,0.3,0.5,0.3,0.9c0,1.1-0.7,2.2-2.1,3.3c-1.4,1.1-2.9,1.7-4.7,1.8c-0.6,0-1.1,0-1.5-0.1
		c-0.4-0.1-0.8-0.3-1.1-0.6c-0.2-0.2-0.4-0.4-0.7-0.7c-0.4-0.4-0.7-0.7-0.9-0.6c-0.2,0-0.5,0.2-0.8,0.4c-0.1,0.1-0.2,0.2-0.3,0.3
		c-0.8,0.6-1.5,1.1-2.2,1.4c-0.7,0.3-1.5,0.5-2.4,0.6c-2.1,0.2-3.9-0.2-5.1-1.3c-1.3-1.1-1.9-2.6-1.9-4.6c0-2,0.8-3.8,2.5-5.3
		c1.7-1.5,3.8-2.3,6.3-2.5c0.4,0,0.9,0,1.4,0C157.8,31.9,158.4,32,159.1,32.1L159.1,32.1z M170.7,42c0-0.4,0.1-0.7,0.2-0.9
		c0.1-0.2,0.3-0.4,0.6-0.6c0.2-0.1,0.5-0.3,1-0.5c0.5-0.2,0.9-0.3,1.1-0.6c0.3-0.3,0.9-1.2,1.7-2.6c0.1-0.2,0.2-0.4,0.4-0.6
		c0.2-0.3,0.4-0.6,0.5-0.9c1.3-2.1,1.9-3.2,1.9-3.5c0-0.2-0.1-0.4-0.4-0.8c-0.3-0.4-0.7-1-1.3-1.8c-0.5-0.6-0.9-1.1-1.3-1.5
		c-0.4-0.4-0.6-0.6-0.8-0.7c-0.1-0.1-0.4-0.1-0.9-0.2c-0.5-0.1-0.9-0.2-1.1-0.4c-0.2-0.2-0.4-0.3-0.5-0.6c-0.1-0.2-0.1-0.6-0.1-0.9
		c0-0.9,0.7-1.7,2.1-2.2c1.4-0.5,3.6-0.7,6.4-0.8c2.7,0,4.5,0.1,5.4,0.4c0.9,0.3,1.4,0.9,1.4,1.7c0,0.4-0.1,0.9-0.4,1.3
		c-0.3,0.4-0.4,0.7-0.4,0.7c0,0.4,0.2,0.8,0.5,1.2c0.3,0.4,0.6,0.7,0.9,0.7c0.2,0,0.5-0.3,0.9-0.8c0.4-0.5,0.6-0.9,0.6-1.3
		c0-0.1-0.1-0.3-0.4-0.7c-0.3-0.4-0.3-0.8-0.3-1.1c0-0.7,0.4-1.2,1.1-1.6c0.8-0.4,1.8-0.6,3.1-0.6c1.4,0,2.5,0.2,3.2,0.5
		c0.7,0.3,1.1,0.8,1.1,1.5c0,0.6-0.4,1.1-1.2,1.5c-0.8,0.5-1.4,0.9-1.7,1.2c-0.9,1-1.8,2.1-2.6,3.4c-0.8,1.3-1.2,2-1.2,2.2
		c0,0.4,0.4,1.3,1.3,2.6c0.9,1.3,1.8,2.4,2.9,3.3c0.3,0.2,0.6,0.4,1.2,0.7c0.8,0.3,1.1,0.8,1.1,1.5c0,1-0.6,1.7-1.9,2.2
		c-1.3,0.5-3.4,0.7-6.4,0.8c-2.9,0.1-4.8,0-5.7-0.3c-1-0.3-1.4-0.8-1.4-1.7c0-0.6,0.3-1.1,0.8-1.5c0.5-0.5,0.8-0.8,0.8-0.9
		c0-0.6-0.2-1.2-0.7-1.8c-0.4-0.6-0.8-0.9-1.2-0.9c-0.3,0-0.7,0.4-1.2,1.3c-0.5,0.8-0.8,1.5-0.9,2c0,0.1,0.1,0.4,0.4,0.8
		c0.2,0.4,0.4,0.7,0.4,1.1c0,0.8-0.3,1.4-0.9,1.8c-0.6,0.4-1.9,0.6-3.7,0.7c-1.7,0.1-2.8,0-3.4-0.2C170.9,43.2,170.7,42.7,170.7,42z
		"/>
	<radialGradient id="SVGID_1_" cx="100" cy="46.4428" r="72.7496" gradientUnits="userSpaceOnUse">
		<stop  offset="0" style="stop-color:#F05A22"/>
		<stop  offset="0.5" style="stop-color:#EC1C24"/>
		<stop  offset="1" style="stop-color:#A61C20"/>
	</radialGradient>
	<path class="st1" d="M170.7,42.2v-0.5c0-0.3,0.1-0.5,0.2-0.7c0.1-0.2,0.3-0.4,0.6-0.6c0.2-0.1,0.5-0.3,1-0.5
		c0.5-0.2,0.9-0.3,1.1-0.6c0.3-0.3,0.9-1.2,1.7-2.6c0.1-0.2,0.2-0.4,0.4-0.6c0.2-0.3,0.4-0.6,0.5-0.9c1.3-2.1,1.9-3.2,1.9-3.5
		c0-0.2-0.1-0.4-0.4-0.8c-0.3-0.4-0.7-1-1.3-1.8c-0.5-0.6-0.9-1.1-1.3-1.5c-0.4-0.4-0.6-0.6-0.8-0.7c-0.1-0.1-0.4-0.1-0.9-0.2
		c-0.5-0.1-0.9-0.2-1.1-0.4c-0.2-0.2-0.4-0.3-0.5-0.6c-0.1-0.2-0.1-0.6-0.1-0.9c0-0.9,0.7-1.7,2.1-2.2c1.4-0.5,3.6-0.7,6.4-0.8
		c2.7,0,4.5,0.1,5.4,0.4c0.9,0.3,1.4,0.9,1.4,1.7c0,0.4-0.1,0.9-0.4,1.3c-0.3,0.4-0.4,0.7-0.4,0.7c0,0.4,0.2,0.8,0.5,1.2
		c0.3,0.4,0.6,0.7,0.9,0.7c0.2,0,0.5-0.3,0.9-0.8c0.4-0.5,0.6-0.9,0.6-1.3c0-0.1-0.1-0.3-0.4-0.7c-0.3-0.4-0.3-0.8-0.3-1.1
		c0-0.7,0.4-1.2,1.1-1.6c0.8-0.4,1.8-0.6,3.1-0.6c1.4,0,2.5,0.2,3.2,0.5c0.7,0.3,1.1,0.8,1.1,1.5c0,0.6-0.4,1.1-1.2,1.5
		c-0.8,0.5-1.4,0.9-1.7,1.2c-0.9,1-1.8,2.1-2.6,3.4c-0.8,1.3-1.2,2-1.2,2.2c0,0.4,0.4,1.3,1.3,2.6c0.9,1.3,1.8,2.4,2.9,3.3
		c0.3,0.2,0.6,0.4,1.2,0.7c0.8,0.3,1.1,0.8,1.1,1.5c0,1-0.6,1.7-1.9,2.2c-1.3,0.5-3.4,0.7-6.4,0.8c-2.9,0.1-4.8,0-5.7-0.3
		c-1-0.3-1.4-0.8-1.4-1.7c0-0.6,0.3-1.1,0.8-1.5c0.5-0.5,0.8-0.8,0.8-0.9c0-0.6-0.2-1.2-0.7-1.8c-0.4-0.6-0.8-0.9-1.2-0.9
		c-0.3,0-0.7,0.4-1.2,1.3c-0.5,0.8-0.8,1.5-0.9,2c0,0.1,0.1,0.4,0.4,0.8c0.2,0.4,0.4,0.7,0.4,1.1c0,0.8-0.3,1.4-0.9,1.8
		c-0.6,0.4-1.9,0.6-3.7,0.7c-1.7,0.1-2.8,0-3.4-0.2C171,43.3,170.7,42.8,170.7,42.2L170.7,42.2z M170.7,40c0-0.1,0-0.1,0-0.2
		c0-0.1,0-0.1,0-0.2V40z M170.7,39.6V40c-0.1,1-0.8,2-2,3.1c-1.4,1.1-2.9,1.7-4.7,1.8c-0.6,0-1.1,0-1.5-0.1
		c-0.4-0.1-0.8-0.3-1.1-0.6c-0.2-0.2-0.4-0.4-0.7-0.7c-0.4-0.4-0.7-0.7-0.9-0.6c-0.2,0-0.5,0.2-0.8,0.4c-0.1,0.1-0.2,0.2-0.3,0.3
		c-0.4,0.3-0.8,0.6-1.2,0.9v-4.2l0.1,0c0.6-0.1,1-0.3,1.2-0.8c0.2-0.5,0.3-1.6,0.3-3.3c0-0.5-0.1-0.8-0.2-0.9
		c-0.1-0.1-0.4-0.2-0.9-0.1c-0.2,0-0.4,0-0.5,0.1v-3.4c0.5,0,1,0.1,1.6,0.1c0-0.1,0-0.2,0-0.3c0-0.8,0.1-1.4,0.1-1.7
		c0-1.4-0.1-2.4-0.4-2.9c-0.3-0.6-0.7-0.8-1.3-0.8v-3.7c0.4,0,0.8-0.1,1.2-0.1c3.2-0.2,5.6,0.4,7.3,1.6c1.6,1.2,2.5,2.9,2.4,5.3
		c0,0.6,0,1.5-0.1,2.5c0,1.1-0.1,1.8-0.1,2.2c0,0.2,0,0.4,0,0.6c0,1.7,0,2.7,0.2,3.1c0.1,0.4,0.5,0.6,1,0.7c0.4,0.1,0.7,0.2,0.9,0.5
		C170.5,39.1,170.6,39.3,170.7,39.6L170.7,39.6z M170.7,41.7c0,0.1,0,0.2,0,0.3c0,0.1,0,0.2,0,0.2V41.7z M157.5,22.5v3.7l-0.1,0
		c-0.7,0-1.5,0.7-2.4,1.9c-0.2,0.2-0.3,0.4-0.3,0.5c-0.6,0.8-1.2,1.4-1.7,1.8c-0.6,0.4-1.2,0.6-1.8,0.6c-0.7,0.1-1.3-0.2-1.8-0.7
		c-0.5-0.5-0.7-1.1-0.7-1.9c0-1.5,0.9-2.9,2.9-4.1C153.1,23.4,155.1,22.8,157.5,22.5L157.5,22.5z M157.5,31.9v3.4
		c-0.4,0.1-0.7,0.4-1,0.7c-0.4,0.5-0.5,1.2-0.5,2c0,0.8,0.1,1.4,0.4,1.8c0.3,0.4,0.6,0.6,1.1,0.5v4.2c-0.3,0.2-0.7,0.4-1,0.5
		c-0.7,0.3-1.5,0.5-2.4,0.6c-2.1,0.2-3.9-0.2-5.1-1.3c-1.3-1.1-1.9-2.6-1.9-4.6c0-2,0.8-3.8,2.5-5.3c1.7-1.5,3.8-2.3,6.3-2.5
		c0.4,0,0.9,0,1.4,0L157.5,31.9L157.5,31.9z M77,67.2v-4.8c0.1,0,0.3,0,0.4-0.1c1.2-0.3,2.2-0.7,2.9-1.3c0.7-0.6,1-1.2,1-2
		c0-0.4-0.1-0.8-0.3-0.9c-0.2-0.2-0.5-0.3-0.9-0.2c-0.2,0-0.7,0.2-1.5,0.4c-0.6,0.2-1.2,0.3-1.6,0.5v-8.1c0.1,0,0.3,0,0.4-0.1
		c0.5-0.1,1.6-0.4,3.1-0.9c1.5-0.5,2.8-0.9,3.8-1.1c2-0.4,3.6-0.1,4.6,0.8c1.1,0.9,1.6,2.4,1.6,4.5c0,3-1.3,5.7-3.7,8.2
		c-2.5,2.5-5.7,4.2-9.6,5.1L77,67.2L77,67.2z M77,47.9v-4.4c0.3,0.4,0.8,0.5,1.3,0.4c0.7-0.1,1.3-0.5,1.6-1.2c0.3-0.7,0.5-1.7,0.5-3
		c0-1.8-0.2-3.2-0.6-4.1c-0.4-0.9-1-1.3-1.8-1.2c-0.4,0.1-0.7,0.2-1,0.5v-4.3c0.3-0.1,0.5-0.1,0.8-0.1c1-0.2,2.3-0.1,3.7,0.1
		c1.4,0.2,2.3,0.3,2.7,0.2c1.1-0.2,2.2-0.7,3.3-1.7c1.1-0.9,1.6-1.4,1.6-1.4c0.5-0.1,0.9,0.1,1.1,0.5c0.3,0.4,0.4,1,0.4,1.8
		c0,0.9-0.2,1.8-0.6,2.7c-0.4,0.8-1,1.8-1.8,2.8c0,0.3,0.1,0.5,0.1,0.8c0,0.3,0,0.6,0,0.8c0,2.7-0.9,5-2.8,6.9
		c-1.8,2-4.3,3.3-7.3,3.8C77.9,47.8,77.5,47.9,77,47.9L77,47.9z M104,29.9c0,2.4,0,4.9-0.1,7.3c0,2.4,0,4.9,0,7.3
		c0,0.6,0,1.1,0.1,1.4c0.1,0.3,0.3,0.6,0.7,0.9c0.1,0,0.2,0.1,0.3,0.2c0.7,0.6,1.1,1.2,1.1,2c0,1.1-0.6,2.1-1.8,2.9
		c-1.2,0.8-2.9,1.4-5.2,1.8c-2.4,0.4-4.2,0.5-5.5,0.1c-1.3-0.4-1.9-1.2-1.9-2.3c0-0.8,0.4-1.6,1.2-2.5c0,0,0,0,0,0
		c0.1-0.1,0.2-0.2,0.3-0.3c0.4-0.4,0.6-0.8,0.7-1.1c0.1-0.4,0.2-1.1,0.2-2c0-0.9,0.1-2.4,0.1-4.4c0-0.4,0-0.7,0-1.1
		c0-1.5-0.1-2.6-0.2-3.1c-0.1-0.5-0.5-0.9-0.9-1.2c0,0-0.1-0.1-0.2-0.1c-0.8-0.4-1.2-1.1-1.2-1.9c0-0.7,0.2-1.2,0.6-1.7
		c0.4-0.5,1.1-1,2.2-1.7c1.5-0.9,3-1.6,4.5-2.2c1.6-0.6,2.8-0.9,3.8-1c0.5-0.1,0.9,0,1,0.2c0.2,0.2,0.3,0.6,0.3,1.3
		C104,28.9,104,29.4,104,29.9L104,29.9z M96.3,26.6c-1.4,0.2-2.5,0-3.2-0.5c-0.7-0.5-1.1-1.4-1.1-2.6c0-1.3,0.7-2.5,2.1-3.5
		c1.4-1.1,3-1.7,5-1.9c1.5-0.2,2.6,0,3.5,0.5c0.8,0.5,1.2,1.3,1.1,2.3c0,1.4-0.7,2.6-2.1,3.6C100.2,25.7,98.4,26.4,96.3,26.6
		L96.3,26.6z M144.1,40.1c0,0.6,0.2,1.3,0.7,1.9c0.5,0.6,0.7,1.2,0.7,1.5c0,1-0.5,1.8-1.5,2.5c-1,0.6-2.5,1-4.5,1.3
		c-2,0.2-3.5,0.2-4.5-0.1c-1-0.3-1.5-1-1.5-2c0-0.5,0.2-1.1,0.6-1.8c0.1-0.2,0.2-0.4,0.2-0.5c0.2-0.4,0.3-1.1,0.4-2.1
		c0.1-1,0.1-2.5,0.1-4.6c0-1.8-0.1-3.1-0.4-3.8c-0.2-0.7-0.7-1-1.3-0.9c-0.6,0.1-1.1,0.4-1.4,1.1c-0.3,0.7-0.4,1.7-0.4,3.1
		c0,1.9,0,3.4,0.1,4.6c0.1,1.1,0.2,1.9,0.3,2.4c0,0.1,0.1,0.2,0.2,0.4c0.4,0.7,0.6,1.4,0.6,2.1c0,1.1-0.4,2-1.4,2.6
		c-0.9,0.6-2.4,1.1-4.5,1.4c-2.1,0.3-3.6,0.3-4.5,0c-0.9-0.3-1.3-1-1.3-2.1c0-0.6,0.3-1.4,0.8-2.3c0.1-0.3,0.3-0.4,0.3-0.6
		c0.2-0.3,0.3-0.8,0.3-1.4c0.1-0.6,0.1-2,0.1-4c0-2.5-0.1-4.1-0.4-4.9c-0.3-0.8-0.7-1.2-1.4-1.1c-0.6,0.1-1,0.5-1.2,1.2
		c-0.2,0.7-0.3,2.3-0.3,4.7c0,1.3,0,2.6,0,3.8c0,0.9,0.1,1.8,0.4,2.7c0.2,0.9,0.3,1.4,0.3,1.7c0,1.1-0.4,2-1.4,2.7
		c-0.9,0.7-2.4,1.2-4.3,1.5c-2.1,0.3-3.7,0.4-4.7,0c-1-0.4-1.4-1.1-1.4-2.2c0-0.6,0.3-1.3,0.9-2c0.2-0.3,0.4-0.5,0.5-0.7
		c0.2-0.3,0.4-1,0.5-1.9c0.1-0.9,0.2-2.7,0.2-5.3c0-2,0-3.3-0.1-4c-0.1-0.7-0.3-1.2-0.5-1.5c-0.1-0.1-0.3-0.3-0.4-0.4
		c-0.6-0.6-0.9-1.2-0.9-1.8c0-0.7,0.3-1.4,0.8-1.9c0.5-0.5,1.4-1.2,2.7-1.9c1.1-0.6,2.2-1.1,3.2-1.4c1.1-0.4,2-0.6,2.7-0.7
		c0.4,0,0.7,0,0.9,0.1c0.2,0.1,0.3,0.4,0.4,0.7c0.1,0.4,0.2,1,0.2,1.9c0,0.9,0.2,1.3,0.5,1.3c0.2,0,0.4-0.3,0.7-0.8
		c0.3-0.5,0.5-0.9,0.7-1.1c0.7-0.9,1.5-1.6,2.4-2.1c0.9-0.5,1.9-0.8,3-0.9c0.9-0.1,1.6,0,2.3,0.3c0.7,0.3,1.3,0.7,1.7,1.3
		c0.2,0.3,0.4,0.7,0.7,1.2c0.3,0.5,0.5,0.7,0.7,0.7c0.2,0,0.4-0.3,0.8-0.7c0.3-0.5,0.6-0.8,0.8-1.1c0.8-0.9,1.6-1.6,2.3-1.9
		c0.7-0.4,1.5-0.6,2.5-0.7c2.1-0.1,3.5,0.4,4.6,1.5c1,1.2,1.6,2.9,1.6,5.4C144.1,33.7,144.1,36.9,144.1,40.1z M77,30.5v4.3
		c-0.2,0.2-0.4,0.5-0.6,0.8c-0.4,0.7-0.5,1.7-0.5,3c0,1.8,0.2,3.2,0.6,4.1c0.1,0.3,0.3,0.6,0.5,0.8v4.4l-0.2,0
		C76.1,48,75.5,48,74.9,48c-0.2,0.1-0.3,0.3-0.4,0.5c-0.1,0.2-0.1,0.5-0.1,0.7c0,0.6,0.3,1,0.8,1.3c0.5,0.2,1.1,0.3,1.8,0.2v8.1
		c-0.1,0-0.2,0.1-0.3,0.1c-0.8,0.2-1.5,0.3-2.1,0.3c-0.6,0-1.2,0-1.8-0.1c-0.1,0.2-0.1,0.3-0.1,0.4c0,0.1,0,0.3,0,0.4
		c0,0.9,0.5,1.7,1.4,2.2c0.9,0.5,1.8,0.6,3,0.4v4.8c-3.1,0.7-5.6,0.6-7.5-0.4c-2-1-3-2.6-3-4.7c0-1,0.2-1.8,0.7-2.6
		c0.4-0.7,1.1-1.4,2.1-1.9c-0.9-0.4-1.5-0.9-1.9-1.6c-0.4-0.7-0.6-1.6-0.6-2.6c0-1.2,0.3-2.3,1-3.3c0.7-1,1.7-1.9,3-2.7
		c-1-0.5-1.8-1.3-2.3-2.4c-0.5-1.1-0.8-2.4-0.8-3.8c0-2.7,1-5,2.9-7.1C72.2,32.3,74.3,31.1,77,30.5L77,30.5z M52.8,62.3v-5.2l0.1,0
		c0.5-0.1,0.9-0.5,1.1-1.1c0.2-0.6,0.3-2.1,0.3-4.3c0-0.6,0-1-0.1-1.1c-0.1-0.1-0.4-0.1-0.9,0c-0.2,0-0.4,0.1-0.5,0.2v-4.4
		c0.5,0,1,0,1.6,0c0-0.1,0-0.2,0-0.4c0.1-1,0.1-1.7,0.1-2.2c0-1.7-0.1-3-0.4-3.7c-0.3-0.7-0.7-1-1.3-0.9l-0.1,0v-4.7
		c0.4-0.1,0.9-0.2,1.4-0.3c3.2-0.6,5.6-0.2,7.2,1.1c1.6,1.3,2.4,3.4,2.4,6.4c0,0.8,0,1.9-0.1,3.2c0,1.3-0.1,2.3-0.1,2.8
		c0,0.3,0,0.5,0,0.8c0,2.1,0,3.4,0.2,3.9c0.1,0.5,0.5,0.7,1,0.8c0.4,0,0.7,0.2,0.9,0.5c0.2,0.3,0.3,0.6,0.3,1.1
		c0,1.4-0.7,2.9-2.1,4.4c-1.4,1.6-3,2.6-4.7,3c-0.6,0.1-1.1,0.2-1.5,0.1c-0.4-0.1-0.8-0.3-1.1-0.6c-0.2-0.2-0.4-0.4-0.7-0.7
		c-0.5-0.5-0.8-0.8-1-0.7c-0.2,0-0.4,0.3-0.7,0.6c-0.1,0.2-0.2,0.3-0.3,0.4C53.6,61.6,53.2,62,52.8,62.3z M39.4,58.2
		c0,0.8,0.2,1.6,0.7,2.3c0.5,0.8,0.7,1.4,0.7,1.9c0,1.3-0.5,2.4-1.5,3.2c-1,0.9-2.5,1.6-4.5,2.1c-2,0.5-3.5,0.6-4.4,0.2
		c-1-0.4-1.5-1.1-1.5-2.4c0-0.6,0.2-1.4,0.5-2.4c0.1-0.3,0.2-0.5,0.3-0.6c0.2-0.5,0.3-1.4,0.4-2.6c0.1-1.2,0.2-3.2,0.2-5.8
		c0-2.3-0.1-3.9-0.3-4.7c-0.3-0.9-0.7-1.2-1.3-1.1c-0.6,0.1-1.1,0.6-1.4,1.5c-0.3,0.9-0.5,2.2-0.5,4c0,2.4,0,4.3,0,5.7
		c0,1.4,0.1,2.4,0.3,3c0,0.1,0.1,0.2,0.2,0.5c0.4,0.8,0.6,1.7,0.6,2.6c0,1.4-0.5,2.5-1.4,3.3c-0.9,0.8-2.4,1.5-4.6,2.1
		c-2.1,0.5-3.6,0.7-4.5,0.3c-0.9-0.3-1.3-1.2-1.3-2.5c0-0.7,0.3-1.7,0.8-2.8c0.1-0.3,0.3-0.6,0.3-0.7c0.2-0.4,0.3-1,0.3-1.8
		c0.1-0.8,0.1-2.4,0.1-4.9c0-3.1-0.1-5.1-0.3-6.1c-0.3-1-0.7-1.4-1.5-1.3c-0.5,0.1-0.9,0.7-1.2,1.6c-0.2,0.9-0.3,2.9-0.4,5.8
		c0,1.6,0,3.2-0.1,4.7c0,1.1,0.1,2.2,0.3,3.3c0.2,1.1,0.4,1.8,0.4,2c0,1.4-0.5,2.6-1.4,3.5c-0.9,0.9-2.4,1.6-4.4,2.2
		c-2.1,0.6-3.7,0.7-4.7,0.3C3.4,74.3,3,73.4,3,72c0-0.8,0.3-1.5,0.9-2.4c0.2-0.4,0.4-0.6,0.6-0.8c0.2-0.4,0.4-1.2,0.5-2.3
		c0.1-1.1,0.2-3.3,0.2-6.5c0-2.4,0-4.1-0.1-4.9c-0.1-0.8-0.2-1.4-0.5-1.7c-0.1-0.1-0.2-0.3-0.4-0.5c-0.6-0.7-0.9-1.3-0.9-2.1
		c0-0.9,0.3-1.7,0.8-2.4c0.5-0.7,1.4-1.6,2.8-2.6c1.1-0.8,2.2-1.5,3.3-2.1c1.1-0.6,2-0.9,2.7-1.1c0.4-0.1,0.7-0.1,0.9,0
		c0.2,0.1,0.3,0.4,0.4,0.8c0.1,0.5,0.2,1.2,0.2,2.3c0,1.1,0.2,1.6,0.5,1.5c0.2,0,0.4-0.4,0.7-1c0.3-0.7,0.5-1.1,0.7-1.4
		c0.7-1.2,1.5-2.1,2.4-2.8c0.9-0.7,1.9-1.2,3-1.4c0.9-0.2,1.6-0.2,2.3,0.1c0.6,0.2,1.2,0.7,1.7,1.4c0.2,0.3,0.4,0.8,0.7,1.4
		c0.3,0.6,0.5,0.9,0.7,0.8c0.2,0,0.4-0.4,0.8-1c0.4-0.6,0.6-1.1,0.8-1.4c0.9-1.3,1.7-2.1,2.4-2.7c0.7-0.5,1.5-0.9,2.5-1.1
		c2-0.4,3.6,0.1,4.6,1.4c1,1.3,1.5,3.5,1.5,6.6C39.5,50.1,39.4,54.2,39.4,58.2L39.4,58.2z M52.8,34.5v4.7c-0.7,0.2-1.5,1-2.4,2.7
		c-0.2,0.3-0.3,0.5-0.3,0.6c-0.6,1.1-1.2,1.9-1.8,2.5c-0.5,0.5-1.2,0.9-1.8,1c-0.7,0.1-1.3-0.1-1.7-0.6c-0.5-0.6-0.7-1.3-0.7-2.3
		c0-2,1-3.8,2.9-5.5C48.6,36.1,50.5,35.1,52.8,34.5L52.8,34.5z M52.8,46.3v4.4c-0.4,0.2-0.7,0.5-1,1c-0.4,0.7-0.6,1.5-0.6,2.6
		c0,1,0.1,1.8,0.4,2.2c0.3,0.5,0.7,0.6,1.2,0.5v5.2c-0.4,0.3-0.7,0.6-1,0.8c-0.7,0.4-1.5,0.8-2.4,1c-2.2,0.5-3.9,0.2-5.1-1.1
		c-1.3-1.2-1.9-3.1-1.9-5.6c0-2.6,0.9-4.9,2.6-7c1.7-2.1,3.8-3.4,6.3-3.9c0.4-0.1,0.9-0.2,1.4-0.2L52.8,46.3z"/>
</g>
</svg>
