<?xml version="1.0" encoding="utf-8"?>
<!-- Generator: Adobe Illustrator 22.0.0, SVG Export Plug-In . SVG Version: 6.00 Build 0)  -->
<svg version="1.1" id="Calque_1" xmlns="http://www.w3.org/2000/svg" xmlns:xlink="http://www.w3.org/1999/xlink" x="0px" y="0px"
	 viewBox="0 0 200 100" style="enable-background:new 0 0 200 100;" xml:space="preserve">
<style type="text/css">
	.st0{fill:#690039;stroke:#610034;stroke-miterlimit:10;}
	.st1{fill:#680D3A;}
	.st2{fill:#FFFFFF;}
	.st3{fill:#690039;}
	.st4{fill-rule:evenodd;clip-rule:evenodd;fill:none;stroke:#FFFFFF;stroke-width:0.5669;stroke-miterlimit:10;}
</style>
<g>
	<g>
		<path class="st0" d="M87.3,62.1c-0.2,0.3-0.5,0.5-0.7,0.7c0.1-1.4,0.5-3.2,0.9-4.9c0.6-3.1,1-6,0.9-7.8c-0.1-1.2-0.8-2.1-1.8-2.5
			c-0.4-1.2-1.5-1.9-3-1.8c-2.3,0.1-5,2.4-7.1,5.3c0-0.5,0.1-0.9,0-1.3c-0.1-1-0.8-1.6-1.5-1.7c-0.1-1.3-1.2-1.7-2.2-1.7
			c-1,0-2.4,0.4-4.1,1.3c0.1,0.2,0.2,0.5,0.3,0.8c-0.1,0-0.1,0-0.2,0.1c0.2,0.3,0.3,0.6,0.4,1c0,0.2,0,0.4,0.1,0.6
			c0.1,2.1-0.3,5.7-1.5,10.8c-0.1,0.5-0.3,1.1-0.4,1.6c-0.2,0.2-0.5,0.4-0.8,0.7c0.2-0.5,0.3-1,0.2-1.5c0-0.2-0.1-0.3-0.2-0.3
			c0-0.2,0-0.4,0-0.5c0-0.2-0.1-0.3-0.2-0.3c-0.4,0-1.2,0.7-2.3,2c-0.3,0.3-0.6,0.6-0.9,0.9c0-3.5,1.7-12,3-14.1
			c-0.5-0.2-1-0.4-1.5-0.5c0.1-0.1,0.1-0.2,0.2-0.3c-0.2-0.1-0.3-0.1-0.5-0.2c0.1-0.3,0.2-0.5,0.4-0.7c-1.2-0.5-2.4-0.8-3.6-0.7
			c-1,0.1-1.9,0.5-2.5,1.1c-1.1-0.7-2.4-0.9-4-0.8c-5.7,0.4-10.5,7-11.4,13.4c0-0.1,0-0.2-0.1-0.2c-0.4,0-1.7,1.3-3.4,2.7
			c-0.6,0.5-1.2,0.9-2,1.1c-0.1-1.2,0.3-4.4,0.4-5.7c0.1-0.4,0.1-0.8,0.2-1.2c0-0.1,0-0.2,0-0.3c0.7-1.1,2.4-4.1,3.5-7.4
			c0.7-2.1,1.3-4.2,1.3-6c0-0.5,0-1,0-1.5c-0.1-1-0.2-1.4-0.2-1.5c-0.1-0.2-0.2-0.4-0.4-0.6c-0.3-0.2-0.5-0.3-0.8-0.4
			c-0.1-0.5-0.2-0.7-0.2-0.8c-0.1-0.2-0.2-0.4-0.4-0.6c-1.2-0.8-2.4-1-3.6-1c-0.6,0-1.3,0.2-2,0.7c-0.6,0.5-1.1,1.3-1.3,1.9
			C33,46.6,31.8,53.3,31,59.9c-0.3,0.3-0.4,0.4-0.3,0.4c-1.1,1.1-1.9,2.1-1.8,2c0.1,0,0.7-0.5,2-1.6c0,0.1,0,0.2,0,0.3
			c-0.1,0.2-0.2,0.2-0.2,0.2c-1.1,1.1-1.9,2.1-1.8,2.1c0.1,0,0.6-0.4,1.9-1.5c0,0,0,0.1,0,0.1c0,0.6-0.1,1.2-0.1,1.7
			c-0.4,0.4-0.6,0.7-0.5,0.7c0.1,0,0.2-0.1,0.5-0.3c0,0.5,0,1,0.1,1.5l0,0c0,0.3,0,0.6,0.1,0.9c0.2,1.8,1.1,2.9,2.3,3.4
			c0.7,0.8,1.8,1.2,3,1.1c1.9-0.1,5.5-2.2,7.1-5.2c0.4,1.8,1.2,3.1,2.7,3.6c0.7,0.7,1.8,1.2,3.2,1.1c0.1,0,0.3,0,0.4,0
			c2.2-0.2,4.4-1.9,6.6-5.2c0,0.1,0,0.2,0.1,0.2c0.2,2,1.1,3.2,2.5,3.6c0.7,0.7,1.6,1,2.7,1c1.3,0,3-1,4.2-2.4c0,0,0,0.1,0,0.1
			c0.2,0,0.3,0,0.5,0.1c-0.1,0.3-0.2,0.6-0.3,0.8c0.6,0.1,1.1,0.1,1.6,0.2c-0.1,0.2-0.1,0.4-0.2,0.6c1.3,0.2,2.3,0.3,3.1,0.2
			c2,0,2.7-0.7,3.2-2.2c1.6-4.6,2.1-6.1,3.9-9.3c1.2-2.2,2.5-4.1,3.6-5c-0.2,1.4-0.5,3.6-1.1,6.6c-0.3,1.8-0.6,3.2-0.6,4.5
			c0,0.5,0.1,1,0.3,1.4c0.2,1.7,1.2,2.6,2.5,3c0.7,0.6,1.6,0.9,2.6,0.9c2.8,0,7.2-4.8,6.3-7.7C89,55.1,88.5,60.7,87.3,62.1z
			 M39,52.5c0.5-1.1,1.1-2.4,1.6-3.8c0.7-2.1,1.3-4.2,1.4-6c0-0.4,0-0.8,0-1.1c0.1,0,0.3,0.2,0.3,0.4c0.1,0.4,0.1,1,0.1,1.5
			c0,1.6-0.6,3.6-1.3,5.7c-0.7,2.1-1.6,4.1-2.4,5.5C38.7,54,38.9,53.3,39,52.5z M43.1,60.7c0,0.2,0,0.4-0.1,0.6c0,0-0.1,0-0.1,0
			C43,61.1,43.1,60.9,43.1,60.7z M42.3,63.8c0.3-0.6,0.5-1.1,0.7-1.5c0,0.3,0,0.6,0,0.9C42.8,63.4,42.6,63.6,42.3,63.8z M53.6,60.8
			c-1.4,2.2-2.4,3.5-3.3,3.6c0,0,0-0.1,0-0.1c-0.4-4.9,2.2-12.2,5.5-12.4c0.5,0,1,0,1.4,0.2c0.1,0.1,0.2,0.3,0.4,0.5
			C56.8,54.8,55.3,58,53.6,60.8z M196.5,47.1c-0.4-0.7-1.2-1-2.6-1.1c-0.2,0-1.8-0.1-1.8,0.2c0.2,1.6-1,4-3.8,7.1
			c-0.3-0.9-0.7-1.9-1-2.7c-0.5-1.6-1.6-3.3-3.3-3.3c-0.6-0.6-1.3-1.1-2.1-1.1c-1.8-0.1-3.6,1-4.2,2.4c0.2,0.2,0.4,0.4,0.6,0.6
			c0,0.1-0.1,0.1-0.1,0.2c0.2,0.2,0.4,0.4,0.7,0.7c0.9,1.6,1.9,4.2,3.3,7.4c-1.9,1.6-3.4,2.9-4.5,4.1c-0.2-0.2-0.8,0.1-1.7,1
			c0.1-0.4,0.2-0.8,0.2-1c0-0.3-0.2-0.5-0.5-0.3c0-0.2,0-0.3,0-0.4c0-0.8-1-0.3-2.7,1.6c-0.2,0.2-0.3,0.3-0.5,0.4
			c0-1.3,0.1-3.4,0.4-4.8c0.2-1.2,0.8-3.7,1.2-6.1c0.2-0.7,0.2-1.4,0.3-2.1c0.1-0.9-0.1-1.6-0.7-2.2c-0.4-0.4-1.1-0.6-1.7-0.7
			c-0.1-0.2-0.2-0.3-0.4-0.5c-0.6-0.6-1.5-0.7-2.2-0.7c-1.3,0-2.7,0.3-4.2,0.8c0.2,0.2,0.3,0.5,0.4,0.8c0,0,0,0,0,0c0,0,0,0,0,0
			c0.2,0.4,0.3,0.8,0.3,1.3c0,0.6,0.1,1.4-0.1,2.2c-0.2,1.5-0.4,3.9-1,6.4c-0.7,3.1-0.7,5.7-0.5,6.6c0.1,1,0.4,1.9,0.9,2.5
			c0.6,1.4,1.8,2.1,3.4,2.2c0.5,0.2,1.1,0.4,1.8,0.4c1.4,0.1,3.2-0.9,4.7-2.2c0.1,0.2,0.2,0.4,0.4,0.6c0.4,1.1,1.8,1.8,3.5,2
			c0.6,0.2,1.2,0.4,1.9,0.4c0.3,0,0.6,0,0.9,0c-0.1-0.3-0.2-0.6-0.2-0.9c-0.1-1.7,1.2-3.9,3.1-5.8c0.8,1.5,1.5,2.8,2.2,3.8
			c1.2,1.9,2.4,3,3.6,3c0.2,0,0.4,0,0.6,0c0.4,0.2,0.7,0.3,1.1,0.3c1.8,0.1,3.6-0.7,5-2.2c-2-1.1-4.6-4.7-6.5-9
			c4.7-4.3,8.2-8,8-10.3C198.8,47.8,198.1,47.2,196.5,47.1z M167.8,42.9c0.1,0.6,0.6,1.2,1.9,1.1c0.3,0.3,0.9,0.5,2,0.4
			c2.4-0.4,2.4-0.4,4-3.2c0.9-1.6,1.3-2.3,1.4-3.1c0-0.2,0-0.3,0-0.5c-0.1-0.6-0.8-1-2-1.1c0,0,0,0,0,0c-0.1-0.6-0.8-1.1-2.2-1.1
			c-2,0-4,0.3-5.6,0.9c0.1,0.2,0.2,0.4,0.3,0.6c0.2,1.6-0.3,4-0.2,5.2C167.4,42.3,167.5,42.7,167.8,42.9z M27.6,48.7
			c0-0.4,0.1-0.9,0-1.4c0,0,0,0,0,0c0-0.3,0-0.6,0-1c-2,0.7-7.4,1.5-11.9,2c-0.4,0-0.7,0.1-1.1,0.1c0.5-3.2,1-6.6,1.3-8.8
			c0-0.3,0-0.5,0-0.8c-0.1-0.5-0.3-1-1-1.4c0.9-0.1,1.8-0.2,2.7-0.3c1.2-0.2,2.8-0.2,4.5-0.4c0.7-0.1,1.5-0.2,2.2-0.3
			c3.1-0.4,4.3,0.7,5,0.7c2.6-0.3,4-3.3,4.2-5.7c-0.3-0.3-0.7-0.4-1.2-0.5c0-0.2,0-0.3,0.1-0.5c-0.1,0-0.1-0.1-0.2-0.1
			c0.1-0.3,0.1-0.6,0.1-0.9c-0.8-0.6-1.8-0.7-4.1-0.4c-1.6,0.2-3.8,0.7-6.2,0.9c-5,0.6-10.1,1.5-15.1,2.5c-1.9,0.4-2.3,0.8-3.2,2.6
			c-0.2,0.5-0.3,0.9-0.2,1.4c0,0.1,0,0.1,0,0.1c-0.1,0.3-0.1,0.6,0,0.8c0,0.5,0.1,0.8,0.3,0.8c0.2,0,0.5-0.1,0.9-0.1
			c0,0.1,0,0.3,0,0.4c0,0.5,0.1,0.8,0.3,0.8c0.2,0,0.7-0.1,1.2-0.2c0,0.1,0,0.1,0,0.2c0.1,0.5,0.1,1,0.1,1.5
			c-0.2,4.2-1.5,10.4-2.9,18c-0.3,2-0.5,3.9-0.7,5.8c-0.1,1-0.2,1.9-0.2,2.8c0,0.6,0,1.1,0.1,1.7c0.2,1.1,0.6,1.8,1.7,2.1
			c0.5,1,1.6,1.4,3.7,1.2c1.9-0.1,4.2-0.7,5.4-1.6c-0.1-0.5-0.8-1.4-0.9-2.4c-0.3-1.9,0-5.1,0.8-10.8c0.1-0.7,0.2-1.5,0.4-2.2
			c0.8-0.2,1.7-0.3,2.5-0.3c3.5-0.3,6.5-0.8,8.9-1.2c1.8-0.3,4-2,3.7-5.6C28.6,48.5,28.1,48.6,27.6,48.7z M107.5,48.7
			c-1,0.3-3.3,0.4-4.8,0.4c-0.4,0-0.9,0-1.3,0c-0.7,0-1.3,0-1.8,0c-2,0-2.7,0.4-3.9,3.3c-0.1,0.3-0.4,0.9-0.2,2c0,0.2,3.9,0,6.3-0.2
			c0.3,0,0.3,0,1.5-0.1c1.6-0.1,2.8-0.1,3.6-2.2C106.8,51.6,107.7,48.9,107.5,48.7z M158.7,63.3c-0.2-3.5,0.8-14.5,2.5-25.8
			c0.4-2.7,0.8-5.3,0.9-6.5c0.1-1.1-0.9-1.4-1.8-1.4c0,0,0,0,0,0c-0.1-1.1-1.6-1.3-2.6-1.2c-3.8,0.3-5,0.6-6.5,1.7
			c0.3,0.4,0.2,0.9,0,1.3c-0.7,1.9-2.2,4.8-4.6,8.3c-3.3,5.2-7,10.7-9.9,15.2c-0.1,0.1-0.1,0.2-0.2,0.3c-2.9-9.5-5.9-19.3-6.7-23
			c-0.2-0.9-0.9-1.5-1.9-1.9c-0.5-1.1-1.9-1.7-3.2-1.6c-1.8,0.2-3.6,0.6-5.9,1.8c0.2,0.3,0.3,0.5,0.4,0.7c0,0-0.1,0-0.1,0.1
			c0.2,0.3,0.4,0.7,0.5,0.9c0.1,0.3,0.1,0.7,0.1,1.1c-0.7,3.1-1.4,6.1-2.1,9.2c-0.7,3.3-5.1,18.9-5.7,21.2c-0.3,1.1-0.4,2-0.4,2.5
			c0,0.4,0.2,0.7,0.3,1c0.2,1,0.9,1.7,2.3,2c0.6,0.5,1.5,0.7,2.9,0.7c1.5,0,3.2-0.3,5.2-0.8c-0.5-0.9-0.8-1.8-0.9-3.1
			c-0.1-2.6,1.8-10.8,3.9-19.7c0,0,0,0,0-0.1c2.1,6.8,4.5,15.4,5.1,17.2c0.1,0.4,0.2,0.7,0.4,0.9c0.4,1.2,1,1.8,2.1,1.9
			c0.1,0,0.1,0,0.2,0c0.3,0.3,0.8,0.5,1.3,0.5c2.2,0,3.6-0.8,4.9-1.8c1.8-4,6.6-11.1,11.2-18.3c-0.6,7.3-2.1,17.2-2.1,19.8
			c0.1,0.9,0.3,1.6,0.7,2.1c0.5,1.3,1.5,1.9,2.9,2.1c0.6,0.3,1.3,0.5,2.2,0.5c2.4,0.1,5.9-1.5,6.7-1.9
			C159.5,67.4,158.8,65.3,158.7,63.3z"/>
		<g>
			<g>
				<path class="st1" d="M3.7,69.5c-1.1-0.3-1.7-1.1-1.9-2.4c-0.2-1.1-0.1-2.2,0.1-3.6c0.1-0.5,0.1-1,0.2-1.6
					c0.2-1.4,0.3-2.8,0.6-4.3c0.3-1.9,0.7-3.7,1-5.4c1.2-6.7,2.3-11.9,1.9-15c0-0.1,0-0.2,0-0.3c0-0.3-0.1-0.7-0.1-0.9
					c-0.8,0.2-1.5,0.3-1.9,0.4c0,0-0.1,0-0.1,0c0,0-0.1,0-0.1,0c-0.4-0.1-0.4-0.7-0.4-1.1c-0.1-0.5,0-1,0.3-1.5c1-2,1.5-2.5,3.5-2.9
					c5.1-1,10.1-1.9,15.1-2.5c1.1-0.1,2.2-0.3,3.2-0.5c1.1-0.2,2.1-0.4,2.9-0.5c1.7-0.2,2.6-0.2,3.3,0c0.4,0.1,0.7,0.3,1,0.5
					c0.1,0.1,0.1,0.2,0.1,0.3c-0.3,2.8-1.9,5.8-4.6,6c-0.1,0-0.3,0-0.5-0.1c-0.1,0-0.3-0.1-0.5-0.2c-0.2-0.1-0.5-0.2-0.8-0.2
					c-0.6-0.2-1.7-0.4-3.3-0.2c-0.7,0.1-1.4,0.2-2.2,0.2c-0.8,0.1-1.5,0.2-2.2,0.2c-0.8,0.1-1.5,0.1-2.2,0.2
					c-0.6,0.1-1.2,0.1-1.9,0.2c0.3,0.3,0.4,0.7,0.5,1.1c0,0.3,0,0.5,0,0.9c-0.4,2.9-1.1,7.1-1.7,10.5c0.7-0.1,1.5-0.1,2.2-0.2
					c4.3-0.4,9.8-1.2,11.7-1.9c0.1,0,0.1,0,0.2,0c0,0,0.1,0,0.1,0c0.1,0.1,0.1,0.2,0.1,0.3c0.1,1.6-0.2,2.9-1,4
					c-0.7,1-1.9,1.7-3.1,1.9c-0.7,0.1-1.5,0.2-2.3,0.3c-1.9,0.3-4.1,0.6-6.6,0.8c-0.7,0.1-1.5,0.1-2.2,0.3c-0.1,0.4-0.2,0.8-0.2,1.2
					c0,0.2-0.1,0.5-0.1,0.7c-0.8,5.1-1.2,8.8-0.9,10.7c0.1,0.5,0.3,1,0.5,1.4c0.2,0.4,0.3,0.7,0.4,1c0,0.1,0,0.3-0.2,0.4
					c-1.4,1-3.8,1.5-5.5,1.6C5.1,69.8,4.3,69.7,3.7,69.5z"/>
				<path class="st2" d="M31.1,27.9c0.3,0.1,0.6,0.2,0.9,0.4c-0.3,2.4-1.7,5.4-4.2,5.7c-0.1,0-0.3,0-0.4-0.1
					c-0.3-0.1-0.7-0.3-1.2-0.4c-0.8-0.2-1.8-0.4-3.4-0.2c-0.7,0.1-1.4,0.2-2.2,0.2c-1.6,0.2-3.2,0.3-4.4,0.4
					c-0.9,0.1-1.8,0.2-2.7,0.3c0.6,0.5,0.9,0.9,1,1.4c0,0.3,0,0.5,0,0.8c-0.4,2.8-1.1,7.3-1.8,11c0.9-0.1,1.8-0.2,2.7-0.3
					c4.5-0.4,9.9-1.2,11.8-1.9c0.3,3.6-2,5.2-3.7,5.5C21,51.2,18,51.7,14.5,52c-0.8,0.1-1.7,0.1-2.5,0.3c-0.2,0.7-0.3,1.5-0.4,2.2
					c-0.8,5.7-1.2,8.9-0.9,10.8c0.1,1,0.8,1.9,0.9,2.4c-1.2,0.9-3.4,1.4-5.3,1.5c-1,0.1-1.8,0-2.4-0.2c-1-0.3-1.5-1-1.7-2.2
					c-0.2-1.1-0.1-2.3,0.1-3.5c0.2-2,0.4-3.9,0.7-5.8c1.6-9.4,3.3-16.5,2.9-20.5c-0.1-0.6-0.1-1.4-0.3-1.4c0,0-0.1,0-0.1,0
					c-0.8,0.2-1.5,0.3-1.9,0.4c0,0,0,0,0,0c-0.2-0.1-0.2-0.3-0.2-0.8c0-0.4,0-0.9,0.2-1.4c0.9-1.8,1.3-2.2,3.2-2.6
					c5-1,10.1-1.9,15.1-2.5c2.4-0.3,4.5-0.7,6.2-0.9C29.5,27.7,30.4,27.7,31.1,27.9 M31.3,27.2c-0.7-0.2-1.7-0.2-3.4,0
					c-0.9,0.1-1.9,0.3-3,0.5c-1,0.2-2.1,0.3-3.2,0.5c-5,0.6-10.1,1.4-15.1,2.5c-2,0.4-2.7,1-3.7,3.1c0,0,0,0,0,0
					c-0.2,0.6-0.3,1.2-0.3,1.7c0,0.4,0,1.1,0.6,1.4c0.1,0,0.1,0,0.2,0c0.1,0,0.1,0,0.2,0c0.3,0,0.9-0.1,1.6-0.3c0,0.2,0,0.4,0.1,0.5
					c0,0.1,0,0.2,0,0.3c0.3,3.1-0.7,8.3-1.9,14.9c-0.3,1.7-0.7,3.5-1,5.4c-0.2,1.5-0.4,2.9-0.6,4.3c-0.1,0.5-0.1,1-0.2,1.6
					c-0.2,1.4-0.3,2.6-0.1,3.7c0.2,1.5,0.9,2.3,2.2,2.7c0.7,0.2,1.5,0.3,2.6,0.2c1.8-0.1,4.3-0.7,5.7-1.7c0.2-0.2,0.4-0.5,0.3-0.7
					c0-0.4-0.2-0.7-0.4-1.1c-0.2-0.4-0.4-0.9-0.5-1.3c-0.2-1.9,0.1-5.5,0.9-10.6c0-0.2,0.1-0.4,0.1-0.7c0.1-0.3,0.1-0.6,0.2-0.9
					c0.7-0.1,1.3-0.2,1.9-0.2c2.5-0.2,4.7-0.5,6.6-0.8c0.8-0.1,1.6-0.2,2.3-0.3c1.3-0.2,2.5-1,3.3-2.1c0.8-1.2,1.2-2.6,1-4.3
					c0-0.2-0.1-0.4-0.3-0.5c-0.1,0-0.1-0.1-0.2-0.1c-0.1,0-0.3,0-0.4,0c-1.5,0.5-5.6,1.3-11.7,1.9c-0.6,0.1-1.2,0.1-1.8,0.2
					c0.6-3.4,1.2-7.4,1.6-10.1c0,0,0,0,0-0.1c0-0.4,0-0.7,0-1c0-0.3-0.1-0.5-0.2-0.7c0.4,0,0.8-0.1,1.3-0.1c0.6-0.1,1.4-0.1,2.2-0.2
					c0.7-0.1,1.5-0.1,2.2-0.2c0.7-0.1,1.4-0.2,2.2-0.2c1.6-0.2,2.5,0,3.2,0.2c0.3,0.1,0.5,0.2,0.7,0.2c0.2,0.1,0.3,0.1,0.5,0.2
					c0.2,0.1,0.4,0.1,0.6,0.1c2.8-0.3,4.6-3.5,4.9-6.4c0-0.3-0.1-0.5-0.3-0.7C32,27.4,31.7,27.3,31.3,27.2L31.3,27.2z"/>
			</g>
			<g>
				<path class="st1" d="M32.7,68.1c-1.7-0.4-2.7-1.7-2.9-3.8c-0.1-0.9-0.1-1.9,0-3.3c0-0.1,0-0.1,0-0.2c0-0.1,0-0.2,0-0.3
					c-1.3,1.1-1.4,1.2-1.6,1.2c0,0-0.1,0-0.1,0c-0.1,0-0.2-0.1-0.3-0.2c-0.1-0.2-0.1-0.3,1.9-2.4c0,0,0,0,0,0c0-0.1,0.1-0.1,0.2-0.2
					c0.9-6.5,2-13.1,3.5-19.8c0.2-0.8,0.7-1.6,1.4-2.1c0.6-0.5,1.4-0.8,2.2-0.8c0.6,0,1.2,0,1.8,0.2c0.7,0.2,1.3,0.4,1.9,0.8
					c0.3,0.2,0.4,0.5,0.5,0.8c0.1,0.2,0.2,0.7,0.2,1.5c0,0.4,0.1,0.9,0,1.5c-0.1,1.8-0.7,4-1.4,6.1c-0.8,2.3-2,4.8-3.6,7.4
					c0,0.1,0,0.1,0,0.2c0,0.1,0,0.2,0,0.2c0,0.3-0.1,0.7-0.2,1c-0.4,3-0.5,5.1-0.5,5.8c0,0.4,0.1,1.2,0.3,1.4
					c0.9-0.1,1.8-0.4,2.6-1.1c0.2-0.2,0.5-0.4,0.7-0.6c1.8-1.6,2.4-2.2,2.9-2.2c0,0,0.1,0,0.1,0c0.1,0,0.2,0.1,0.3,0.2
					c0.1,0.3,0,0.9-1.1,3.2c-1.7,3.4-5.6,5.6-7.6,5.6C33.5,68.2,33.1,68.2,32.7,68.1z M39.8,39.3C39.8,39.3,39.8,39.3,39.8,39.3
					c-0.1,0.2-0.2,0.4-0.3,0.7c-0.5,1.9-1,3.8-1.4,5.7c-0.3,1.4-0.6,2.9-0.9,4.2c0.5-1,1-2.2,1.4-3.4c0.5-1.6,1.3-3.8,1.3-5.5
					c0-0.6,0-1.1-0.1-1.5C39.9,39.3,39.8,39.3,39.8,39.3z"/>
				<path class="st2" d="M38.7,36.6c0.6,0.1,1.2,0.4,1.8,0.8c0.2,0.2,0.3,0.3,0.4,0.6c0,0,0.2,0.5,0.2,1.5c0,0.4,0.1,0.9,0,1.5
					c-0.1,1.8-0.7,3.9-1.4,6c-1.1,3.3-2.9,6.3-3.6,7.4c0,0.1,0,0.2,0,0.3c0,0.4-0.1,0.8-0.2,1.2c-0.2,1.3-0.6,4.8-0.5,5.9
					c0.1,0.8,0.1,1.6,0.5,1.7c0,0,0,0,0.1,0c1.1-0.1,2.1-0.5,2.8-1.2c1.7-1.5,3-2.7,3.4-2.7c0,0,0,0,0,0c0.3,0.1,0,0.9-1,3
					c-1.6,3.1-5.3,5.4-7.3,5.4c-0.4,0-0.8,0-1.2-0.1c-1.5-0.3-2.5-1.5-2.7-3.5c-0.1-0.9-0.1-1.9,0-3.5c0-0.3,0.1-0.7,0.1-1.1
					c-1.3,1.2-1.9,1.6-2,1.6c0,0,0,0,0,0c-0.1,0,0.7-0.9,1.8-2c0,0,0,0,0,0s0.1-0.1,0.3-0.4c0.9-6.6,2.1-13.3,3.5-19.9
					c0.2-0.6,0.6-1.4,1.3-1.9c0.6-0.5,1.3-0.7,2-0.7C37.5,36.4,38.1,36.5,38.7,36.6 M36.5,52c0.8-1.4,1.7-3.3,2.4-5.5
					c0.7-2,1.3-4.1,1.3-5.7c0-0.6,0-1.1-0.1-1.5c0-0.2-0.2-0.3-0.3-0.4c-0.2,0-0.3,0-0.4,0.2c-0.1,0.2-0.2,0.5-0.3,0.7
					c-0.6,1.9-1,3.8-1.4,5.7C37.3,47.7,36.9,49.8,36.5,52 M38.9,35.9c-0.6-0.1-1.2-0.2-1.9-0.2c-0.9,0-1.7,0.3-2.4,0.9
					c-0.7,0.6-1.3,1.5-1.5,2.3c-1.5,6.6-2.7,13.2-3.5,19.7c-0.1,0.1-0.1,0.1-0.1,0.2c0,0,0,0,0,0c-2.1,2.2-2.1,2.3-2,2.7
					c0.1,0.2,0.3,0.4,0.5,0.5c0.1,0,0.1,0,0.2,0c0.3,0,0.4-0.1,1.2-0.7c-0.1,1.3-0.1,2.2,0,3.1c0.2,2.2,1.4,3.6,3.2,4
					c0.4,0.1,0.9,0.1,1.4,0.1c2.4-0.1,6.3-2.6,7.9-5.8c1.2-2.5,1.3-3.1,1.1-3.5c-0.1-0.2-0.3-0.4-0.5-0.4c-0.1,0-0.1,0-0.2,0
					c-0.6,0-1.2,0.6-3.1,2.3c-0.2,0.2-0.5,0.4-0.7,0.7c-0.7,0.6-1.3,0.9-2.1,1c-0.1-0.3-0.1-0.8-0.1-1.1c-0.1-0.7,0.1-2.7,0.5-5.7
					c0.1-0.4,0.1-0.7,0.2-1c0-0.1,0-0.1,0-0.2c0,0,0,0,0,0c0,0,0,0,0-0.1c1.6-2.6,2.8-5.1,3.5-7.4c0.7-2.1,1.3-4.3,1.4-6.2
					c0-0.6,0-1.1,0-1.5c-0.1-0.9-0.2-1.4-0.2-1.5l0,0c0,0,0,0,0-0.1c-0.1-0.4-0.3-0.7-0.6-0.9c0,0,0,0-0.1-0.1
					C40.2,36.4,39.6,36.1,38.9,35.9L38.9,35.9z M38.3,46.4c0-0.2,0.1-0.4,0.1-0.6c0.3-1.7,0.7-3.3,1.2-5c0,0,0,0.1,0,0.1
					c0,0,0,0,0,0.1C39.6,42.5,38.8,44.8,38.3,46.4C38.3,46.3,38.3,46.3,38.3,46.4L38.3,46.4z"/>
			</g>
			<g>
				<path class="st1" d="M45.6,67.7c-2.2-0.4-3.5-2.2-3.7-5.3c-0.3-4.1,1.5-8.9,4.4-12.3c2.2-2.5,4.8-4,7.5-4.2c0.8,0,1.5,0,2.2,0.1
					c0.7,0.1,1.3,0.3,1.8,0.6c0.7-0.6,1.5-1,2.5-1c0.5,0,1.1,0,1.6,0.1c0.7,0.1,1.4,0.3,2.1,0.7c0.1,0,0.2,0.1,0.2,0.2
					c0,0.1,0,0.2,0,0.3c-1.3,2.1-3.2,11.5-3,14.4c0.1,0.9,0.1,1.2,0.2,1.3c0.5-0.1,0.9-0.6,1.6-1.3c1.6-1.9,2.2-2.1,2.6-2.1
					c0,0,0.1,0,0.1,0c0.4,0.1,0.4,0.5,0.5,0.7c0.1,1.4-0.8,3.3-2.3,4.9c-1.5,1.6-3.2,2.6-4.6,2.6c-0.3,0-0.6,0-0.9-0.1
					c-1.3-0.2-3-1.1-3.2-4.2c0-0.5,0-1.1,0-1.8c-2.5,4.1-5,6.2-7.6,6.4c-0.1,0-0.3,0-0.4,0C46.5,67.8,46,67.8,45.6,67.7z M54.4,49.5
					c-0.3-0.1-0.6-0.1-0.8-0.1c-0.7,0-1.4,0.5-2.1,1.3c-1.9,2.3-3.4,7.1-3.1,10.7c0.2,1.3,0.6,1.5,0.9,1.6c0.1,0,0.1,0,0.2,0
					c0.9,0,2.5-2.6,3-3.4c1.7-2.6,3.2-5.9,4.1-8.5C56.1,50,54.9,49.6,54.4,49.5z"/>
				<path class="st2" d="M61.8,46.1c0.7,0.1,1.4,0.3,2.1,0.6c-1.4,2.2-3.2,11.7-3.1,14.7c0,0.7,0.1,1.5,0.5,1.6c0,0,0,0,0.1,0
					c0.6-0.1,1.2-0.6,1.9-1.4c1.2-1.3,1.9-2,2.3-2c0,0,0,0,0,0c0.1,0,0.2,0.1,0.2,0.3c0.1,2.8-3.8,7.1-6.6,7.2c-0.3,0-0.6,0-0.9-0.1
					c-1.7-0.3-2.7-1.5-2.9-3.9c-0.1-0.9-0.1-2.3,0-3.1c-2.7,4.7-5.4,7.2-8,7.4c-0.1,0-0.3,0-0.4,0c-0.4,0-0.9,0-1.2-0.1
					c-2.3-0.4-3.2-2.4-3.4-5c-0.4-7.1,5.1-15.6,11.5-16.1c0.8,0,1.4,0,2.1,0.1c0.7,0.1,1.3,0.4,1.9,0.7c0.6-0.7,1.5-1.1,2.5-1.1
					C60.8,46,61.3,46,61.8,46.1 M49.2,63.4c0.1,0,0.2,0,0.3,0c0.8,0,1.9-1.3,3.3-3.6c1.8-2.9,3.4-6.3,4.1-8.7
					c-0.4-1.2-1.4-1.8-2.4-2c-0.3-0.1-0.6-0.1-0.9-0.1c-3.2,0.2-5.9,7.5-5.6,12.4C48.2,62.7,48.5,63.3,49.2,63.4 M61.9,45.4
					c-0.6-0.1-1.1-0.1-1.7-0.1c-1,0.1-1.8,0.4-2.5,1c-0.5-0.3-1.1-0.4-1.7-0.6c-0.7-0.1-1.4-0.2-2.2-0.1c-2.7,0.2-5.4,1.7-7.7,4.3
					c-3,3.5-4.8,8.2-4.5,12.5c0.3,3.2,1.6,5.1,4,5.6c0.4,0.1,0.9,0.1,1.4,0.1c0.1,0,0.3,0,0.4,0c2.5-0.2,4.9-2,7.2-5.6
					c0,0.2,0,0.5,0,0.6c0.2,2.6,1.4,4.2,3.5,4.5c0.3,0.1,0.6,0.1,1,0.1c1.5,0,3.3-1.1,4.9-2.7c1.6-1.7,2.5-3.7,2.4-5.2
					c0-0.8-0.5-0.9-0.7-1c0,0-0.1,0-0.2,0c-0.5,0-1.1,0.3-2.8,2.2c-0.4,0.4-0.8,0.8-1.1,1c0-0.2-0.1-0.4-0.1-0.8
					c-0.2-2.8,1.7-12.2,2.9-14.2c0.1-0.2,0.1-0.4,0.1-0.6c-0.1-0.2-0.2-0.4-0.4-0.4C63.3,45.7,62.6,45.5,61.9,45.4L61.9,45.4z
					 M48.7,61.4c-0.3-3.5,1.1-8.2,3-10.4c0.6-0.7,1.3-1.1,1.9-1.2c0.2,0,0.5,0,0.8,0c0.4,0.1,1.4,0.4,1.9,1.3
					c-0.7,2.1-2.2,5.4-4,8.2c-1.8,2.9-2.5,3.2-2.7,3.3c-0.1,0-0.1,0-0.1,0C49,62.7,48.8,62.2,48.7,61.4L48.7,61.4z"/>
			</g>
			<g>
				<path class="st1" d="M64.8,66.9c-0.1,0-0.2-0.1-0.2-0.2c-0.1-0.1-0.1-0.2,0-0.3c0.7-2,1.4-4.3,2-6.6c1.1-4.5,1.7-8.4,1.6-10.7
					c-0.1-1-0.2-1.8-0.5-2.3c0-0.1-0.1-0.2,0-0.3c0-0.1,0.1-0.2,0.2-0.2c1.6-0.8,3.1-1.3,4.3-1.3c0.2,0,0.4,0,0.6,0
					c1.2,0.2,1.9,0.9,2,2.1c0.1,1.2-0.2,2.9-0.6,5.1c2.4-3.9,5.9-7.6,8.9-7.7c0.2,0,0.4,0,0.6,0c1.7,0.2,2.8,1.4,2.9,3.1
					c0.1,1.6-0.2,4.1-0.9,7.8c0,0.1-0.1,0.3-0.1,0.4c-0.4,1.8-0.9,3.7-0.8,4.9c0,1.1,0.2,1.3,0.2,1.4c0.1,0,0.7-0.4,1.5-1.3
					c1.4-1.5,2-2.1,2.6-2.1c0,0,0.1,0,0.1,0c0.1,0,0.5,0.1,0.5,0.7c0.1,1.5-0.9,3.4-2.5,5.1c-1.5,1.6-3.3,2.5-4.6,2.5
					c-0.2,0-0.4,0-0.6,0c-2.1-0.2-3.4-1.6-3.5-3.9c0-1.1,0.2-2.3,0.4-3.7c0.1-0.3,0.1-0.6,0.2-0.9c0.9-5.1,1.2-7.4,1.2-7.8
					c0-0.2-0.1-0.5-0.3-0.5c-0.4,0-1.5,0.4-4.4,5.3c-1.7,3.1-2.3,4.6-3.8,9c0,0.1,0,0.1-0.1,0.2c-0.5,1.5-1.2,2.4-3.5,2.4
					C67.2,67.2,66.3,67.1,64.8,66.9L64.8,66.9z"/>
				<path class="st2" d="M83.3,44.9c1.5,0.2,2.6,1.3,2.6,2.8c0.1,1.8-0.3,4.6-1,7.8c-0.5,2-1,4-1,5.5c0,0.8,0.1,1.7,0.5,1.7
					c0,0,0,0,0,0c0.4,0,1.1-0.6,1.8-1.4c1.2-1.3,1.9-2,2.3-2c0,0,0,0,0,0c0.1,0,0.2,0.1,0.2,0.3c0.1,3-4,7.3-6.7,7.3
					c-0.2,0-0.4,0-0.6,0c-1.8-0.2-3.1-1.3-3.2-3.6c-0.1-1.3,0.3-2.7,0.6-4.5c0.8-4.5,1.2-7.3,1.2-7.9c0-0.6-0.3-0.8-0.5-0.8
					c0,0-0.1,0-0.1,0c-1.1,0-2.9,2.6-4.6,5.5c-1.8,3.1-2.3,4.7-3.9,9.3c-0.5,1.4-1.2,2.1-3.2,2.1c-0.8,0-1.8-0.1-3.1-0.3
					c0.8-2.1,1.4-4.4,2-6.6c1.3-5,1.7-8.7,1.6-10.8c-0.1-1-0.2-1.8-0.6-2.5c1.7-0.9,3.1-1.2,4.1-1.3c0.2,0,0.4,0,0.5,0
					c0.8,0.1,1.6,0.6,1.7,1.8c0.1,1.6-0.5,4.1-1.1,7.1c2.2-4.6,6.3-9.4,9.7-9.5C83,44.9,83.2,44.9,83.3,44.9 M83.4,44.2
					c-0.2,0-0.4,0-0.6,0c-2.8,0.1-5.9,3-8.3,6.5c0.2-1.4,0.4-2.6,0.3-3.5c-0.1-1.3-0.9-2.2-2.2-2.4c-0.2,0-0.4,0-0.6,0
					c-1.2,0.1-2.7,0.5-4.4,1.3c-0.2,0.1-0.3,0.2-0.4,0.4c-0.1,0.2,0,0.4,0.1,0.6c0.3,0.5,0.4,1.2,0.5,2.2c0.1,2.3-0.4,6.1-1.6,10.6
					c-0.6,2.2-1.3,4.5-2,6.5c-0.1,0.2-0.1,0.4,0.1,0.6c0.1,0.2,0.3,0.3,0.5,0.3c0,0,0,0,0,0c1.5,0.2,2.5,0.3,3.2,0.3
					c2.5,0,3.3-1.1,3.8-2.6c0-0.1,0-0.1,0.1-0.2c1.6-4.4,2.1-5.9,3.8-8.9c2.3-3.9,3.5-5.1,4-5.2c0,0,0,0.1,0,0.2
					c0,0.4-0.3,2.7-1.2,7.8c-0.1,0.3-0.1,0.6-0.2,0.9c-0.3,1.4-0.5,2.6-0.4,3.7c0.1,2.5,1.5,4,3.8,4.3c0.2,0,0.4,0,0.6,0
					c1.5,0,3.3-1,4.9-2.7c1.7-1.8,2.6-3.8,2.5-5.4c0-0.7-0.4-1-0.8-1c0,0-0.1,0-0.1,0c-0.7,0-1.4,0.7-2.8,2.2
					c-0.5,0.5-0.9,0.9-1.1,1c0-0.2-0.1-0.5-0.1-0.9c-0.1-1.2,0.4-3.1,0.8-4.8c0-0.1,0.1-0.3,0.1-0.4c0.7-3.8,1-6.3,1-8
					C86.5,45.8,85.2,44.4,83.4,44.2L83.4,44.2z"/>
			</g>
			<g>
				<path class="st1" d="M94.6,52.7c-0.2,0-0.3-0.1-0.3-0.3c0-0.3,0.1-0.7,0.2-1c1.3-3,2.1-3.4,4.2-3.5c0.3,0,0.7,0,1.1,0
					c0.2,0,0.4,0,0.7,0c0.4,0,0.9,0,1.3,0c1.5,0,2.9-0.2,3.9-0.4c0,0,0.1,0,0.1,0c0.1,0,0.2,0.1,0.3,0.1c0.2,0.3,0.3,0.7,0.2,1.1
					c-0.9,3.4-2.8,3.5-5.9,3.5c-0.4,0-0.8,0-1.2,0c-1.6,0-2.8,0.2-3.6,0.4C95.1,52.7,94.8,52.7,94.6,52.7
					C94.6,52.7,94.6,52.7,94.6,52.7z"/>
				<path class="st1" d="M105.7,47.9c0.2,0.2,0.2,0.5,0.2,0.8c-0.8,3.1-2.4,3.2-5.6,3.2c-0.4,0-0.8,0-1.2,0c-2.4,0-3.9,0.5-4.5,0.5
					c0-0.2,0.1-0.5,0.2-0.9c1.2-2.9,1.9-3.2,3.9-3.3c0.5,0,1,0,1.8,0c0.4,0,0.9,0,1.3,0C103.3,48.2,104.7,48.1,105.7,47.9
					 M105.8,47.2c-0.1,0-0.1,0-0.2,0c-1,0.2-2.4,0.4-3.8,0.4c-0.4,0-0.9,0-1.3,0c-0.2,0-0.5,0-0.7,0c-0.4,0-0.8,0-1.1,0
					c-2.3,0-3.2,0.7-4.5,3.7c-0.2,0.4-0.3,0.8-0.3,1.1c0,0.3,0.3,0.6,0.6,0.6c0,0,0,0,0.1,0c0.3,0,0.6-0.1,1-0.1
					c0.8-0.1,2-0.4,3.5-0.4c0.4,0,0.8,0,1.2,0c3.2,0,5.3,0,6.3-3.7c0.1-0.5,0-1-0.3-1.4C106.2,47.3,106,47.2,105.8,47.2L105.8,47.2z
					"/>
			</g>
			<g>
				<path class="st1" d="M151.5,69.5c-0.2,0-0.4,0-0.6,0c-2.6-0.1-3.9-1.3-4.1-3.7c-0.1-1.9,0.7-7,1.3-12.5
					c0.5-3.8,0.9-7.7,1.1-10.7c-0.2,0.3-0.5,0.7-0.8,1.2c-5.4,8.3-10.2,15.5-12,19.3c0,0-0.1,0.1-0.1,0.1c-1.1,0.9-2.6,1.8-4.9,1.8
					c-0.1,0-0.1,0-0.2,0c-1.6,0-2.1-1.2-2.4-2.2c-0.6-2.1-3.6-12.8-5.7-19.8c0,0,0-0.1,0-0.1c0,0.2-0.1,0.4-0.1,0.5
					c-0.1,0.3-0.1,0.6-0.2,0.8c-2.4,9.7-4.1,17.2-4,19.6c0,1.1,0.3,2.1,0.8,3c0,0.1,0.1,0.2,0,0.3c0,0.1-0.1,0.2-0.2,0.2
					c-2,0.6-3.8,0.8-5.3,0.8c-0.1,0-0.2,0-0.2,0c-2.3-0.1-3.6-0.9-3.8-2.5c0-0.4,0-1.2,0.4-2.6c0.5-1.9,3.6-12.6,5.1-18.3
					c0.2-0.9,0.5-1.9,0.7-2.8c0.8-3.4,1.5-6.2,2.2-9.1c0-1-0.2-1.6-0.8-2.6c0-0.1-0.1-0.2,0-0.3c0-0.1,0.1-0.2,0.2-0.2
					c2-1.1,3.9-1.7,6-1.9c0.1,0,0.3,0,0.4,0c1.6,0,3,1,3.3,2.4c0.4,2,1.5,6,2.8,10.5c1.2,4,2.5,8.5,3.8,13c0.1,0.5,0.3,1,0.5,1.4
					c0.2-0.3,0.5-0.6,0.8-1.1c2.5-3.9,6-8.9,10-15.2c2.3-3.4,3.9-6.3,4.6-8.3c0.3-0.6,0.1-0.9,0-1c-0.1-0.2-0.1-0.3,0.1-0.4
					c1.5-1.2,2.9-1.4,6.6-1.7c0.1,0,0.1,0,0.2,0c0.5,0,1.7,0,2.4,0.7c0.2,0.2,0.4,0.6,0.4,1.2c-0.1,1.2-0.4,3.8-0.9,6.6
					c-1.7,11-2.8,22-2.6,25.7c0.1,1.9,0.7,3.9,2,5.7c0.1,0.1,0.1,0.2,0,0.3c0,0.1-0.1,0.2-0.2,0.2C157.6,67.6,154.2,69.3,151.5,69.5
					z"/>
				<path class="st2" d="M124.1,28c1.4,0,2.7,0.9,3,2.1c0.8,3.8,3.8,13.9,6.6,23.5c0.2,0.7,0.5,1.4,0.7,2c0.3-0.4,0.7-0.9,1.1-1.5
					c2.9-4.5,6.7-10,9.9-15.2c2.4-3.6,3.9-6.5,4.6-8.3c0.2-0.4,0.3-0.9,0-1.3c1.5-1.1,2.7-1.4,6.4-1.7c0.1,0,0.1,0,0.2,0
					c1-0.1,2.5,0.1,2.4,1.4c-0.1,1.2-0.5,3.9-0.9,6.5c-1.8,11.2-2.8,22.2-2.7,25.8c0.1,2,0.8,4,2,5.8c-0.7,0.4-3.7,1.7-6.1,1.8
					c-0.2,0-0.4,0-0.5,0c-2.2-0.1-3.5-0.9-3.7-3.4c-0.1-3.2,2.2-17.2,2.4-24.2c-0.5,0.6-0.9,1.3-1.5,2.1c-4.9,7.5-10.1,15.2-12,19.3
					c-1.2,1-2.6,1.8-4.6,1.8c-0.1,0-0.1,0-0.2,0c-1.1,0-1.7-0.7-2.1-2c-0.6-2.1-3.6-12.7-5.8-19.8c-0.1-0.5-0.3-0.8-0.4-1.1
					c-0.2,0.8-0.4,1.6-0.5,2.3c-2.2,8.9-4.2,17.1-4.1,19.7c0,1.3,0.4,2.3,0.8,3.1c-2,0.6-3.7,0.8-5.2,0.8c-0.1,0-0.2,0-0.2,0
					c-2.2-0.1-3.3-0.9-3.4-2.3c0-0.5,0.1-1.3,0.4-2.5c0.6-2.3,5.1-17.9,5.8-21.1c0.7-3,1.4-6.1,2.2-9.2c0-1.1-0.2-1.8-0.9-2.9
					c2.2-1.2,4.1-1.7,5.9-1.8C123.9,28,124,28,124.1,28 M124.1,27.4c-0.2,0-0.3,0-0.5,0c-2.1,0.2-4,0.8-6.1,1.9
					c-0.2,0.1-0.3,0.2-0.3,0.4c0,0.2,0,0.4,0.1,0.5c0.6,1,0.8,1.6,0.8,2.4c-0.8,3.1-1.5,6.2-2.2,9.1c-0.1,0.6-0.4,1.5-0.7,2.7
					c-1.5,5.8-4.6,16.6-5.1,18.4c-0.4,1.4-0.4,2.3-0.4,2.6c0,0,0,0,0,0c0.2,1.8,1.6,2.7,4.1,2.8c0.1,0,0.2,0,0.2,0
					c1.5,0,3.3-0.2,5.4-0.8c0.2-0.1,0.4-0.2,0.4-0.4c0.1-0.2,0.1-0.4,0-0.6c-0.5-0.9-0.7-1.8-0.8-2.8c-0.1-2.3,1.7-10,4-19.5
					c0-0.1,0-0.1,0-0.2c2.1,7,4.8,16.7,5.4,18.7c0.3,1.1,1,2.5,2.8,2.5c0.1,0,0.2,0,0.2,0c2.4,0,4-1,5.1-1.9
					c0.1-0.1,0.1-0.1,0.2-0.2c1.7-3.8,6.5-10.9,11.9-19.2c0-0.1,0.1-0.1,0.1-0.2c-0.2,2.8-0.6,6.1-1,9.4c-0.7,5.5-1.4,10.6-1.3,12.5
					c0.2,2.6,1.6,3.9,4.4,4.1c0.2,0,0.4,0,0.6,0c2.7-0.1,6-1.7,6.4-1.9c0.2-0.1,0.3-0.2,0.3-0.4c0-0.2,0-0.4-0.1-0.5
					c-1.2-1.8-1.8-3.7-1.9-5.5c-0.2-3.7,0.9-14.7,2.6-25.6c0.5-2.7,0.8-5.4,0.9-6.6c0.1-0.7-0.2-1.2-0.5-1.5c-0.7-0.8-2-0.8-2.6-0.8
					c-0.1,0-0.1,0-0.2,0c-3.7,0.3-5.1,0.6-6.7,1.8c-0.3,0.2-0.3,0.6-0.1,0.9c0.1,0.1,0.1,0.4-0.1,0.6c0,0,0,0,0,0
					c-0.7,1.9-2.3,4.8-4.5,8.2c-4,6.2-7.5,11.3-10,15.2c-0.1,0.2-0.3,0.4-0.4,0.5c-0.1-0.3-0.2-0.6-0.3-0.8c-1.3-4.4-2.7-9-3.8-13
					c-1.3-4.6-2.4-8.5-2.9-10.5C127.4,28.5,125.9,27.4,124.1,27.4L124.1,27.4z"/>
			</g>
			<g>
				<path class="st1" d="M167.8,67.6c-0.2,0-0.3,0-0.5,0c-1.8-0.1-3.9-0.9-4.2-4.3c-0.1-1.1-0.1-3.8,0.6-6.7c0.5-2,0.7-3.9,0.9-5.4
					c0-0.4,0.1-0.7,0.1-1c0.1-0.7,0.1-1.4,0.1-2.2c0-0.7-0.3-1.3-0.7-1.9c-0.1-0.1-0.1-0.2-0.1-0.3c0-0.1,0.1-0.2,0.2-0.2
					c1.2-0.4,2.3-0.6,3.3-0.7c0.3,0,0.7,0,1,0c0.7,0,1.8,0.2,2.4,0.8c0.6,0.6,0.9,1.4,0.8,2.5c-0.1,0.7-0.2,1.3-0.3,2.1
					c-0.1,0.6-0.3,1.2-0.4,1.9c-0.4,1.7-0.7,3.3-0.9,4.2c-0.2,1.4-0.4,3.7-0.4,4.9c0.1,1.2,0.2,1.4,0.3,1.5c0.3-0.1,1-0.7,1.7-1.3
					c1.7-1.8,2.3-2,2.6-2.1c0.2,0,0.4,0.1,0.5,0.1c0.2,0.1,0.2,0.3,0.3,0.6c0,0.5-0.2,1.3-0.6,2.3C173.3,65,170.2,67.4,167.8,67.6z
					 M168.3,43c-0.7,0.1-1.3-0.1-1.7-0.4c-0.3-0.3-0.6-0.7-0.6-1.2c0-0.6,0-1.3,0.1-2.2c0.1-1,0.2-2.1,0.1-3c0-0.1-0.1-0.2-0.1-0.3
					c0-0.1-0.1-0.1-0.1-0.2c0-0.1,0-0.2,0-0.3c0-0.1,0.1-0.1,0.2-0.2c1.2-0.4,2.5-0.7,3.8-0.9c0.6-0.1,1.3-0.1,1.9-0.1
					c1.4,0,2.3,0.6,2.5,1.4c0,0.2,0,0.3,0,0.6c-0.1,0.8-0.4,1.5-1.4,3.2c0,0,0,0,0,0.1c-1.6,2.7-1.7,2.8-4,3.2c0,0-0.1,0-0.1,0
					C168.6,43,168.4,43,168.3,43L168.3,43z"/>
				<path class="st2" d="M170,34.8c0.6-0.1,1.2-0.1,1.9-0.1c1.3,0,2,0.5,2.1,1.1c0,0.2,0,0.3,0,0.5c-0.1,0.8-0.4,1.5-1.4,3.1
					c-1.6,2.8-1.6,2.7-4,3.2c-0.1,0-0.3,0-0.4,0.1c-1.4,0.1-1.9-0.7-1.9-1.3c-0.1-1.2,0.4-3.5,0.2-5.2c0-0.2-0.2-0.4-0.3-0.6
					C167.4,35.2,168.6,34.9,170,34.8 M167.4,45.2c0.3,0,0.7,0,1,0c0.7,0,1.6,0.2,2.2,0.7c0.6,0.6,0.8,1.3,0.7,2.2
					c-0.1,0.7-0.2,1.3-0.3,2.1c-0.5,2.3-1.1,4.9-1.3,6c-0.3,1.4-0.4,3.8-0.4,5c0,0.8,0.1,1.8,0.5,1.8c0,0,0.1,0,0.1,0
					c0.5,0,1.2-0.6,1.9-1.4c1.2-1.3,2-1.9,2.4-2c0.2,0,0.3,0.1,0.3,0.4c0,0.4-0.2,1.2-0.6,2.2c-1,2.5-4.1,4.8-6.3,4.9
					c-0.1,0-0.3,0-0.4,0c-2.3-0.1-3.6-1.4-3.9-4c-0.1-0.9-0.1-3.6,0.6-6.6c0.6-2.5,0.8-4.9,1-6.4c0.1-0.8,0.1-1.6,0.1-2.2
					c-0.1-0.8-0.3-1.5-0.8-2.1C165.3,45.6,166.4,45.3,167.4,45.2 M169.9,34.1c-1.4,0.1-2.7,0.4-3.9,0.9c-0.2,0.1-0.3,0.2-0.3,0.4
					c-0.1,0.2,0,0.3,0,0.5c0,0.1,0.1,0.1,0.1,0.2c0,0,0.1,0.1,0.1,0.1c0.1,0.8,0,1.9-0.1,2.9c-0.1,0.8-0.2,1.6-0.1,2.2
					c0,0.6,0.3,1.1,0.7,1.4c0.5,0.4,1.2,0.6,2,0.5c0.2,0,0.3,0,0.5-0.1c0,0,0.1,0,0.1,0c2.6-0.5,2.7-0.6,4.3-3.4c0,0,0,0,0-0.1
					c1-1.7,1.3-2.4,1.5-3.3c0,0,0,0,0,0c0-0.3,0-0.5,0-0.6c0,0,0,0,0,0c-0.1-0.8-1-1.7-2.9-1.7C171.2,34.1,170.5,34.1,169.9,34.1
					L169.9,34.1z M167.3,44.6L167.3,44.6c-1,0.1-2.1,0.3-3.3,0.7c-0.2,0.1-0.3,0.2-0.4,0.4c-0.1,0.2,0,0.4,0.1,0.6
					c0.4,0.5,0.6,1.1,0.6,1.7c0.1,0.7,0,1.5-0.1,2.1c0,0.3-0.1,0.6-0.1,1c-0.2,1.4-0.4,3.4-0.9,5.3c-0.7,3.2-0.7,5.9-0.6,6.8
					c0.3,2.8,1.9,4.5,4.6,4.6c0.2,0,0.3,0,0.5,0c2.5-0.2,5.8-2.7,6.8-5.3c0.5-1.1,0.7-1.9,0.6-2.5c0-0.4-0.1-0.6-0.4-0.8
					c-0.2-0.2-0.5-0.2-0.8-0.2c-0.5,0-1.1,0.3-2.8,2.2c-0.4,0.3-0.9,0.8-1.2,1c0-0.2-0.1-0.5-0.1-1c-0.1-1.2,0.1-3.5,0.4-4.9
					c0.1-0.8,0.5-2.4,0.9-4.1c0.1-0.6,0.3-1.3,0.4-1.9c0.2-0.8,0.2-1.4,0.3-2.1c0,0,0,0,0,0c0.1-1.1-0.2-2-0.9-2.7
					c-0.6-0.6-1.5-0.9-2.7-1C168,44.5,167.7,44.5,167.3,44.6L167.3,44.6z"/>
			</g>
			<g>
				<path class="st1" d="M190,69c-0.4,0-0.7,0.1-1.1,0c-2.3-0.2-4.2-3.2-6.4-8.1c-2.3,2.1-3.8,4.5-3.8,6.3c0,0.3,0.1,0.5,0.2,0.8
					c0,0.1,0,0.2,0,0.3c-0.1,0.1-0.2,0.1-0.3,0.1c0,0,0,0,0,0c-0.3,0-0.6,0-1,0c-2.4-0.1-4.1-1.3-4.1-2.8c-0.1-2.2,2.3-4.9,7.1-8.9
					c-0.4-0.9-0.7-1.7-1-2.4c-1.2-2.9-2.1-5.2-3.1-6.1c-0.1-0.1-0.2-0.2-0.1-0.4c0.5-1.3,2.1-2.4,3.8-2.6c0.2,0,0.5,0,0.7,0
					c1.6,0.1,2.9,1.4,3.6,3.6c0.4,1.3,1,2.8,1.6,4.6c3.3-3.4,4.7-6,4.6-7.8c0-0.2,0.1-0.4,0.6-0.5c0.4-0.1,1,0,1.4,0
					c2.1,0.1,3.1,0.8,3.2,2.2c0.2,2.4-3.2,5.9-7.9,10.3c1.8,4.1,4.3,7.6,6.2,8.6c0.1,0.1,0.2,0.1,0.2,0.2c0,0.1,0,0.2-0.1,0.3
					C193,68,191.5,68.8,190,69z"/>
				<path class="st2" d="M180.2,45.6c0.2,0,0.4,0,0.7,0c1.7,0.1,2.8,1.7,3.3,3.4c0.5,1.7,1.2,3.5,1.8,5.1c3.7-3.8,5.2-6.6,5-8.4
					c0-0.1,0.1-0.1,0.3-0.2c0.5-0.1,1.3,0,1.4,0c1.8,0.1,2.7,0.7,2.8,1.8c0.2,2.3-3.3,5.9-8,10.2c1.9,4.3,4.4,7.9,6.4,9
					c-1.2,1.2-2.6,2-4,2.2c-0.3,0-0.7,0.1-1,0c-2.2-0.1-4.1-3.3-6.3-8.3c-2.6,2.2-4.3,4.8-4.3,6.8c0,0.3,0.1,0.6,0.2,0.9
					c-0.3,0-0.6,0-0.9,0c-2.1-0.1-3.7-1.1-3.8-2.5c-0.1-1.9,2-4.6,7.1-8.8c-1.9-4.4-3-7.7-4.4-8.9C177.2,46.7,178.6,45.8,180.2,45.6
					 M180,44.9L180,44.9c-1.8,0.2-3.4,1.3-4,2.8c-0.1,0.3,0,0.6,0.2,0.8c0.9,0.8,1.9,3,3,5.9c0.3,0.7,0.6,1.5,0.9,2.2
					c-4.8,4-7.1,6.7-7,9c0.1,1.7,1.9,3,4.5,3.2c0.3,0,0.7,0,1,0c0,0,0,0,0,0c0.2,0,0.4-0.1,0.5-0.3c0.1-0.2,0.1-0.4,0-0.6
					c-0.1-0.2-0.1-0.4-0.1-0.7c-0.1-1.6,1.2-3.7,3.3-5.7c2.2,4.8,4.1,7.6,6.5,7.8c0.4,0,0.8,0,1.2,0c1.6-0.2,3.1-1,4.4-2.4
					c0.1-0.1,0.2-0.3,0.2-0.5c0-0.2-0.2-0.4-0.4-0.5c-1.8-1-4.2-4.4-5.9-8.3c4.7-4.3,8.1-7.9,7.9-10.4c-0.1-1.6-1.3-2.4-3.5-2.5
					c0,0,0,0,0,0c-0.4,0-1.1-0.1-1.5,0c-0.8,0.1-0.9,0.6-0.9,0.8c0.1,1.6-1.2,4-4.1,7.1c-0.6-1.5-1.1-2.9-1.4-4
					c-0.7-2.4-2.2-3.8-4-3.9C180.6,44.9,180.3,44.9,180,44.9L180,44.9z"/>
			</g>
		</g>
		<g>
			<path class="st3" d="M39.2,46.9c-2.2,5.4-4.2,8.2-4.7,8.4c-0.6,3.7-0.4,6.8-0.4,7.6c0.1,0.6,0.5,1,0.8,1c0.1,0-0.1,0,0,0
				c0-0.1,0-0.2,0-0.2c-0.1-0.8,0.1-5.6,0.2-6.5c0.1-0.3,0.3-1.6,0.3-1.7c0.5-0.8,3.3-5.9,4.1-8.4c0.5-1.6,1.4-5.1,1.4-7
				c-0.3,0.5-0.2,2.1-0.3,2.1C40.6,42.3,39.8,45.5,39.2,46.9z"/>
			<path class="st3" d="M36.1,51.3c0.1-0.3,0.4-2.6,0.5-2.9c0.2-1.4,0.8-4.8,1.2-6.7c0-0.2,1-2.8,1-2.8c-0.5-0.1-1.4,1.4-1.5,1.6
				c-0.4,1.6-2.4,12.3-2.6,13.8C35,53.5,35.7,52.4,36.1,51.3z"/>
			<path class="st3" d="M27.7,32.4c-0.5,0-1.4-0.8-3.8-0.5c-0.5,0.1-1.1,0.1-1.6,0.2c-1.2,0.1-2.4,0.2-3.3,0.3
				c-0.7,0.1-5,0.6-5.7,0.7c0.5,0.4,0.5,0.3,0.5,0.8c0.6-0.1,4.9-0.6,5.5-0.7c0.9-0.1,2.1-0.2,3.3-0.3c0.5-0.1,1.1-0.1,1.6-0.2
				c2.4-0.3,3.3,0.6,3.8,0.5c1.9-0.2,3-2.5,3.2-4.3c-0.2-0.2-0.2-0.1-0.5-0.2C30.4,30.3,29.6,32.5,27.7,32.4z"/>
			<path class="st3" d="M26,46.2c-0.3,1.8-1.6,3-2.7,3.1c-1.8,0.3-4,0.6-6.7,0.9c-0.6,0.1-4.9,0.5-5.5,0.6c-0.1,0.4,0,0.7-0.2,1.3
				c-0.7,4.3-1.4,10.6-1.2,12.1c0.1,0.7,0.6,1.8,0.7,2.2c-0.9,0.7-2.6,1.1-4,1.2c-1.2,0.1-2-0.1-2.4-0.5c0.2,1.3,1,1.4,3,1.3
				c1.4-0.1,3.1-0.5,4.1-1.2c-0.1-0.4-0.6-1.1-0.7-1.8c-0.2-1.4,0.5-7.7,1.1-12.1c0.1-0.6,0.2-1.1,0.3-1.7c0.6-0.1,1.3-0.2,1.9-0.2
				c2.7-0.2,8.2-1,10-1.2c1.3-0.2,3.1-1.5,2.8-4.2C26.4,46,26.2,46.1,26,46.2z"/>
			<path class="st3" d="M5.9,35.1c-0.1-0.5-0.1-1-0.3-0.9c-0.4,0.1-0.8,0.2-1.1,0.2c0,0.2-0.1,0.2,0,0.4c0,0.4,0.1,0.6,0.2,0.6
				c0.3,0,0.8-0.1,1.3-0.3C5.9,35.1,5.9,35.1,5.9,35.1z"/>
			<path class="st3" d="M47.2,62.2c0-0.1,0-0.2-0.1-0.4c-0.3-3.7,1.4-11.4,5.9-13.4c0.5-0.2,1.6-0.3,2.1,0.1c0,0,1.2,0.9,0.9,0.6
				c-0.4-1.2-2.3-1.9-3.7-1.2c-4.8,2.3-6.3,9.6-5.9,12.9C46.6,61.6,46.8,62,47.2,62.2z"/>
			<path class="st3" d="M12.7,47.5c0.4-2.5,1.4-9.1,1.6-11c0-0.3,0-0.4,0-0.6c0-0.3-0.2-0.6-0.5-0.9c0,0.1,0,0.2,0,0.4
				c-0.3,2.1-1.4,9.4-1.9,12.2C12.2,47.6,12.4,47.5,12.7,47.5z"/>
			<path class="st3" d="M124.9,30c0.5,2.9,5.1,17.2,7.2,24.5c0.2,0.5,0.4,1.1,0.5,1.5c0.1-0.1,0.3-0.3,0.4-0.5c0-0.1,0-0.1-0.1-0.2
				c-2.2-7.3-6.8-21.6-7.3-24.5c-0.1-0.5-0.5-1-1-1.2C124.8,29.7,124.9,29.8,124.9,30z"/>
			<path class="st3" d="M168,63.4c0.2,0,0.4-0.1,0.7-0.3c0-0.1-0.3-1.2-0.3-1.3c0-3,0.6-6.5,0.8-7.6c0.1-0.9,0.6-2.7,1-4.4
				c0.1-0.6,0.2-1.1,0.2-1.6c0.1-0.7-0.1-1.2-0.5-1.7c-0.2-0.2-0.5-0.4-0.8-0.4c0.2,0.4,0.3,0.8,0.3,1.4c-0.1,0.5,0,1.2-0.1,1.8
				c-0.4,1.7-1,4.2-1.2,5.1c-0.4,2.5-0.9,5.4-0.7,6.8C167.4,61.7,167.7,63.3,168,63.4z"/>
			<path class="st3" d="M182,48c0.4,1.3,2.1,5.6,2.6,6.8c0.2-0.2,0.4-0.4,0.6-0.6c-0.4-0.9-1.8-4.6-2.1-5.5
				c-0.4-1.1-1.1-2.2-2.1-2.4C181.4,46.7,181.7,47.4,182,48z"/>
			<path class="st3" d="M72.6,46.3c0.2,0.6-0.4,5.1-0.6,6.1c-0.1,0.7-0.3,1.4-0.2,1.9c0.1,0.3,0.2,0.6,0.5,0.6c0.1,0,0.2,0,0.4-0.1
				c0,0,0-0.1,0-0.1c-0.2-0.5,0-1.2,0.1-1.9c0.1-1.1,0.8-5.5,0.6-6.1c-0.1-0.3-0.5-0.6-1.1-0.7C72.4,46.1,72.5,46.2,72.6,46.3z"/>
			<path class="st3" d="M61.9,46.8c-1.2,3-2.7,12.3-2.3,15.2c0.1,0.6,0.1,1.3,0.4,1.2c0.1,0,0.2-0.1,0.3-0.1c0,0,0-0.1,0-0.1
				c-0.5-2.8,1.2-13.4,2.6-16C62.5,46.8,62.2,46.9,61.9,46.8z"/>
			<path class="st3" d="M84.6,47c0.1,1.2-1.6,10.1-2,12.5c-0.1,1.8,0,1.8,0.7,2.9c-0.2-2.1,2.4-13.1,2.1-14.4
				c-0.2-0.6-0.4-1-0.8-1.1C84.5,46.9,84.6,46.9,84.6,47z"/>
			<path class="st3" d="M172.7,35.6c0,0.1,0,0.1,0,0.3c-0.3,1.5-0.7,2.1-1.3,3.1c-1.3,2.2-1.8,2.4-3.6,2.7c-0.3,0.1-0.5,0.1-0.7,0
				c0.1,0.4,0.5,0.7,1.7,0.5c1.8-0.3,2.1-0.7,3.3-2.8c0.7-1.2,1.2-2.3,1.3-2.9c0-0.2,0.1-0.4,0-0.5c-0.1-0.4-0.2-0.5-0.8-0.6
				C172.6,35.4,172.7,35.5,172.7,35.6z"/>
			<path class="st3" d="M154.1,62.3c0-2.7,1.4-18.6,2.7-27.2c0.3-2,0.6-4.1,0.7-5c0.1-0.6-0.4-0.9-1-1.1c0,0.1,0,0.2,0,0.3
				c-0.1,0.9-0.4,2.9-0.7,5c-1.3,8.5-2.7,24.5-2.7,27.1c0.1,1.5,0.6,3.1,1.5,4.4c-0.6,0.3-3.2,1.5-5,1.4c-0.5,0-1-0.1-1.3-0.3
				c0.5,0.7,1.3,1,2.3,1c1.8,0.1,4.4-1.1,5-1.4C154.7,65.3,154.2,63.8,154.1,62.3z"/>
			<path class="st3" d="M122.1,40.8c-0.1-0.3-0.2-0.7-0.3-1c-0.1-0.3-0.2-0.6-0.3-0.8c-0.2,0.6-0.3,1.2-0.4,1.8
				c-1.6,6.8-5.1,20-5.1,22c0,1,0.3,1.7,0.6,2.4c-1.5,0.4-2.8,0.6-3.9,0.6c-0.7,0-1.3-0.1-1.7-0.3c0.3,0.7,1.1,1.1,2.6,1.2
				c1.1,0,2.4-0.2,3.9-0.6c-0.4-0.7-0.6-1.4-0.6-2.4c0-2,3.4-15.2,5-22C122,41.3,122,41.1,122.1,40.8z"/>
			<path class="st3" d="M173.3,62.6c0-0.1,0.2-1.8,0.1-1.5c-0.3,0.7-2.3,4.7-6.4,4.9c-0.4,0-1.3,0-1.6-0.1c0.5,0.4,1.3,0.6,2.2,0.6
				c1.2,0,2.8-0.8,3.9-1.8C172.3,64.1,172.4,63.9,173.3,62.6z"/>
			<path class="st3" d="M148.9,40.6c0.1-0.8,0.6-1.9,0.6-2.6c-0.4,0.5-0.7,1-1.1,1.6c-3.5,5.7-12.4,18.2-14,21.3
				c-0.9,0.8-2.6,1.7-4.2,1.6c-0.1,0-0.3,0-0.4-0.1c0.3,0.6,0.7,0.9,1.3,0.9c1.6,0,2.7-0.6,3.7-1.3
				C136.4,58.8,145.3,46.4,148.9,40.6C148.8,40.6,148.8,40.6,148.9,40.6z"/>
			<path class="st3" d="M181.8,60.2c-0.2-0.4,0-0.7-0.2-1.1c-1.9,1.7-4.1,4.2-4.5,6.4c0,0.2-0.2,1.1-0.1,1.3c-0.2,0-0.8-0.1-1-0.1
				c-0.5,0-1-0.1-1.4-0.3c0.5,0.6,1.4,0.9,2.5,1c0.2,0,0.5,0,0.7,0c-0.1-0.2-0.2-0.5-0.1-0.7C177.7,64.8,180.2,61.7,181.8,60.2z"/>
			<path class="st3" d="M193.8,46.5c0.1,0.2,0.2,0.4,0.2,0.6c0.2,1.7-4.5,6.8-8.1,10c1.4,3.3,4.5,8,6,8.9c-1.1,1.2-2.5,1.7-3.8,1.6
				c-0.1,0-0.3,0-0.4-0.1c0.5,0.5,0.9,0.4,1.4,0.4c1.3,0.1,2.7-0.5,3.8-1.7c-1.5-0.8-4.8-5.5-6.2-8.8c3.6-3.2,8.3-8.3,8.1-10
				C194.7,46.9,194.6,46.7,193.8,46.5z"/>
			<path class="st3" d="M65.1,60.4C63.2,64,61,65.5,59,65.7c-0.1,0-0.2,0-0.3,0c-1,0.1-1.9-0.6-2.5-1.1c0.6,1.2,1.5,1.8,3.1,1.7
				c0.1,0,0.2,0,0.3,0c1.7-0.2,3.4-1.7,5.1-4.5C65,61.2,65.1,60.9,65.1,60.4z"/>
			<path class="st3" d="M104.3,48.5c-0.5,2.1-1.6,2.4-5,2.3c-0.3,0-2.9,0.2-3.5,0.3c-0.1,0.1-0.1,0.1-0.1,0.3
				c-0.1,0.2-0.1,0.3-0.1,0.4c0.5,0,1.8-0.4,3.6-0.4c0.3,0,0.6,0,0.9,0c2.5,0,4.3-0.1,4.8-2.3c0.1-0.2,0.2-0.5,0.2-0.7
				C104.8,48.4,104.6,48.5,104.3,48.5z"/>
			<path class="st3" d="M56.1,57C56,57,56,57,56.1,57c-3.9,6.7-7.1,9.2-9.3,8.9c-0.7-0.1-1.3-0.2-1.8-0.6c0.4,1.1,1.3,1.6,2.5,1.6
				c1.4,0,4.4-1.7,7.7-7.3C55.5,58.8,55.8,57.9,56.1,57z"/>
			<path class="st3" d="M41.2,61.3c-0.1,0.4-3.6,5.2-7.7,5c-0.8,0-1.7-0.5-2.2-0.9c0.5,1.1,1.5,1.6,2.8,1.6c1.5,0,3.9-1.3,5.3-3.1
				C39.6,63.7,41.2,61.9,41.2,61.3z"/>
			<path class="st3" d="M30.1,59.3c-0.6,0.6-1.3,1.3-1.2,1.3c0.1,0,0.7-0.5,1.2-1C30.1,59.5,30.1,59.5,30.1,59.3z"/>
			<path class="st3" d="M88.2,60c-0.2,0-0.3,0.7-1,1.7c-1.8,2.5-3.6,3.7-5.3,3.7c-0.7,0-1.6-0.3-2.1-0.7c0.5,1,1.4,1.4,2.5,1.4
				c2.1,0,5.9-3.5,5.8-5.8C88.3,60.3,88.4,60,88.2,60z"/>
			<path class="st3" d="M79.4,48.9c0-0.5,0.1-0.5-0.1-0.5c-0.8,0-3.4,3-4.8,5.2c-1.3,2.4-3.5,6.2-4.6,9.8c-0.4,1.3-1,2.1-2.5,2.1
				c-0.4,0-1.1-0.2-1.6-0.3c-0.1,0.3-0.1,0.5-0.2,0.8c1,0.1,1.7,0.2,2.3,0.2c1.5,0,2-0.6,2.4-1.6c1.3-3.5,3.4-7.8,4.7-10.2
				c1.2-2,3.5-4.7,4.3-5.1C79.4,49.1,79.4,49,79.4,48.9z"/>
		</g>
	</g>
	<g>
		<g>
			<ellipse class="st4" cx="196.2" cy="32.2" rx="3.8" ry="3.6"/>
			<g>
				<path class="st2" d="M194.2,29.9c0.4-0.1,1.1-0.1,1.7-0.1c0.9,0,1.5,0.1,2,0.4c0.3,0.2,0.5,0.5,0.5,0.8c0,0.6-0.6,0.9-1.3,1.1
					l0,0c0.5,0.1,0.8,0.4,1,0.9c0.2,0.6,0.4,1,0.5,1.2l-0.9,0c-0.1-0.1-0.3-0.5-0.4-1c-0.2-0.6-0.6-0.8-1.3-0.9l-0.8,0l0,1.9l-0.9,0
					L194.2,29.9z M195,31.9l0.9,0c0.9,0,1.5-0.3,1.5-0.8c0-0.6-0.6-0.8-1.5-0.8c-0.4,0-0.7,0-0.9,0L195,31.9z"/>
			</g>
		</g>
	</g>
</g>
</svg>
