<?xml version="1.0" encoding="utf-8"?>
<!-- Generator: Adobe Illustrator 22.0.0, SVG Export Plug-In . SVG Version: 6.00 Build 0)  -->
<svg version="1.1" id="Calque_1" xmlns="http://www.w3.org/2000/svg" xmlns:xlink="http://www.w3.org/1999/xlink" x="0px" y="0px"
	 viewBox="0 0 481.9 425.2" style="enable-background:new 0 0 481.9 425.2;" xml:space="preserve">
<style type="text/css">
	.st0{clip-path:url(#SVGID_2_);}
	.st1{clip-path:url(#SVGID_2_);fill-rule:evenodd;clip-rule:evenodd;fill:#FFFFFF;}
	.st2{clip-path:url(#SVGID_2_);fill:none;stroke:#ED1C24;stroke-width:2.835;stroke-miterlimit:22.926;}
	.st3{clip-path:url(#SVGID_2_);fill-rule:evenodd;clip-rule:evenodd;}
	.st4{clip-path:url(#SVGID_2_);fill:#ED1C24;}
	.st5{clip-path:url(#SVGID_2_);fill:#FFFFFF;}
	.st6{clip-path:url(#SVGID_2_);fill-rule:evenodd;clip-rule:evenodd;fill:#ED1C24;}
	
		.st7{clip-path:url(#SVGID_2_);fill:none;stroke:#000000;stroke-width:2.500000e-02;stroke-linecap:round;stroke-linejoin:round;stroke-miterlimit:22.926;}
	.st8{clip-path:url(#SVGID_2_);fill-rule:evenodd;clip-rule:evenodd;fill:#636467;}
	
		.st9{clip-path:url(#SVGID_2_);fill:none;stroke:#000000;stroke-width:3.300000e-02;stroke-linecap:round;stroke-linejoin:round;stroke-miterlimit:22.926;}
	.st10{clip-path:url(#SVGID_2_);fill-rule:evenodd;clip-rule:evenodd;fill:#C6C8CA;}
	
		.st11{clip-path:url(#SVGID_2_);fill:none;stroke:#000000;stroke-width:1.300000e-02;stroke-linecap:round;stroke-linejoin:round;stroke-miterlimit:22.926;}
	.st12{clip-path:url(#SVGID_2_);fill-rule:evenodd;clip-rule:evenodd;fill:#FFF200;}
	.st13{clip-path:url(#SVGID_2_);fill-rule:evenodd;clip-rule:evenodd;fill:#2E3192;}
	.st14{clip-path:url(#SVGID_2_);fill:#2E3192;}
	.st15{clip-path:url(#SVGID_2_);fill:none;stroke:#2E3192;stroke-width:2.900000e-02;stroke-miterlimit:22.926;}
</style>
<g>
	<defs>
		<rect id="SVGID_1_" width="481.9" height="425.2"/>
	</defs>
	<clipPath id="SVGID_2_">
		<use xlink:href="#SVGID_1_"  style="overflow:visible;"/>
	</clipPath>
	<path class="st0" d="M240.2,379.3l-3.8-4.8l-5.6,5l5,5.9l4.6-4.3l3.8,4.5l5.5-4.8l-4.8-5.7L240.2,379.3z M302.3,377.9l-4.5-4
		l-4.7,6l5.9,4.9l3.8-5.1l4.5,3.7l4.6-5.7l-5.7-4.8L302.3,377.9z M403.5,328.3c-0.8-0.2-1.6-0.5-2.2-0.9c-2-1.2-4-3.3-6.3-6.1
		c-2.2-2.8-3.6-4.5-4.2-4.9c-1.6-1.2-3.3-1.4-5.2-0.5c-1.9,0.9-3.4,2.3-4.8,4.4c-0.3,0.6-0.7,1.3-1.2,2.1c-0.4,0.8-0.9,1.9-1.5,3.2
		c-0.9,1.8-1.6,2.9-2.1,3.1l-3.3,1.5l-8.2,2.6l-9.4-34l-9.5,10.1l11.8,34.8c1.6,5.4,2.9,8.8,3.8,10c1.3,1.8,3.3,2.5,6.1,2.2
		c7.4-0.8,11.4-3.6,18-5.1c2.2-0.5,4.2-0.4,6,0.2c1.5,0.5,3.7,1.6,6.6,3.4l8-25.6C404.7,328.6,403.9,328.4,403.5,328.3 M393.7,336
		c-0.2-0.9-0.4-1.6-0.6-2.2c-0.7-1.6-1.7-2.9-2.9-3.8c-0.9-0.7-2.1-1.2-3.6-1.6c-0.7-0.2-1.9-0.3-3.6-0.5c0.1-0.2,0.3-0.6,0.5-1
		c0.1-0.2,0.3-0.4,0.6-0.7c0.4-0.6,0.9-1,1.4-1.2c1.3-0.6,2.6-0.6,3.8,0c1.4,0.7,2.6,2.1,3.5,4.2c0.6,1.3,0.9,2.8,1.1,4.6
		c0.1,0.9,0.2,2.4,0.2,4.6L393.7,336z M348.5,338.5c-2.9,0.7-6.2,0.1-10-1.7l-9.4-5.2c-3.6-1.8-6.5-2.4-8.9-1.9
		c-2.2,0.5-4.1,1.7-5.5,3.6c-0.3,0.3-0.6,0.9-1.1,1.6c-0.4,0.7-0.9,1.8-1.5,3l8.6,6.1l0.2,0.6c-4,0.9-15.3,3.3-19.1,1.6
		c-1.1-0.4-2.2-1.9-3.5-4.7l-1.5,0c-0.6,2.2-1.1,3.6-1.5,4.2c-0.8,1.4-2.7,2.3-5.8,2.7l-3,0.3l0.1,0.5l-8.4,0
		c-0.6-2.8-1.6-4.7-3-5.8c-1.2-0.9-2.8-1.4-4.9-1.4c-1.7,0-3.3,0.3-4.6,1c-0.6,0.3-1.2,0.6-1.8,1.1c-0.7,0.5-1.3,1-1.9,1.5l-3.6,3.6
		c-3,0-11.3,0-13.4-1.5c-1-0.6-1.9-2.3-2.6-5.2l-1.5-0.3c-1,2-1.7,3.3-2.1,3.9c-1,1.3-3.1,1.8-6.2,1.6c-2.3-0.2-3.3-0.1-5.5-0.5
		c0.5-2.9,0.1-5.6-1.2-8.3c-1.6-3.3-4.2-5.2-7.9-5.9l-24.7-4.4l0-0.2l4.9-1.5c1.2-0.4,2-0.6,2.7-0.7c0.8-0.2,1.6-0.3,2.3-0.4
		c0.9-0.1,1.8-0.2,2.6-0.2c0.8,0,1.6,0.1,2.4,0.2c1.9,0.3,3.2,1,4.1,2.1c0.5,0.5,1.1,1.6,1.9,3.2l1-6.3c0.3-1.9,0.5-3.4,0.6-4.6
		c0.1-1.2,0.2-2,0.2-2.5c-0.2-1.4-0.9-2.2-2.1-2.4c-2.6-0.5-6.2,0-10.8,1.4c-5.1,1.6-9.5,3.7-13,6.4c-4.4,3.4-6.9,7.2-7.6,11.5
		l0.2,0.4l31.7,5.6c1.3,0.9,2,1.6,2.2,2.1l0.9,2.7l-41.1-7.3c-0.4-0.4-0.7-0.8-1-1.3c-0.2-0.2-0.3-1.1-0.3-2.5
		c0-0.5-0.1-0.9-0.3-0.9c-0.7-0.3-1.3-0.1-1.8,0.5c-0.8,0.9-2.3,1.6-4.3,2c-0.5-0.9-0.8-1.4-0.9-1.7c-0.1-0.3-0.2-0.6-0.3-0.9
		c-0.3-0.8-0.5-1.7-0.6-2.7c-1.4-0.3-2.6,0-3.6,1.1c-1,1.1-3,1.1-6.1-0.1l-5.2-2l-1.9-6.9l-9.8,7.2c0.2,0.7,0.8,1.9,1.9,3.8
		c1.6,2.7,2.2,4.8,1.6,6.2c-0.3,0.9-1.5,1.7-3.5,2.5c-2.4,0.9-4.7,1-7.1,0.1c-2.5-1-4.2-2.6-5.3-5.1c-1.1-2.4-1.2-4.9-0.3-7.3
		c0.1-0.3,0.3-0.6,0.5-1c0.2-0.3,0.4-0.7,0.7-1.1l0.7-1.2L105.6,341c-0.2,2.4,0,5,0.6,7.6c0.8,3.3,2.2,6.3,4.1,8.8
		c2.5,3.2,5.7,5.5,9.6,7c4.7,1.8,9.2,2.1,13.4,0.8c3.2-1,6.2-3,8.9-5.8c1.8-1.9,3.4-4,4.6-6.3l1.7,0.7l9.2,0.3
		c0.2,1.3,0.5,2.2,0.7,2.7c0.4,1,1.2,1.6,2.3,2.1c1.1,0.4,2.2,0.3,3.4-0.3l2-1.2c0.7,1.8,1.4,3.1,2.1,3.7c0.7,0.5,2.5,1.4,5.5,2.5
		l0.6-1.7c19.2,3.4,39.5,8.2,58.3,9.5c2.3,0.2,3.9-0.1,4.8-0.8c0.2-0.2,0.5-0.5,0.9-1.1c0.4-0.5,0.9-1.2,1.5-2.1
		c1.4,2.4,2.6,3.8,3.5,4.2c0.7,0.3,2.2,0.6,4.7,0.8l0,0.5c2.2,0,4,0.1,5.6,0.2c1.6,0.1,2.9,0.4,4.1,0.7c2.3,0.6,4.1,1.7,5.6,3.2
		c1.1,1.1,2.4,3.1,3.7,5.8l8.5-10c5.7,0,18.5,1.4,22.6-2.9c0.2-0.2,0.4-0.6,0.7-1.2c0.3-0.5,0.7-1.4,1.1-2.4
		c1.8,2.1,3.2,3.3,4.2,3.5c9.9,2.5,33.9-5,45-7.5l2.1-24.7l-1.5,0.3L348.5,338.5z M272.5,361.5c-0.1,0.6-0.1,1.2-0.2,1.8
		c-0.2,1.2-0.5,2.2-0.8,3c0.1-0.6,0.2-1,0.2-1.2l0-1.5l0-0.4c0-1.9-0.7-3.7-2-5.6c-0.9-1.1-2.1-2.3-3.5-3.5
		c-1.4-1.2-2.1-1.9-2.1-2.1c0-0.5,0.3-0.8,0.9-1c0.6-0.2,1.3-0.3,2-0.3c1.7,0,3,0.6,3.9,1.9c1.2,1.6,1.8,3.9,1.8,7.1
		C272.6,360.3,272.6,360.9,272.5,361.5 M333.6,341.6l-11.3,2.2c0.2-0.9,0.4-1.7,0.8-2.2c0.7-1,1.7-1.6,3.1-1.9
		c0.9-0.2,2.1-0.1,3.5,0.4l3.4,1.3L333.6,341.6L333.6,341.6z M329.3,376.5l0,0.2l5.8,3.8l3.9-6.2l-6.1-3.8L329.3,376.5z"/>
	<path class="st1" d="M265.5,129.3c96.2,0,174.1,36.8,174.1,82.3s-78,82.3-174.1,82.3c-96.2,0-174.1-36.8-174.1-82.3
		S169.3,129.3,265.5,129.3"/>
	<ellipse class="st2" cx="265.5" cy="211.6" rx="174.1" ry="82.3"/>
	<path class="st3" d="M195.7,95.7l-0.5-4.7c-3.6,1.3-5.3,2.9-5.1,4.9c0.2,1.8,0.9,2.6,2.1,2.4c0.6-0.1,1.3-0.4,2-1
		C195,96.8,195.5,96.3,195.7,95.7 M213.3,105.8l-15.3,2.1l-0.3-3c-1.4,1.2-2.8,2.4-4.2,3.6c-1.3,1-3.1,1.6-5.3,1.9
		c-3.5,0.5-6.3-0.3-8.5-2.4c-2.2-2.1-3.5-5-3.9-8.9c-0.6-5.4,2.2-9.7,8.3-12.8l9.9-5.1l-0.2-2c-0.3-2.4-1.1-3.6-2.4-3.4
		c-2.1,0.3-2.9,2.3-2.5,6.1L176,83.7l-1.1-10.3c3.8-4,9.4-6.5,16.7-7.5c4.1-0.6,7.6-0.1,10.6,1.4c3.6,1.8,5.6,4.8,6.1,9l1.8,16.5
		c0.1,1.3,0.9,2.6,2.3,3.9L213.3,105.8z M239.7,92.1l-0.6-18.6c-0.6-0.4-1.3-0.6-2.3-0.6c-1.9,0.1-2.8,1.5-2.7,4.3l0.3,9.4
		c0.1,4.3,1.1,6.3,2.8,6.3C237.6,92.9,238.5,92.6,239.7,92.1 M255,70.7c-1.3,1.1-1.9,2.6-1.8,4.8l0.9,29.2
		c0.2,6.2-1.2,10.5-4.1,12.9c-2.4,2-6.5,3.1-12.3,3.3c-2.5,0.1-5.3-0.3-8.4-1.1c-3.6-0.9-6.1-2.1-7.6-3.7l-0.3-9.4l13.6-0.5
		c0,0.4,0,0.7,0,0.7c0.1,2.3,0.9,3.5,2.5,3.4c1.8-0.1,2.7-1.2,2.6-3.5l-0.2-5.4c-2.5,2.2-5.2,3.4-8.4,3.5c-3.5,0.1-6.2-0.8-8.3-2.8
		c-2.1-2-3.1-5-3.3-8.8l-0.5-16.6c-0.2-4.9,0.4-8.6,1.7-10.9c1.6-2.9,4.5-4.5,8.7-4.6c3.7-0.1,6.7,1,8.9,3.4l-0.1-2.7l16-0.6
		L255,70.7z M280.9,102.7H263v-9.2c0.9-0.5,1.4-1.5,1.4-2.9V75.2c0-1.7-0.5-3-1.4-4V61.1h15.9v27.2c0,3.1,0.7,4.7,2,4.7V102.7z
		 M278.9,51.7c0,2.4-0.9,4.1-2.6,5.4c-1.4,1-3.3,1.5-5.5,1.5c-1.9,0-3.6-0.6-5-1.8c-1.6-1.3-2.4-3-2.4-5c0-2.2,0.9-3.9,2.6-5.1
		c1.5-1.1,3.3-1.6,5.3-1.6c2.1,0,3.8,0.5,5.3,1.6C278.1,47.8,278.9,49.5,278.9,51.7 M343.1,107.6l-15.2-1.5c0-5.8,0-9.6,0.1-11.4
		l1.2-15.2c0.2-2.9-0.6-4.4-2.5-4.6c-0.7-0.1-1.4,0-2.1,0.3l-1.3,16.6c-0.2,2.1,0.3,3.7,1.4,4.9l-0.7,9.2l-15.2-1.5
		c-0.2-4.3-0.1-8.2,0.1-11.4l1.1-14.6c0.3-3.3-0.6-5.1-2.5-5.3c-0.7-0.1-1.4,0-2.1,0.3l-1.3,16.6c-0.2,2.7,0.3,4.3,1.4,4.9l-0.7,9.2
		l-17.8-1.7l0.7-9.2c1.4-1,2.2-2.5,2.3-4.5l0.9-12c0.3-3.2-0.4-5.2-2-5.8l1.2-10l16,1.6l-0.2,2.2c2.3-1.9,5.3-2.7,8.8-2.3
		c2.3,0.2,3.8,0.5,4.7,1c1.3,0.6,2.5,1.8,3.6,3.5c3.4-2.1,6.9-3,10.5-2.7c7.1,0.7,10.4,4.7,9.8,12.1l-1.3,16.6
		c-0.3,3.3,0.2,5.2,1.5,5.9L343.1,107.6z M366.6,111.7l-17.7-2.8l1.2-9.1c1-0.4,1.5-1.2,1.7-2.6l1.9-15.3c0.2-1.7-0.1-3.1-0.8-4.2
		l1.3-10l15.7,2.5l-3.4,26.9c-0.4,3.1,0.1,4.8,1.4,5L366.6,111.7z M371,60.8c-0.3,2.3-1.4,4-3.2,4.9c-1.5,0.8-3.4,1-5.6,0.6
		c-1.9-0.3-3.5-1.2-4.8-2.6c-1.4-1.6-2-3.4-1.8-5.4c0.3-2.2,1.3-3.7,3.2-4.7c1.6-0.8,3.4-1.1,5.5-0.8c2.1,0.3,3.7,1.1,5,2.4
		C370.7,56.9,371.3,58.7,371,60.8 M407.1,120.5l-16-3.5c0.5-3,0.8-5,0.8-5.8c-0.1-1.7-0.6-3.6-1.7-5.5c-1.5,1.4-2.6,2.9-3.1,4.5
		c-0.2,0.6-0.6,2.5-1.1,5.7l-13.2-2.8l1.6-9.1c1.5-0.3,5.2-3.6,11.1-9.9c-1.9-4.4-2.9-6.6-2.9-6.6c-1.4-2.8-2.9-4.6-4.4-5.4l1.7-9.9
		l16,3.5c-0.5,3-0.8,4.7-0.8,5.1c-0.1,1.7,0.2,3.5,0.9,5.1c1.5-1.2,2.5-2.6,3-4.1c0.2-0.5,0.5-2.2,1.1-5.2l14.2,3.1l-1.6,9.2
		c-1.7,1-3.5,2.3-5.5,4.1c-1.7,1.6-3.4,3.1-5.1,4.7c0.9,2.3,1.9,4.6,2.8,7c1.7,3.9,3,6.1,3.9,6.7L407.1,120.5z M171.8,112l-15,3.2
		c-1.5-5.5-2.4-9.2-2.7-11l-2.6-15c-0.5-2.9-1.7-4.1-3.6-3.7c-0.6,0.1-1.3,0.5-2,0.9l2.9,16.3c0.4,2,1.2,3.4,2.6,4.2l1.6,9.1
		l-15,3.2c-1.2-4.1-2.1-7.8-2.7-11l-2.5-14.3c-0.6-3.3-1.8-4.7-3.7-4.3c-0.6,0.1-1.3,0.5-2,0.9l2.9,16.3c0.5,2.6,1.3,4,2.6,4.2
		l1.6,9.1l-17.5,3.8l-1.6-9.1c1.1-1.4,1.5-3.1,1.1-5l-2.1-11.9c-0.6-3.2-1.7-4.8-3.3-4.9l-1.3-10l15.7-3.4l0.4,2.1
		c1.8-2.5,4.4-4.2,7.9-5c2.2-0.5,3.8-0.7,4.8-0.5c1.4,0.2,2.9,1,4.3,2.3c2.7-3.1,5.9-5,9.5-5.8c7-1.5,11.2,1.4,12.4,8.6l2.9,16.3
		c0.6,3.2,1.5,5,2.9,5.2L171.8,112z"/>
	<path class="st4" d="M247.7,380.1C247.7,380.1,247.6,380,247.7,380.1l-3.8-4.4l-4.5,4.2c0,0-0.1,0-0.1,0h0c0,0-0.1,0-0.1,0l-5-5.9
		c0-0.1,0-0.1,0-0.2l5.6-5c0,0,0.1,0,0.1,0h0c0,0,0.1,0,0.1,0.1l3.7,4.7l4.6-4.1c0,0,0.1,0,0.1,0h0c0,0,0.1,0,0.1,0.1l4.8,5.7
		c0,0.1,0,0.1,0,0.2l-5.5,4.8C247.8,380.1,247.8,380.1,247.7,380.1L247.7,380.1z M302.6,379.2C302.6,379.2,302.5,379.2,302.6,379.2
		l-6-4.9c-0.1,0-0.1-0.1,0-0.2l4.7-6c0,0,0.1,0,0.1-0.1h0c0,0,0.1,0,0.1,0l4.4,3.9l3.8-4.9c0,0,0.1,0,0.1-0.1c0,0,0,0,0,0
		c0,0,0.1,0,0.1,0l5.6,4.8c0.1,0,0.1,0.1,0,0.2l-4.6,5.7c0,0-0.1,0-0.1,0.1c0,0,0,0,0,0c0,0-0.1,0-0.1,0l-4.3-3.7l-3.7,4.9
		C302.7,379.2,302.6,379.2,302.6,379.2C302.6,379.2,302.6,379.2,302.6,379.2 M270.7,377.4c0,0-0.1,0-0.1-0.1
		c-1.4-2.8-2.6-4.7-3.7-5.7c-1.5-1.5-3.3-2.5-5.5-3.1c-1.2-0.3-2.6-0.6-4.1-0.7c-1.4-0.2-3.1-0.2-5.1-0.2l-0.5,0c0,0-0.1,0-0.1,0
		s0-0.1,0-0.1l0-0.4c-2.5-0.2-4-0.5-4.7-0.8c-0.9-0.4-2-1.7-3.5-4.1c-0.5,0.8-1,1.5-1.4,2c-0.4,0.5-0.7,0.9-0.9,1.1
		c-0.8,0.6-2,0.9-3.8,0.9c-0.4,0-0.7,0-1.2,0c-13.7-0.9-28.3-3.7-42.4-6.5c-5.2-1-10.6-2.1-15.8-3l-0.6,1.6c0,0,0,0.1-0.1,0.1
		c0,0,0,0-0.1,0c0,0,0,0-0.1,0c-3-1.2-4.9-2-5.6-2.6c-0.7-0.7-1.5-1.9-2.1-3.6l-1.9,1.1c-0.7,0.4-1.4,0.6-2.1,0.6
		c-0.5,0-1-0.1-1.4-0.3c-1.1-0.4-1.9-1.2-2.4-2.1c-0.3-0.5-0.5-1.4-0.7-2.7l-9.1-0.3l-1.6-0.6c-1.2,2.2-2.7,4.3-4.6,6.2
		c-2.7,2.9-5.7,4.8-8.9,5.8c-1.8,0.6-3.6,0.8-5.5,0.8c-2.6,0-5.3-0.5-8-1.6c-3.9-1.5-7.1-3.9-9.6-7.1c-1.9-2.5-3.3-5.5-4.1-8.9
		c-0.6-2.7-0.8-5.2-0.6-7.7c0,0,0-0.1,0.1-0.1l23.7-13.9c0,0,0,0,0.1,0c0,0,0.1,0,0.1,0c0,0,0.1,0.1,0,0.2l-1,1.6
		c-0.2,0.3-0.3,0.5-0.4,0.7c-0.2,0.3-0.3,0.6-0.4,0.9c-0.9,2.4-0.8,4.8,0.3,7.2c1,2.4,2.8,4.1,5.2,5c1.1,0.4,2.3,0.7,3.4,0.7
		c1.2,0,2.4-0.2,3.6-0.7c2-0.7,3.1-1.5,3.4-2.4c0.5-1.4,0-3.4-1.6-6.1c-1.1-1.9-1.7-3.2-1.9-3.9c0-0.1,0-0.1,0.1-0.2l9.8-7.2
		c0,0,0.1,0,0.1,0c0,0,0,0,0,0c0,0,0.1,0.1,0.1,0.1l1.8,6.9l5.2,2c1.6,0.6,2.9,0.9,3.9,0.9c0.9,0,1.6-0.3,2-0.8
		c0.8-0.9,1.7-1.3,2.7-1.3c0.3,0,0.7,0,1,0.1c0.1,0,0.1,0.1,0.1,0.1c0.1,1,0.4,1.9,0.6,2.7l0.1,0.2c0.1,0.3,0.2,0.5,0.3,0.7
		c0.1,0.2,0.4,0.7,0.8,1.6c1.9-0.4,3.3-1.1,4.1-2c0.4-0.4,0.8-0.7,1.3-0.7c0.2,0,0.4,0,0.7,0.1c0.2,0.1,0.4,0.4,0.4,1.1
		c0.1,1.9,0.2,2.3,0.3,2.4c0.3,0.5,0.6,0.9,1,1.3l40.8,7.2l-0.8-2.4c-0.2-0.5-0.9-1.2-2.2-2l-31.6-5.6c0,0-0.1,0-0.1-0.1l-0.2-0.4
		c0.7-4.4,3.3-8.3,7.6-11.6c3.5-2.7,7.9-4.9,13-6.4c3.4-1,6.3-1.5,8.6-1.5c0.8,0,1.5,0.1,2.2,0.2c1.3,0.2,2.1,1.1,2.2,2.5
		c0,0.6,0,1.5-0.2,2.5c-0.1,1.1-0.3,2.5-0.6,4.6l-1,6.3c0,0.1-0.1,0.1-0.1,0.1c0,0,0,0,0,0c-0.1,0-0.1,0-0.1-0.1
		c-0.8-1.6-1.4-2.7-1.8-3.2c-0.9-1-2.2-1.7-4.1-2c-0.7-0.1-1.4-0.2-2.3-0.2l-0.3,0c-0.7,0-1.5,0.1-2.3,0.2c-0.7,0.1-1.4,0.2-2.3,0.4
		c-0.6,0.1-1.4,0.3-2.6,0.7l-4.7,1.5l24.5,4.3c3.7,0.7,6.4,2.7,8,6c1.3,2.6,1.7,5.4,1.3,8.3c1.5,0.3,2.4,0.3,3.6,0.3
		c0.5,0,1.1,0,1.8,0.1c0.4,0,0.8,0,1.2,0c2.3,0,4-0.5,4.8-1.6c0.4-0.5,1.1-1.8,2.1-3.9c0,0,0.1-0.1,0.1-0.1c0,0,1.5,0.3,1.5,0.3
		c0.1,0,0.1,0,0.1,0.1c0.8,2.9,1.6,4.6,2.6,5.1c1.4,0.9,5.8,1.5,12.5,1.5l0.8,0l3.5-3.6c0.7-0.6,1.3-1.1,1.9-1.5
		c0.6-0.4,1.2-0.8,1.8-1.1c1.3-0.7,2.9-1,4.7-1c2.1,0,3.7,0.5,4.9,1.4c1.4,1.1,2.4,3,3,5.8l8.1,0l0-0.3c0-0.1,0-0.1,0.1-0.2l3-0.3
		c3-0.3,4.9-1.2,5.7-2.6c0.3-0.6,0.8-2,1.5-4.2c0-0.1,0.1-0.1,0.1-0.1c0,0,1.5,0,1.5,0c0.1,0,0.1,0,0.1,0.1c1.2,2.7,2.4,4.2,3.4,4.6
		c0.9,0.4,2.2,0.6,4,0.6c4.7,0,11.2-1.3,14.9-2.1l-0.2-0.4l-8.6-6c-0.1,0-0.1-0.1,0-0.2c0.6-1.3,1.1-2.3,1.5-3
		c0.4-0.7,0.8-1.3,1.1-1.7c1.4-1.9,3.3-3.2,5.6-3.7c0.6-0.1,1.1-0.2,1.8-0.2c2.1,0,4.5,0.7,7.2,2.1l9.4,5.2c2.7,1.3,5.2,1.9,7.5,1.9
		c0.8,0,1.7-0.1,2.4-0.3l1.4-0.5l1.5-0.3c0,0,0,0,0,0c0,0,0.1,0,0.1,0c0,0,0.1,0.1,0,0.1l-2.1,24.7c0,0.1,0,0.1-0.1,0.1
		c-2.3,0.5-5.2,1.3-8.4,2.1c-9.7,2.5-23,5.9-31.6,5.9c-2,0-3.6-0.2-5-0.5c-1-0.2-2.3-1.3-4.1-3.4c-0.4,0.9-0.7,1.6-1,2.2
		c-0.3,0.6-0.5,1-0.7,1.2c-2.7,2.8-9.1,3.1-13.6,3.1c-1.9,0-3.7-0.1-5.3-0.1c-1.3,0-2.5-0.1-3.5-0.1h-0.1l-8.4,10
		C270.8,377.4,270.8,377.4,270.7,377.4C270.7,377.4,270.7,377.4,270.7,377.4 M270.5,345.2c-0.7,0-1.3,0.1-1.9,0.3
		c-0.5,0.2-0.8,0.4-0.8,0.9c0,0.1,0.2,0.4,2.1,2c1.4,1.2,2.6,2.4,3.5,3.5c1.4,1.9,2,3.8,2,5.7l0,1.6c0.1-0.5,0.3-1,0.3-1.6
		c0.1-0.5,0.1-1,0.2-1.4l0-0.4c0.1-0.5,0.1-1,0.1-1.7c0-3.1-0.6-5.5-1.8-7.1C273.4,345.8,272.2,345.2,270.5,345.2l0-0.1L270.5,345.2
		z M330.7,334.1c-0.3,0-0.6,0-0.9,0.1c-1.3,0.3-2.3,0.9-3,1.9c-0.3,0.5-0.5,1.1-0.7,2l10.6-2.1l0,0l-3.4-1.3
		C332.2,334.3,331.4,334.1,330.7,334.1 M338.7,374.9C338.7,374.9,338.6,374.9,338.7,374.9l-5.9-3.8c0,0-0.1-0.1-0.1-0.1l0-0.2
		c0,0,0-0.1,0-0.1l3.6-6c0,0,0.1-0.1,0.1-0.1c0,0,0,0,0,0c0,0,0.1,0,0.1,0l6.1,3.8c0.1,0,0.1,0.1,0,0.2l-3.9,6.2
		C338.8,374.9,338.8,374.9,338.7,374.9C338.7,374.9,338.7,374.9,338.7,374.9 M369.8,350.4c-2.2,0-3.9-0.8-5-2.3
		c-0.9-1.3-2.2-4.7-3.8-10.1l-11.8-34.8c0,0,0-0.1,0-0.1l9.5-10.1c0,0,0.1,0,0.1,0c0,0,0,0,0,0c0,0,0.1,0.1,0.1,0.1l9.4,33.8l8-2.6
		l3.2-1.5c0.5-0.2,1.2-1.2,2-3c0.5-1.2,1-2.2,1.5-3.2c0.4-0.8,0.8-1.5,1.2-2.1c1.4-2.1,3-3.5,4.9-4.4c0.8-0.4,1.6-0.6,2.3-0.6
		c1.1,0,2.1,0.4,3,1.1c0.6,0.5,2.1,2.3,4.2,5c2.3,2.8,4.3,4.8,6.2,6.1c0.6,0.4,1.4,0.7,2.2,0.9c0.3,0.1,0.9,0.2,2.5,0.4
		c0,0,0.1,0,0.1,0.1c0,0,0,0.1,0,0.1l-8,25.6c0,0,0,0.1-0.1,0.1c0,0,0,0,0,0c0,0-0.1,0-0.1,0c-2.8-1.7-5.1-2.9-6.6-3.4
		c-1-0.3-2.1-0.5-3.2-0.5c-0.9,0-1.8,0.1-2.8,0.3c-2.7,0.6-5,1.5-7.3,2.3c-3.3,1.2-6.4,2.3-10.7,2.8
		C370.6,350.4,370.2,350.4,369.8,350.4 M386.8,322.1c1.8,0.2,2.8,0.4,3.4,0.5c1.6,0.4,2.8,0.9,3.7,1.6c1.2,0.9,2.2,2.2,2.9,3.8
		c0.3,0.6,0.5,1.3,0.7,2.2l0,0.3c0-1.1-0.1-1.9-0.1-2.5c-0.2-1.8-0.6-3.3-1.1-4.6c-0.9-2.1-2.1-3.5-3.5-4.1
		c-0.6-0.3-1.2-0.4-1.8-0.4c-0.6,0-1.3,0.2-1.9,0.5c-0.5,0.2-0.9,0.6-1.3,1.1c-0.3,0.3-0.4,0.5-0.6,0.7
		C387.1,321.6,386.9,321.9,386.8,322.1"/>
	<path class="st5" d="M358.8,293.1l9.4,34l8.2-2.6l3.3-1.5c0.5-0.2,1.2-1.3,2.1-3.1c0.6-1.3,1.1-2.3,1.5-3.2
		c0.4-0.8,0.8-1.5,1.2-2.1c1.4-2.1,3-3.5,4.8-4.4c0.8-0.4,1.5-0.5,2.3-0.5c1,0,2,0.4,2.9,1.1c0.6,0.5,2,2.1,4.2,4.9
		c2.2,2.8,4.3,4.8,6.3,6.1c0.6,0.4,1.4,0.7,2.2,0.9c0.4,0.1,1.2,0.3,2.5,0.4l-8,25.6c-2.9-1.8-5.1-2.9-6.6-3.4
		c-1-0.3-2.1-0.5-3.2-0.5c-0.9,0-1.8,0.1-2.8,0.3c-6.6,1.5-10.6,4.2-18,5.1c-0.4,0-0.8,0.1-1.2,0.1c-2.2,0-3.8-0.7-4.9-2.2
		c-0.9-1.3-2.1-4.6-3.8-10l-11.8-34.8L358.8,293.1 M397.7,332.7c0-2.2-0.1-3.7-0.2-4.6c-0.2-1.8-0.6-3.3-1.1-4.6
		c-0.9-2.1-2.1-3.5-3.5-4.2c-0.6-0.3-1.2-0.4-1.8-0.4c-0.7,0-1.3,0.2-2,0.5c-0.5,0.2-1,0.6-1.4,1.2c-0.2,0.3-0.4,0.5-0.6,0.7
		c-0.2,0.4-0.4,0.8-0.5,1c1.8,0.2,3,0.4,3.6,0.5c1.5,0.4,2.7,0.9,3.6,1.6c1.2,0.9,2.2,2.2,2.9,3.8c0.3,0.6,0.5,1.3,0.6,2.2
		L397.7,332.7 M215.1,309.9c0.8,0,1.5,0.1,2.2,0.2c1.3,0.2,2,1,2.1,2.4c0,0.5,0,1.3-0.2,2.5c-0.1,1.1-0.3,2.7-0.6,4.6l-1,6.3
		c-0.8-1.6-1.4-2.7-1.9-3.2c-0.9-1.1-2.3-1.8-4.1-2.1c-0.7-0.1-1.5-0.2-2.4-0.2c-0.1,0-0.2,0-0.3,0c-0.8,0-1.5,0.1-2.3,0.2
		c-0.7,0.1-1.5,0.2-2.3,0.4c-0.6,0.1-1.5,0.4-2.7,0.7l-4.9,1.5l0,0.2l24.7,4.4c3.7,0.7,6.3,2.6,7.9,5.9c1.3,2.7,1.7,5.5,1.2,8.3
		c2.2,0.4,3.2,0.3,5.5,0.5c0.4,0,0.8,0,1.2,0c2.4,0,4-0.5,4.9-1.6c0.4-0.6,1.1-1.9,2.1-3.9l1.5,0.3c0.8,2.9,1.7,4.7,2.6,5.2
		c2,1.3,9.1,1.5,12.6,1.5c0.3,0,0.6,0,0.8,0l3.6-3.6c0.6-0.5,1.2-1,1.9-1.5c0.7-0.5,1.3-0.8,1.8-1.1c1.3-0.7,2.9-1,4.6-1h0.1
		c2,0,3.6,0.4,4.8,1.4c1.4,1.1,2.4,3,3,5.8l8.4,0l-0.1-0.5l3-0.3c3.1-0.4,5-1.2,5.8-2.7c0.3-0.6,0.8-2,1.5-4.2l1.5,0
		c1.3,2.7,2.4,4.3,3.5,4.7c1,0.4,2.4,0.6,4.1,0.6c5,0,12.1-1.5,15.1-2.2l-0.2-0.6l-8.6-6.1c0.6-1.3,1.1-2.3,1.5-3
		c0.4-0.7,0.8-1.3,1.1-1.6c1.4-1.9,3.3-3.1,5.5-3.6c0.5-0.1,1.1-0.2,1.7-0.2c2,0,4.4,0.7,7.2,2.1l9.4,5.2c2.8,1.3,5.3,1.9,7.6,1.9
		c0.9,0,1.7-0.1,2.5-0.3l1.4-0.5l1.5-0.3l-2.1,24.7c-9.5,2.1-28.6,8-40,8c-1.9,0-3.5-0.2-4.9-0.5c-1-0.2-2.4-1.4-4.2-3.5
		c-0.4,1-0.8,1.8-1.1,2.4c-0.3,0.6-0.5,1-0.7,1.2c-2.5,2.6-8.2,3.1-13.5,3.1c-3.4,0-6.6-0.2-8.9-0.2h-0.2l-8.5,10
		c-1.3-2.7-2.6-4.6-3.7-5.8c-1.5-1.5-3.3-2.5-5.6-3.2c-1.2-0.3-2.5-0.6-4.1-0.7c-1.4-0.2-3.1-0.2-5.1-0.2c-0.2,0-0.3,0-0.5,0l0-0.5
		c-2.5-0.2-4.1-0.5-4.7-0.8c-0.9-0.4-2.1-1.8-3.5-4.2c-0.6,0.9-1.1,1.7-1.5,2.1c-0.4,0.5-0.7,0.9-0.9,1.1c-0.8,0.6-2,0.9-3.7,0.9
		c-0.4,0-0.7,0-1.1,0c-18.8-1.3-39.1-6.1-58.3-9.5l-0.6,1.7c-3.1-1.2-4.9-2-5.5-2.5c-0.7-0.6-1.4-1.9-2.1-3.7l-2,1.2
		c-0.7,0.4-1.3,0.5-2,0.5c-0.5,0-0.9-0.1-1.4-0.3c-1.1-0.4-1.9-1.1-2.3-2.1c-0.3-0.5-0.5-1.4-0.7-2.7l-9.2-0.3l-1.7-0.7
		c-1.2,2.3-2.8,4.4-4.6,6.3c-2.7,2.8-5.7,4.8-8.9,5.8c-1.8,0.6-3.6,0.8-5.4,0.8c-2.6,0-5.2-0.5-8-1.6c-3.9-1.5-7.1-3.9-9.6-7
		c-1.9-2.5-3.3-5.5-4.1-8.8c-0.6-2.7-0.8-5.2-0.6-7.6l23.7-13.9l-0.7,1.2c-0.3,0.4-0.5,0.8-0.7,1.1c-0.2,0.3-0.3,0.6-0.5,1
		c-0.9,2.4-0.8,4.9,0.3,7.3c1.1,2.5,2.8,4.1,5.3,5.1c1.1,0.4,2.3,0.7,3.4,0.7c1.2,0,2.4-0.2,3.6-0.7c2-0.7,3.1-1.5,3.5-2.5
		c0.5-1.4,0-3.5-1.6-6.2c-1.1-1.9-1.7-3.1-1.9-3.8l9.8-7.2l1.9,6.9l5.2,2c1.6,0.6,3,0.9,4,0.9c1,0,1.7-0.3,2.1-0.8
		c0.7-0.8,1.6-1.3,2.6-1.3c0.3,0,0.6,0,1,0.1c0.1,1,0.3,1.9,0.6,2.7c0.1,0.4,0.2,0.7,0.3,0.9c0.1,0.3,0.4,0.8,0.9,1.7
		c2-0.5,3.5-1.1,4.3-2c0.4-0.4,0.8-0.6,1.2-0.6c0.2,0,0.4,0,0.6,0.1c0.2,0.1,0.3,0.4,0.3,0.9c0.1,1.4,0.2,2.2,0.3,2.5
		c0.3,0.5,0.6,0.9,1,1.3l41.1,7.3l-0.9-2.7c-0.2-0.6-1-1.2-2.2-2.1l-31.7-5.6l-0.2-0.4c0.7-4.3,3.2-8.1,7.6-11.5
		c3.5-2.7,7.9-4.9,13-6.4C209.9,310.4,212.8,309.9,215.1,309.9 M325.9,338.2l11.3-2.2l0.1,0l-0.6-0.2l-3.4-1.3
		c-1-0.3-1.9-0.5-2.6-0.5c-0.3,0-0.6,0-0.9,0.1c-1.4,0.3-2.4,1-3.1,1.9C326.3,336.5,326.1,337.3,325.9,338.2 M275.1,360.6
		c0.4-0.8,0.6-1.8,0.8-3c0.1-0.6,0.2-1.2,0.2-1.8c0.1-0.6,0.1-1.1,0.1-1.7c0-3.2-0.6-5.6-1.8-7.1c-0.9-1.2-2.2-1.9-3.8-1.9
		c0,0,0,0,0,0c-0.7,0-1.4,0.1-2,0.3c-0.6,0.2-0.9,0.5-0.9,1c0,0.2,0.7,0.9,2.1,2.1c1.4,1.2,2.6,2.4,3.5,3.5c1.3,1.9,2,3.7,2,5.6
		l0,0.4l0,1.5C275.3,359.6,275.2,360.1,275.1,360.6 M336.5,364.8l6.1,3.8l-3.9,6.2l-5.8-3.8l0-0.2L336.5,364.8 M309.8,367.3l5.6,4.8
		l-4.6,5.7l-4.5-3.7l-3.8,5.1l-5.9-4.9l4.7-6l4.5,4L309.8,367.3 M240,368.8l3.8,4.8l4.7-4.2l4.8,5.7l-5.5,4.8l-3.8-4.5l-4.6,4.3
		l-5-5.9L240,368.8 M358.8,292.8c-0.1,0-0.2,0-0.2,0.1l-9.5,10.1c-0.1,0.1-0.1,0.2-0.1,0.3l11.8,34.8c1.6,5.4,2.9,8.8,3.8,10.1
		c1.1,1.6,2.9,2.4,5.1,2.4c0.4,0,0.8,0,1.2-0.1c4.4-0.5,7.6-1.7,10.7-2.8c2.2-0.8,4.5-1.7,7.3-2.3c0.9-0.2,1.9-0.3,2.7-0.3
		c1.1,0,2.1,0.2,3.1,0.5c1.5,0.5,3.7,1.6,6.5,3.3c0,0,0.1,0,0.1,0c0,0,0.1,0,0.1,0c0.1,0,0.1-0.1,0.2-0.2l8-25.6c0-0.1,0-0.2,0-0.2
		c0-0.1-0.1-0.1-0.2-0.1c-1.5-0.2-2.2-0.3-2.4-0.4c-0.8-0.2-1.6-0.5-2.2-0.9c-1.9-1.2-4-3.2-6.2-6c-1.5-1.9-3.4-4.3-4.3-5
		c-1-0.8-2-1.1-3.1-1.1c-0.8,0-1.6,0.2-2.4,0.6c-1.9,0.9-3.5,2.4-4.9,4.5c-0.4,0.6-0.8,1.3-1.2,2.1c-0.5,1-1,2-1.5,3.2
		c-1.1,2.2-1.6,2.8-1.9,2.9l-3.3,1.5l-7.8,2.5l-9.3-33.7C359,292.9,359,292.8,358.8,292.8C358.8,292.8,358.8,292.8,358.8,292.8
		 M387,322c0.1-0.2,0.2-0.4,0.3-0.7c0.1-0.1,0.3-0.4,0.5-0.6c0.4-0.5,0.8-0.9,1.3-1.1c0.6-0.3,1.3-0.4,1.9-0.4
		c0.6,0,1.2,0.1,1.7,0.4c1.4,0.6,2.5,2,3.4,4c0.6,1.3,0.9,2.7,1.1,4.5c0,0.3,0.1,0.6,0.1,0.9c-0.1-0.4-0.2-0.7-0.4-1
		c-0.7-1.6-1.7-3-3-3.9c-0.9-0.7-2.1-1.2-3.7-1.6C389.7,322.3,388.7,322.2,387,322 M215.1,309.6c-2.3,0-5.3,0.5-8.7,1.6
		c-5.1,1.6-9.5,3.7-13.1,6.5c-4.4,3.4-7,7.3-7.7,11.6c0,0.1,0,0.1,0,0.2l0.2,0.4c0,0.1,0.1,0.1,0.2,0.2l31.6,5.6
		c1.2,0.8,1.9,1.5,2.1,1.9l0.7,2.2l-40.6-7.2c-0.3-0.4-0.7-0.8-0.9-1.2c0-0.1-0.2-0.4-0.3-2.3c0-0.4-0.1-1-0.5-1.2
		c-0.2-0.1-0.5-0.1-0.7-0.1c-0.5,0-1,0.2-1.4,0.7c-0.8,0.8-2.1,1.5-3.9,1.9c-0.4-0.7-0.7-1.2-0.8-1.5c-0.1-0.2-0.2-0.4-0.3-0.7
		l-0.1-0.2c-0.3-0.8-0.5-1.6-0.6-2.6c0-0.1-0.1-0.2-0.2-0.2c-0.4-0.1-0.7-0.1-1.1-0.1c-1.1,0-2,0.5-2.8,1.4c-0.4,0.5-1,0.7-1.9,0.7
		c-1,0-2.3-0.3-3.9-0.9l-5.1-2l-1.8-6.8c0-0.1-0.1-0.2-0.2-0.2c0,0-0.1,0-0.1,0c-0.1,0-0.1,0-0.2,0.1l-9.8,7.2
		c-0.1,0.1-0.1,0.2-0.1,0.3c0.2,0.7,0.8,1.9,1.9,3.9c1.6,2.7,2.1,4.7,1.6,6c-0.3,0.8-1.4,1.6-3.3,2.3c-1.2,0.5-2.4,0.7-3.5,0.7
		c-1.1,0-2.2-0.2-3.3-0.6c-2.4-0.9-4.1-2.6-5.1-4.9c-1-2.4-1.1-4.8-0.3-7.1c0.1-0.3,0.3-0.6,0.4-0.9c0.1-0.2,0.3-0.5,0.4-0.7
		l0.3-0.4l0.7-1.2c0.1-0.1,0.1-0.3,0-0.3c-0.1-0.1-0.1-0.1-0.2-0.1c0,0-0.1,0-0.1,0l-23.7,13.9c-0.1,0-0.1,0.1-0.1,0.2
		c-0.2,2.4,0,5,0.6,7.7c0.8,3.4,2.2,6.4,4.1,8.9c2.5,3.2,5.8,5.6,9.7,7.1c2.8,1.1,5.5,1.6,8.1,1.6c1.9,0,3.7-0.3,5.5-0.8
		c3.2-1,6.2-3,9-5.9c1.8-1.9,3.3-4,4.5-6.2l1.4,0.6c0,0,0.1,0,0.1,0l8.9,0.3c0.2,1.2,0.5,2.1,0.7,2.6c0.5,1,1.3,1.7,2.4,2.2
		c0.5,0.2,1,0.3,1.5,0.3c0.7,0,1.4-0.2,2.1-0.6l1.8-1.1c0.7,1.7,1.4,2.9,2.1,3.5c0.7,0.5,2.6,1.4,5.6,2.6c0,0,0.1,0,0.1,0
		c0,0,0.1,0,0.1,0c0.1,0,0.1-0.1,0.1-0.2l0.5-1.5c5.2,0.9,10.5,2,15.7,3c14.1,2.7,28.8,5.6,42.4,6.5c0.4,0,0.8,0,1.2,0
		c1.7,0,3-0.3,3.8-0.9c0.3-0.2,0.6-0.6,1-1.1c0.3-0.4,0.8-1.1,1.2-1.8c1.4,2.3,2.5,3.5,3.4,3.9c0.7,0.3,2.2,0.6,4.6,0.8l0,0.3
		c0,0.2,0.1,0.3,0.3,0.3h0h0.5c2,0,3.7,0.1,5.1,0.2c1.5,0.1,2.9,0.4,4.1,0.7c2.2,0.6,4,1.6,5.5,3.1c1.1,1.1,2.3,2.9,3.6,5.7
		c0,0.1,0.1,0.1,0.2,0.2c0,0,0,0,0,0c0.1,0,0.2,0,0.2-0.1l8.4-9.9h0.1c1,0,2.2,0,3.5,0.1c1.6,0.1,3.5,0.1,5.4,0.1
		c4.6,0,11-0.3,13.7-3.2c0.2-0.3,0.5-0.7,0.8-1.3c0.3-0.5,0.6-1.2,0.9-2c1.8,2,3.1,3,4,3.3c1.3,0.3,3,0.5,5,0.5
		c8.7,0,22-3.4,31.7-5.9c3.3-0.8,6.1-1.6,8.4-2.1c0.1,0,0.2-0.1,0.2-0.3l2.1-24.7c0-0.1,0-0.2-0.1-0.2c-0.1,0-0.1-0.1-0.2-0.1
		c0,0,0,0-0.1,0l-1.5,0.3l-1.4,0.5c-0.7,0.2-1.5,0.3-2.4,0.3c-2.2,0-4.7-0.6-7.4-1.9l-9.3-5.2c-2.8-1.4-5.2-2.1-7.3-2.1
		c-0.6,0-1.2,0.1-1.8,0.2c-2.3,0.5-4.2,1.8-5.7,3.7c-0.3,0.4-0.7,1-1.1,1.7c-0.4,0.7-0.9,1.7-1.5,3c-0.1,0.1,0,0.3,0.1,0.4l8.6,6
		l0.1,0.2c-3.7,0.8-10.1,2.1-14.7,2.1c-1.8,0-3.1-0.2-4-0.6c-1-0.4-2.1-1.9-3.3-4.5c0-0.1-0.1-0.2-0.3-0.2l-1.5,0h0
		c-0.1,0-0.2,0.1-0.3,0.2c-0.6,2.2-1.1,3.6-1.4,4.2c-0.7,1.3-2.6,2.2-5.6,2.5l-3,0.3c-0.2,0-0.3,0.2-0.2,0.3l0,0.2l-7.9,0
		c-0.6-2.7-1.6-4.7-3-5.8c-1.2-0.9-2.9-1.4-5-1.4H274c-1.8,0-3.4,0.4-4.7,1c-0.7,0.3-1.3,0.7-1.9,1.2c-0.6,0.4-1.3,0.9-1.9,1.5
		l-3.5,3.6l-0.7,0c-6.7,0-11.1-0.5-12.5-1.4c-0.9-0.5-1.8-2.2-2.5-5.1c0-0.1-0.1-0.2-0.2-0.2l-1.5-0.3c0,0,0,0-0.1,0
		c-0.1,0-0.2,0.1-0.3,0.2c-1,2-1.7,3.3-2.1,3.8c-0.8,1-2.4,1.5-4.7,1.5c-0.4,0-0.8,0-1.2,0c-0.7,0-1.3-0.1-1.8-0.1
		c-1.1-0.1-2.1-0.1-3.4-0.3c0.4-2.8,0-5.6-1.3-8.2c-1.6-3.3-4.4-5.4-8.1-6l-24-4.2l4.2-1.3c1.3-0.4,2.1-0.6,2.6-0.7
		c0.9-0.2,1.6-0.3,2.3-0.4c0.9-0.1,1.6-0.2,2.3-0.2c0.1,0,0.2,0,0.3,0c0.9,0,1.6,0.1,2.3,0.2c1.8,0.3,3.1,1,4,2
		c0.5,0.5,1.1,1.6,1.8,3.1c0,0.1,0.1,0.2,0.3,0.2c0,0,0,0,0,0c0.1,0,0.2-0.1,0.2-0.2l1-6.3c0.3-2.1,0.5-3.5,0.6-4.6
		c0.1-1,0.2-1.9,0.2-2.5c-0.2-1.5-1-2.4-2.4-2.6C216.7,309.6,215.9,309.6,215.1,309.6 M326.3,337.8c0.2-0.7,0.4-1.3,0.6-1.7
		c0.6-0.9,1.6-1.5,2.9-1.8c0.3-0.1,0.5-0.1,0.9-0.1c0.7,0,1.5,0.1,2.5,0.5l3,1.2L326.3,337.8z M275.5,358L275.5,358l0-0.4
		c0-1.9-0.7-3.8-2.1-5.8c-0.9-1.1-2.1-2.3-3.5-3.5c-1.8-1.5-2-1.8-2-1.9c0-0.2,0.1-0.5,0.7-0.7c0.6-0.2,1.3-0.3,1.9-0.3
		c1.6,0,2.8,0.6,3.7,1.7c1.1,1.5,1.7,3.9,1.7,7c0,0.6,0,1.2-0.1,1.7l0,0.4c-0.1,0.4-0.1,0.9-0.2,1.4
		C275.6,357.7,275.6,357.8,275.5,358 M336.5,364.5C336.5,364.5,336.4,364.5,336.5,364.5c-0.1,0-0.2,0.1-0.2,0.1l-3.6,6
		c0,0.1,0,0.1,0,0.2l0,0.2c0,0.1,0.1,0.1,0.1,0.2l5.8,3.8c0,0,0.1,0,0.2,0c0,0,0,0,0.1,0c0.1,0,0.1-0.1,0.2-0.1l3.9-6.2
		c0.1-0.1,0-0.3-0.1-0.4l-6.1-3.8C336.6,364.5,336.5,364.5,336.5,364.5 M309.8,367C309.8,367,309.8,367,309.8,367
		c-0.1,0-0.2,0-0.2,0.1l-3.7,4.7l-4.3-3.8c-0.1,0-0.1-0.1-0.2-0.1c0,0,0,0,0,0c-0.1,0-0.1,0-0.2,0.1l-4.7,6c-0.1,0.1-0.1,0.3,0,0.4
		l5.9,4.9c0.1,0,0.1,0.1,0.2,0.1c0,0,0,0,0,0c0.1,0,0.1,0,0.2-0.1l3.6-4.8l4.2,3.6c0.1,0,0.1,0.1,0.2,0.1c0,0,0,0,0,0
		c0.1,0,0.1,0,0.2-0.1l4.6-5.7c0.1-0.1,0.1-0.3,0-0.4l-5.7-4.8C309.9,367,309.9,367,309.8,367 M240,368.5c-0.1,0-0.1,0-0.2,0.1
		l-5.6,5c-0.1,0.1-0.1,0.3,0,0.4l5,5.9c0,0.1,0.1,0.1,0.2,0.1h0c0.1,0,0.1,0,0.2-0.1l4.4-4.1l3.6,4.3c0,0.1,0.1,0.1,0.2,0.1
		c0,0,0,0,0,0c0.1,0,0.1,0,0.2-0.1l5.5-4.8c0.1-0.1,0.1-0.3,0-0.4l-4.8-5.7c-0.1-0.1-0.1-0.1-0.2-0.1c0,0,0,0,0,0
		c-0.1,0-0.1,0-0.2,0.1l-4.4,4l-3.6-4.5C240.2,368.6,240.1,368.5,240,368.5C240,368.5,240,368.5,240,368.5"/>
	<path class="st6" d="M113.7,117.8C113.7,117.8,113.7,117.8,113.7,117.8c-0.1,0-0.1-0.1-0.1-0.1l-1.6-8.9c0,0,0-0.1,0-0.1
		c1.1-1.3,1.4-2.9,1.1-4.8L111,92.1c-0.5-3.1-1.6-4.6-3.2-4.7c-0.1,0-0.1-0.1-0.1-0.1l-1.3-9.8c0-0.1,0-0.1,0.1-0.2l15.7-3.3
		c0,0,0,0,0,0c0,0,0.1,0,0.1,0c0,0,0.1,0.1,0.1,0.1l0.3,1.8c1.8-2.4,4.4-3.9,7.8-4.7c1.7-0.4,3.1-0.6,4-0.6c0.3,0,0.5,0,0.8,0
		c1.4,0.2,2.8,0.9,4.3,2.2c2.7-3,5.9-4.9,9.4-5.7c1.2-0.3,2.4-0.4,3.4-0.4c5,0,8.1,3,9.2,9l2.8,16.1c0.6,3.1,1.5,4.8,2.8,5
		c0.1,0,0.1,0.1,0.1,0.1l1.6,8.9c0,0.1,0,0.1-0.1,0.2l-14.9,3.2c0,0,0,0,0,0c-0.1,0-0.1,0-0.1-0.1c-1.5-5.4-2.4-9.1-2.7-10.9
		l-2.6-14.8c-0.4-2.4-1.3-3.6-2.7-3.6c-0.2,0-0.4,0-0.6,0.1c-0.6,0.1-1.2,0.4-1.9,0.9l2.8,16c0.3,1.9,1.2,3.3,2.5,4.1
		c0,0,0.1,0.1,0.1,0.1l1.6,8.9c0,0.1,0,0.1-0.1,0.2l-14.9,3.2c0,0,0,0,0,0c-0.1,0-0.1,0-0.1-0.1c-1.2-4-2.1-7.7-2.7-10.9l-2.5-14.1
		c-0.5-2.8-1.5-4.2-2.9-4.2c-0.2,0-0.4,0-0.6,0.1c-0.6,0.1-1.2,0.4-1.9,0.9l2.8,16c0.4,2.5,1.3,3.9,2.5,4.1c0.1,0,0.1,0.1,0.1,0.1
		l1.6,8.9c0,0.1,0,0.1-0.1,0.2L113.7,117.8C113.7,117.8,113.7,117.8,113.7,117.8 M233.5,114.9c-2.3,0-4.8-0.4-7.7-1.1
		c-3.6-0.9-6.1-2.1-7.6-3.6c0,0,0-0.1,0-0.1l-0.3-9.3c0-0.1,0.1-0.1,0.1-0.1c0,0,13.5-0.5,13.5-0.5c0,0,0.1,0,0.1,0c0,0,0,0.1,0,0.1
		l0,0.7c0.1,2.2,0.8,3.2,2.3,3.2l0.1,0c1.7-0.1,2.5-1.1,2.5-3.3l-0.2-5c-2.4,2.1-5.2,3.2-8.2,3.3c-0.2,0-0.4,0-0.6,0
		c-3.2,0-5.8-1-7.7-2.8c-2.1-2-3.2-5-3.3-8.8L216,71.3c-0.2-4.9,0.4-8.5,1.7-10.8c1.6-2.9,4.6-4.5,8.8-4.6c0.2,0,0.4,0,0.6,0
		c3.3,0,6,1,8.1,3.1l-0.1-2.3c0-0.1,0.1-0.1,0.1-0.1c0,0,15.9-0.6,15.9-0.6c0,0,0.1,0,0.1,0c0,0,0,0.1,0,0.1l0.3,9.3
		c0,0,0,0.1-0.1,0.1c-1.2,1-1.8,2.6-1.8,4.6l0.9,28.8c0.2,6.1-1.2,10.4-4.2,12.9c-2.4,2-6.6,3.1-12.3,3.3
		C234,114.9,233.8,114.9,233.5,114.9 M233.4,67.6c-1.8,0.1-2.7,1.4-2.6,4.1l0.3,9.3c0.1,4,1,6,2.5,6c0.5,0,1.3-0.3,2.5-0.7
		l-0.6-18.2c-0.5-0.3-1.1-0.5-1.9-0.5L233.4,67.6z M403,114.5l-16-3.4c-0.1,0-0.1-0.1-0.1-0.2c0.5-3,0.8-4.9,0.8-5.7
		c-0.1-1.6-0.6-3.4-1.6-5.2c-1.4,1.3-2.4,2.8-2.9,4.3c-0.2,0.6-0.6,2.5-1.1,5.6c0,0,0,0.1-0.1,0.1c0,0-0.1,0-0.1,0c0,0,0,0,0,0
		l-13.1-2.8c-0.1,0-0.1-0.1-0.1-0.2l1.6-8.9c0-0.1,0.1-0.1,0.1-0.1c1.4-0.2,5.1-3.5,10.9-9.7c-2.2-5.1-2.8-6.3-2.9-6.4
		c-1.4-2.8-2.8-4.5-4.3-5.3c-0.1,0-0.1-0.1-0.1-0.2l1.7-9.7c0,0,0-0.1,0.1-0.1c0,0,0.1,0,0.1,0c0,0,0,0,0,0l16,3.4
		c0.1,0,0.1,0.1,0.1,0.2c-0.5,2.9-0.8,4.6-0.8,5c-0.1,1.6,0.2,3.3,0.8,4.8c1.4-1.1,2.3-2.5,2.8-3.9c0.2-0.5,0.5-2.2,1.1-5.1
		c0,0,0-0.1,0.1-0.1c0,0,0.1,0,0.1,0c0,0,0,0,0,0l14.2,3c0.1,0,0.1,0.1,0.1,0.2l-1.6,9.1c0,0,0,0.1-0.1,0.1c-1.6,0.9-3.5,2.3-5.4,4
		l-5,4.6c0.9,2.2,1.8,4.5,2.7,6.8c1.7,3.8,2.9,6,3.8,6.6c0,0,0.1,0.1,0.1,0.1l-1.6,8.9c0,0,0,0.1-0.1,0.1
		C403,114.5,403,114.5,403,114.5C403,114.5,403,114.5,403,114.5 M345,103.1c-0.1,0-0.1-0.1-0.1-0.2l1.2-9c0-0.1,0-0.1,0.1-0.1
		c0.9-0.3,1.4-1.1,1.6-2.5l1.9-15.1c0.2-1.6-0.1-3-0.8-4c0,0,0-0.1,0-0.1l1.3-9.8c0,0,0-0.1,0.1-0.1c0,0,0.1,0,0.1,0
		c0,0,15.7,2.4,15.7,2.4c0.1,0,0.1,0.1,0.1,0.2l-3.4,26.5c-0.4,3,0,4.5,1.2,4.7c0.1,0,0.1,0.1,0.1,0.2l-1.2,9.5c0,0,0,0.1-0.1,0.1
		c0,0-0.1,0-0.1,0C362.6,105.8,345,103.1,345,103.1 M183.1,104.7c-2.6,0-4.9-0.9-6.7-2.5c-2.2-2.1-3.5-5-3.9-8.9
		c-0.6-5.4,2.2-9.6,8.4-12.8l9.8-5l-0.2-1.9c-0.2-2.2-0.9-3.2-1.9-3.2c-0.1,0-0.2,0-0.2,0c-2,0.3-2.8,2.2-2.4,5.9
		c0,0.1,0,0.1-0.1,0.2c0,0-13,1.8-13,1.8c0,0-0.1,0-0.1,0c0,0,0-0.1-0.1-0.1l-1.1-10.2c0,0,0-0.1,0-0.1c3.8-4,9.4-6.5,16.7-7.5
		c1.1-0.1,2.2-0.2,3.2-0.2c2.8,0,5.3,0.6,7.4,1.6c3.6,1.8,5.7,4.8,6.1,9l1.8,16.3c0.1,1.3,0.9,2.5,2.2,3.8l1.1,9.1
		c0,0.1,0,0.1-0.1,0.2c0,0-15.3,2.1-15.3,2.1c0,0-0.1,0-0.1,0c0,0,0-0.1-0.1-0.1l-0.3-2.7l-3.9,3.4c-1.3,1-3.1,1.6-5.3,1.9
		C184.4,104.7,183.7,104.7,183.1,104.7 M191.8,85.5c-3.4,1.2-5,2.8-4.8,4.6c0.2,1.5,0.7,2.3,1.7,2.3c0.1,0,0.2,0,0.3,0
		c0.6-0.1,1.2-0.4,1.9-1c0.7-0.6,1.2-1.1,1.4-1.6L191.8,85.5z M324.1,100.3c-0.1,0-0.1-0.1-0.1-0.1c0-5.8,0-9.5,0.1-11.3l1.2-15
		c0.2-2.8-0.6-4.2-2.4-4.4c-0.1,0-0.2,0-0.4,0c-0.5,0-1,0.1-1.6,0.3L319.6,86c-0.2,2,0.3,3.6,1.4,4.7c0,0,0,0.1,0,0.1l-0.7,9.1
		c0,0,0,0.1-0.1,0.1c0,0-0.1,0-0.1,0c0,0-15.2-1.5-15.2-1.5c-0.1,0-0.1-0.1-0.1-0.1c-0.2-4.3-0.1-8.1,0.1-11.3l1.1-14.3
		c0.3-3.2-0.5-4.9-2.3-5.1c-0.1,0-0.3,0-0.4,0c-0.5,0-1,0.1-1.6,0.3l-1.3,16.2c-0.2,2.6,0.3,4.1,1.4,4.6c0.1,0,0.1,0.1,0.1,0.1
		l-0.7,9.1c0,0,0,0.1-0.1,0.1c0,0-0.1,0-0.1,0c0,0-17.7-1.7-17.7-1.7c-0.1,0-0.1-0.1-0.1-0.2l0.7-9.1c0,0,0-0.1,0.1-0.1
		c1.3-0.9,2.1-2.4,2.3-4.3l0.9-11.9c0.2-3.1-0.4-5-1.9-5.5c-0.1,0-0.1-0.1-0.1-0.2l1.2-9.8c0-0.1,0.1-0.1,0.1-0.1
		c0,0,15.9,1.5,15.9,1.5c0.1,0,0.1,0.1,0.1,0.2l-0.1,1.8c1.9-1.5,4.3-2.2,7-2.2c0.5,0,1.1,0,1.6,0.1c2.3,0.2,3.8,0.5,4.7,1
		c1.3,0.6,2.5,1.8,3.6,3.4c2.9-1.8,5.9-2.7,8.9-2.7c0.5,0,1,0,1.5,0.1c7.2,0.7,10.5,4.7,9.9,12.1l-1.3,16.3
		c-0.3,3.2,0.2,5.1,1.4,5.7c0.1,0,0.1,0.1,0.1,0.1l-0.7,9.1c0,0,0,0.1-0.1,0.1c0,0-0.1,0-0.1,0C339.2,101.8,324.1,100.3,324.1,100.3
		 M259.5,97c-0.1,0-0.1-0.1-0.1-0.1v-9.1c0-0.1,0-0.1,0.1-0.1c0.9-0.5,1.3-1.4,1.3-2.7V69.7c0-1.6-0.4-2.9-1.3-3.9c0,0,0-0.1,0-0.1
		v-9.9c0-0.1,0.1-0.1,0.1-0.1h15.8c0.1,0,0.1,0.1,0.1,0.1v26.8c0,3,0.6,4.5,1.8,4.5c0.1,0,0.1,0.1,0.1,0.1v9.6
		c0,0.1-0.1,0.1-0.1,0.1H259.5z M360.1,61.3c-0.6,0-1.3-0.1-2-0.2c-1.9-0.3-3.6-1.2-4.8-2.6c-1.5-1.6-2.1-3.4-1.8-5.4
		c0.3-2.2,1.4-3.8,3.3-4.7c1.2-0.6,2.5-0.9,3.9-0.9c0.5,0,1.1,0,1.7,0.1c2.1,0.3,3.8,1.1,5.1,2.4c1.4,1.5,2,3.3,1.7,5.5
		c-0.3,2.3-1.4,4-3.3,5C362.8,61.1,361.5,61.3,360.1,61.3 M267.3,53.4c-2,0-3.7-0.6-5.1-1.9c-1.6-1.3-2.5-3.1-2.5-5.1
		c0-2.2,0.9-3.9,2.6-5.2c1.5-1.1,3.3-1.6,5.4-1.6c2.1,0,3.9,0.5,5.3,1.6c1.6,1.2,2.4,3,2.4,5.2c0,2.4-0.9,4.2-2.6,5.4
		C271.4,52.9,269.5,53.4,267.3,53.4"/>
	<path class="st5" d="M267.7,39.9c2.1,0,3.8,0.5,5.2,1.6c1.6,1.2,2.4,2.9,2.4,5c0,2.3-0.9,4.1-2.6,5.3c-1.4,1-3.2,1.5-5.5,1.5
		c-1.9,0-3.6-0.6-5-1.8c-1.6-1.3-2.4-3-2.4-5c0-2.2,0.9-3.8,2.6-5C263.9,40.4,265.6,39.9,267.7,39.9 M358.7,47.7
		c0.5,0,1.1,0,1.7,0.1c2.1,0.3,3.7,1.1,5,2.4c1.4,1.4,2,3.2,1.7,5.4c-0.3,2.3-1.4,3.9-3.2,4.8c-1.1,0.5-2.3,0.8-3.7,0.8
		c-0.6,0-1.3-0.1-1.9-0.2c-1.9-0.3-3.5-1.2-4.7-2.6c-1.4-1.6-2-3.3-1.8-5.3c0.3-2.1,1.3-3.7,3.2-4.6C356,48,357.3,47.7,358.7,47.7
		 M286.7,55.4l15.9,1.5l-0.2,2.1c2-1.6,4.4-2.4,7.2-2.4c0.5,0,1,0,1.6,0.1c2.2,0.2,3.8,0.5,4.7,1c1.3,0.6,2.5,1.8,3.6,3.5
		c2.9-1.8,5.9-2.7,9-2.7c0.5,0,1,0,1.5,0.1c7.1,0.7,10.4,4.6,9.8,11.9l-1.3,16.3c-0.3,3.2,0.2,5.2,1.5,5.8l-0.7,9.1l-15.1-1.5
		c0-5.7,0-9.5,0.1-11.3l1.2-15c0.2-2.9-0.6-4.4-2.5-4.6c-0.1,0-0.3,0-0.4,0c-0.5,0-1.1,0.1-1.8,0.3L319.5,86c-0.2,2,0.3,3.6,1.4,4.8
		l-0.7,9.1L305,98.3c-0.2-4.3-0.1-8,0.1-11.3l1.1-14.3c0.3-3.3-0.6-5-2.5-5.2c-0.1,0-0.3,0-0.4,0c-0.5,0-1.1,0.1-1.7,0.3l-1.3,16.3
		c-0.2,2.6,0.3,4.2,1.4,4.8l-0.7,9.1l-17.7-1.7l0.7-9.1c1.4-1,2.2-2.4,2.3-4.4l0.9-11.9c0.3-3.2-0.4-5.1-2-5.7L286.7,55.4
		 M275.3,55.8v26.8c0,3.1,0.7,4.6,2,4.6v9.6h-17.8v-9.1c0.9-0.5,1.4-1.4,1.4-2.8V69.7c0-1.7-0.4-3-1.4-4v-9.9H275.3 M227.2,56
		c3.4,0,6.2,1.1,8.2,3.3l-0.1-2.6l15.9-0.6l0.3,9.3c-1.3,1-1.9,2.6-1.8,4.7l0.9,28.8c0.2,6.1-1.2,10.3-4.1,12.7
		c-2.4,2-6.5,3.1-12.2,3.3c-0.3,0-0.5,0-0.8,0c-2.3,0-4.8-0.4-7.6-1.1c-3.5-0.9-6.1-2.1-7.6-3.6l-0.3-9.3l13.5-0.5
		c0,0.4,0,0.7,0,0.7c0.1,2.3,0.9,3.4,2.4,3.4c0,0,0.1,0,0.1,0c1.8-0.1,2.7-1.2,2.6-3.4l-0.2-5.3c-2.4,2.2-5.2,3.3-8.3,3.5
		c-0.2,0-0.4,0-0.6,0c-3.2,0-5.7-0.9-7.6-2.8c-2-2-3.1-4.9-3.3-8.7l-0.5-16.4c-0.2-4.9,0.4-8.4,1.7-10.7c1.6-2.9,4.5-4.4,8.7-4.6
		C226.7,56,227,56,227.2,56 M233.6,87.2C233.6,87.2,233.7,87.2,233.6,87.2c0.6,0,1.4-0.3,2.6-0.8L235.7,68c-0.5-0.4-1.2-0.6-2.1-0.6
		c-0.1,0-0.2,0-0.2,0c-1.9,0.1-2.8,1.5-2.7,4.2l0.3,9.3C231.1,85.1,232,87.2,233.6,87.2 M191.5,60.3c2.8,0,5.2,0.5,7.4,1.6
		c3.6,1.7,5.6,4.7,6.1,8.8l1.8,16.3c0.1,1.3,0.9,2.6,2.3,3.9l1,9l-15.2,2.1l-0.3-3c-1.4,1.2-2.8,2.4-4.2,3.6c-1.3,1-3.1,1.6-5.3,1.9
		c-0.6,0.1-1.3,0.1-1.8,0.1c-2.6,0-4.8-0.8-6.6-2.5c-2.2-2-3.5-5-3.9-8.8c-0.6-5.3,2.2-9.5,8.3-12.6l9.9-5l-0.2-2
		c-0.3-2.2-0.9-3.4-2.1-3.4c-0.1,0-0.2,0-0.3,0c-2.1,0.3-2.9,2.3-2.5,6l-13,1.8l-1.1-10.2c3.8-4,9.3-6.4,16.6-7.4
		C189.4,60.3,190.4,60.3,191.5,60.3 M188.7,92.6c0.1,0,0.2,0,0.3,0c0.6-0.1,1.3-0.4,2-1c0.7-0.6,1.2-1.1,1.5-1.7l-0.5-4.6
		c-3.6,1.3-5.3,2.9-5.1,4.9C187.1,91.8,187.7,92.6,188.7,92.6 M350.2,62.3l15.6,2.4l-3.4,26.5c-0.4,3.1,0.1,4.7,1.4,4.9l-1.2,9.5
		l-17.6-2.7l1.2-9c1-0.4,1.5-1.2,1.7-2.6l1.9-15.1c0.2-1.6-0.1-3-0.8-4.1L350.2,62.3 M375.8,66.7l16,3.4c-0.5,2.9-0.8,4.6-0.8,5
		c-0.1,1.7,0.2,3.4,0.9,5.1c1.5-1.2,2.5-2.6,3-4.1c0.2-0.5,0.5-2.2,1.1-5.2l14.2,3l-1.6,9.1c-1.6,0.9-3.5,2.3-5.5,4.1
		c-1.7,1.5-3.4,3.1-5.1,4.6c0.9,2.3,1.9,4.6,2.8,6.9c1.7,3.8,3,6.1,3.9,6.6l-1.6,8.9l-16-3.4c0.5-3,0.8-4.9,0.8-5.7
		c-0.1-1.7-0.6-3.5-1.7-5.4c-1.5,1.4-2.5,2.9-3.1,4.5c-0.2,0.6-0.6,2.5-1.1,5.6l-13.1-2.8l1.6-8.9c1.5-0.2,5.2-3.5,11.1-9.8
		c-1.9-4.3-2.9-6.5-2.9-6.5c-1.4-2.8-2.9-4.5-4.4-5.3L375.8,66.7 M152.3,67c5,0,8,3,9,8.9l2.8,16.1c0.6,3.2,1.5,4.9,2.9,5.1l1.6,8.9
		l-14.9,3.2c-1.5-5.5-2.4-9.1-2.7-10.9l-2.6-14.8c-0.4-2.5-1.4-3.7-2.9-3.7c-0.2,0-0.4,0-0.7,0.1c-0.6,0.1-1.3,0.4-2,0.9l2.8,16.1
		c0.4,2,1.2,3.4,2.6,4.2l1.6,8.9l-14.9,3.2c-1.2-4.1-2.1-7.7-2.7-10.9l-2.5-14.1c-0.5-2.9-1.5-4.3-3.1-4.3c-0.2,0-0.4,0-0.6,0.1
		c-0.6,0.1-1.3,0.4-2,0.9l2.8,16.1c0.5,2.6,1.3,4,2.6,4.2l1.6,8.9l-17.4,3.7l-1.6-8.9c1.1-1.4,1.5-3,1.1-5l-2.1-11.7
		c-0.6-3.1-1.7-4.8-3.3-4.9l-1.3-9.8l15.7-3.3l0.4,2.1c1.8-2.5,4.4-4.1,7.9-4.9c1.7-0.4,3.1-0.6,4-0.6c0.3,0,0.5,0,0.7,0
		c1.4,0.2,2.9,1,4.3,2.3c2.7-3.1,5.9-5,9.4-5.7C150.2,67.1,151.3,67,152.3,67 M267.7,39.6c-2.1,0-4,0.5-5.5,1.6
		c-1.8,1.3-2.7,3-2.7,5.3c0,2.1,0.9,3.8,2.5,5.2c1.5,1.2,3.2,1.9,5.2,1.9c2.3,0,4.2-0.5,5.6-1.5c1.8-1.3,2.7-3.1,2.7-5.5
		c0-2.2-0.8-4-2.5-5.3C271.7,40.2,269.8,39.6,267.7,39.6 M358.7,47.4c-1.4,0-2.7,0.3-3.9,0.9c-1.9,1-3.1,2.6-3.4,4.8
		c-0.3,2,0.4,3.9,1.9,5.5c1.3,1.5,2.9,2.4,4.9,2.7c0.7,0.1,1.4,0.2,2,0.2c1.4,0,2.7-0.3,3.8-0.8c1.9-1,3.1-2.7,3.4-5.1
		c0.3-2.2-0.3-4.1-1.8-5.6c-1.3-1.3-3-2.1-5.2-2.4C359.8,47.5,359.2,47.4,358.7,47.4 M286.7,55.1c-0.1,0-0.3,0.1-0.3,0.2l-1.2,9.8
		c0,0.1,0.1,0.3,0.2,0.3c1.4,0.5,2,2.4,1.8,5.4l-0.9,11.9c-0.1,1.9-0.9,3.3-2.2,4.2c-0.1,0-0.1,0.1-0.1,0.2l-0.7,9.1
		c0,0.2,0.1,0.3,0.3,0.3l17.7,1.7c0,0,0,0,0,0c0.1,0,0.1,0,0.2-0.1c0.1,0,0.1-0.1,0.1-0.2l0.7-9.1c0-0.1-0.1-0.2-0.2-0.3
		c-1-0.5-1.5-2-1.3-4.5L302,68c0.5-0.2,1-0.2,1.5-0.2c0.1,0,0.2,0,0.4,0c1.7,0.2,2.5,1.8,2.2,4.9L304.9,87
		c-0.3,3.2-0.3,7.1-0.1,11.3c0,0.1,0.1,0.3,0.3,0.3l15.1,1.5c0,0,0,0,0,0c0.1,0,0.1,0,0.2-0.1c0.1,0,0.1-0.1,0.1-0.2l0.7-9.1
		c0-0.1,0-0.2-0.1-0.2c-1.1-1.1-1.5-2.6-1.4-4.6l1.3-16.1c0.5-0.2,1-0.2,1.5-0.2c0.1,0,0.2,0,0.4,0c1.7,0.2,2.5,1.6,2.3,4.3l-1.2,15
		c-0.1,1.8-0.2,5.5-0.1,11.3c0,0.1,0.1,0.3,0.3,0.3l15.1,1.5c0,0,0,0,0,0c0.1,0,0.1,0,0.2-0.1c0.1,0,0.1-0.1,0.1-0.2l0.7-9.1
		c0-0.1-0.1-0.2-0.2-0.3c-1.1-0.6-1.6-2.4-1.3-5.5l1.3-16.3c0.6-7.4-2.8-11.5-10-12.2c-0.5,0-1-0.1-1.5-0.1c-3,0-6,0.9-8.9,2.6
		c-1.1-1.6-2.2-2.8-3.5-3.4c-0.9-0.4-2.5-0.8-4.8-1c-0.6-0.1-1.1-0.1-1.6-0.1c-2.7,0-5,0.7-6.9,2.1l0.1-1.5c0-0.2-0.1-0.3-0.3-0.3
		L286.7,55.1C286.7,55.1,286.7,55.1,286.7,55.1 M275.3,55.5h-15.8c-0.2,0-0.3,0.1-0.3,0.3v9.9c0,0.1,0,0.1,0.1,0.2
		c0.8,0.9,1.3,2.2,1.3,3.8v15.2c0,1.3-0.4,2.1-1.2,2.6c-0.1,0.1-0.1,0.1-0.1,0.2v9.1c0,0.2,0.1,0.3,0.3,0.3h17.8
		c0.2,0,0.3-0.1,0.3-0.3v-9.6c0-0.2-0.1-0.3-0.3-0.3c-1.1,0-1.7-1.5-1.7-4.3V55.8C275.6,55.6,275.5,55.5,275.3,55.5 M227.2,55.7
		c-0.2,0-0.4,0-0.6,0c-4.2,0.2-7.2,1.7-8.9,4.7c-1.3,2.3-1.9,6-1.7,10.9l0.5,16.4c0.1,3.9,1.2,6.8,3.3,8.9c2,1.9,4.6,2.9,7.8,2.9
		c0.2,0,0.4,0,0.7,0c3-0.1,5.7-1.2,8-3.1l0.1,4.7c0.1,2-0.7,3.1-2.3,3.1l-0.1,0c-1.4,0-2-1-2.1-3.1l0-0.7c0-0.1,0-0.1-0.1-0.2
		c-0.1-0.1-0.1-0.1-0.2-0.1h0l-13.5,0.5c-0.2,0-0.3,0.1-0.3,0.3l0.3,9.3c0,0.1,0,0.1,0.1,0.2c1.5,1.5,4.1,2.8,7.7,3.7
		c2.8,0.7,5.4,1.1,7.7,1.1c0.3,0,0.5,0,0.8,0c5.8-0.2,10-1.3,12.4-3.3c3-2.5,4.4-6.8,4.2-13L250,70c-0.1-2,0.5-3.5,1.7-4.5
		c0.1-0.1,0.1-0.1,0.1-0.2l-0.3-9.3c0-0.1,0-0.1-0.1-0.2c-0.1,0-0.1-0.1-0.2-0.1h0l-15.9,0.6c-0.2,0-0.3,0.1-0.3,0.3l0.1,1.9
		C233,56.7,230.4,55.7,227.2,55.7 M233.6,86.9c-1.5,0-2.3-2-2.4-5.9l-0.3-9.3c-0.1-2.6,0.7-3.9,2.5-4c0.1,0,0.1,0,0.2,0
		c0.7,0,1.3,0.2,1.8,0.4l0.6,18C234.9,86.6,234.1,86.9,233.6,86.9L233.6,86.9z M191.5,60L191.5,60c-1,0-2.1,0.1-3.2,0.2
		c-7.3,1-12.9,3.5-16.8,7.5c-0.1,0.1-0.1,0.1-0.1,0.2l1.1,10.2c0,0.1,0,0.1,0.1,0.2c0,0,0.1,0.1,0.2,0.1c0,0,0,0,0,0l13-1.8
		c0.2,0,0.3-0.2,0.2-0.3c-0.4-3.6,0.3-5.4,2.3-5.7c0.1,0,0.1,0,0.2,0c1,0,1.6,1,1.8,3.1l0.2,1.8l-9.7,4.9c-6.2,3.1-9.1,7.5-8.4,12.9
		c0.4,3.9,1.8,6.9,4,9c1.8,1.7,4.1,2.6,6.8,2.6c0.6,0,1.2,0,1.9-0.1c2.2-0.3,4-0.9,5.4-1.9l1.1-1l2.6-2.2l0.3,2.4
		c0,0.1,0,0.1,0.1,0.2c0.1,0,0.1,0.1,0.2,0.1c0,0,0,0,0,0l15.2-2.1c0.2,0,0.3-0.2,0.2-0.3l-1-9c0-0.1,0-0.1-0.1-0.2
		c-1.3-1.2-2-2.4-2.2-3.7l-1.8-16.3c-0.5-4.2-2.6-7.3-6.2-9.1C196.8,60.5,194.2,60,191.5,60 M188.7,92.3c-0.3,0-1.3,0-1.5-2.2
		c-0.2-1.8,1.3-3.2,4.5-4.4l0.5,4.2c-0.2,0.5-0.7,1-1.4,1.5c-0.7,0.5-1.3,0.9-1.9,0.9C188.8,92.3,188.8,92.3,188.7,92.3 M350.2,62
		c-0.1,0-0.1,0-0.2,0.1c-0.1,0-0.1,0.1-0.1,0.2l-1.3,9.8c0,0.1,0,0.1,0,0.2c0.7,1.1,1,2.4,0.8,3.9l-1.9,15.1c-0.2,1.3-0.7,2-1.5,2.3
		c-0.1,0-0.2,0.1-0.2,0.2l-1.2,9c0,0.2,0.1,0.3,0.2,0.3l17.6,2.7c0,0,0,0,0,0c0.1,0,0.1,0,0.2-0.1c0.1,0,0.1-0.1,0.1-0.2l1.2-9.5
		c0-0.2-0.1-0.3-0.2-0.3c-1.1-0.2-1.5-1.7-1.1-4.6l3.4-26.5c0-0.2-0.1-0.3-0.2-0.3L350.2,62C350.2,62,350.2,62,350.2,62 M375.8,66.5
		c-0.1,0-0.1,0-0.2,0c-0.1,0-0.1,0.1-0.1,0.2l-1.7,9.7c0,0.1,0,0.2,0.1,0.3c1.4,0.7,2.9,2.5,4.2,5.2c0,0,0,0,0,0.1
		c0.1,0.2,0.6,1.2,2.8,6.3c-7.2,7.6-9.8,9.4-10.8,9.5c-0.1,0-0.2,0.1-0.2,0.2l-1.6,8.9c0,0.2,0.1,0.3,0.2,0.3l13.1,2.8
		c0,0,0,0,0.1,0c0.1,0,0.1,0,0.2,0c0.1,0,0.1-0.1,0.1-0.2c0.5-3.1,0.9-4.9,1.1-5.5c0.5-1.5,1.4-2.9,2.8-4.1c1,1.8,1.5,3.4,1.5,5
		c0,0.8-0.3,2.7-0.8,5.7c0,0.1,0.1,0.3,0.2,0.3l16,3.4c0,0,0,0,0.1,0c0.1,0,0.1,0,0.2,0c0.1,0,0.1-0.1,0.1-0.2l1.6-8.9
		c0-0.1,0-0.2-0.1-0.3c-0.6-0.4-1.7-1.8-3.8-6.5c-0.9-2.2-1.8-4.5-2.7-6.7l5-4.5c2-1.7,3.8-3.1,5.4-4c0.1,0,0.1-0.1,0.1-0.2l1.6-9.1
		c0-0.2-0.1-0.3-0.2-0.3l-14.2-3c0,0,0,0-0.1,0c-0.1,0-0.1,0-0.2,0c-0.1,0-0.1,0.1-0.1,0.2c-0.6,3.7-0.9,4.8-1.1,5.1
		c-0.5,1.4-1.4,2.6-2.6,3.7c-0.6-1.5-0.8-3-0.7-4.6c0-0.4,0.3-2.1,0.8-5c0-0.2-0.1-0.3-0.2-0.3L375.8,66.5
		C375.9,66.5,375.9,66.5,375.8,66.5 M152.3,66.7L152.3,66.7c-1.1,0-2.2,0.1-3.4,0.4c-3.5,0.7-6.7,2.6-9.4,5.6
		c-1.4-1.2-2.9-2-4.3-2.2c-0.2,0-0.5,0-0.8,0c-1,0-2.3,0.2-4.1,0.6c-3.3,0.7-5.9,2.2-7.7,4.5l-0.3-1.5c0-0.1-0.1-0.1-0.1-0.2
		c0,0-0.1,0-0.2,0c0,0,0,0-0.1,0l-15.7,3.3c-0.1,0-0.2,0.2-0.2,0.3l1.3,9.8c0,0.1,0.1,0.2,0.3,0.2c1.5,0.1,2.5,1.6,3,4.6l2.1,11.7
		c0.3,1.9,0,3.4-1.1,4.7c-0.1,0.1-0.1,0.1-0.1,0.2l1.6,8.9c0,0.1,0.1,0.1,0.1,0.2c0,0,0.1,0,0.2,0c0,0,0,0,0.1,0l17.4-3.7
		c0.1,0,0.2-0.2,0.2-0.3l-1.6-8.9c0-0.1-0.1-0.2-0.2-0.2c-1.1-0.2-1.9-1.5-2.3-3.9l-2.8-15.9c0.6-0.4,1.2-0.7,1.7-0.8
		c0.2,0,0.4-0.1,0.5-0.1c1.4,0,2.3,1.4,2.8,4.1l2.5,14.1c0.6,3.2,1.5,6.9,2.7,10.9c0,0.1,0.1,0.2,0.3,0.2c0,0,0,0,0.1,0l14.9-3.2
		c0.2,0,0.2-0.2,0.2-0.3l-1.6-8.9c0-0.1-0.1-0.2-0.1-0.2c-1.3-0.7-2.1-2.1-2.4-4l-2.8-15.9c0.6-0.4,1.2-0.7,1.7-0.8
		c0.2,0,0.4-0.1,0.6-0.1c1.3,0,2.2,1.1,2.6,3.5l2.6,14.8c0.3,1.8,1.2,5.5,2.7,10.9c0,0.1,0.1,0.2,0.3,0.2c0,0,0,0,0.1,0l14.9-3.2
		c0.1,0,0.2-0.2,0.2-0.3l-1.6-8.9c0-0.1-0.1-0.2-0.2-0.2c-1.2-0.2-2.1-1.8-2.7-4.9l-2.8-16.1C160.6,69.7,157.4,66.7,152.3,66.7"/>
	<path class="st3" d="M166.4,245.2L28.4,210c-0.5,0.5-0.9,1.3-1.1,2.1c-0.2,0.8-0.2,1.6-0.2,2.4l137,38.8c0.8-0.4,1.9-1.6,2.4-3
		C167.2,248.7,167.3,246.9,166.4,245.2"/>
	<path class="st7" d="M166.4,245.2L28.4,210c-0.5,0.5-0.9,1.3-1.1,2.1c-0.2,0.8-0.2,1.6-0.2,2.4l137,38.8c0.8-0.4,1.9-1.6,2.4-3
		C167.2,248.7,167.3,246.9,166.4,245.2z"/>
	<path class="st8" d="M166.4,245.3L28.4,210c-0.3,0.3-0.5,0.6-0.7,0.9l139.3,36.8C167.1,246.9,166.9,246.1,166.4,245.3"/>
	<path class="st1" d="M166.4,245.3c-4-1-8.1-2.1-12.1-3.1c-0.5,0.6-0.9,1.2-1.2,1.8c-0.9,1.8-1.2,3.7-0.9,5.7c4,1.2,8,2.3,12,3.5
		c1.9-1.1,2.9-3.6,2.9-5.8C167,246.7,166.8,246,166.4,245.3 M28.4,210c-0.3,0.3-0.5,0.6-0.7,1c-0.5,1.1-0.6,2.2-0.6,3.5l3.8,1.1
		c0.1-1.2,0.2-2.4,0.7-3.6c0.2-0.4,0.4-0.7,0.6-1L28.4,210z"/>
	<path class="st9" d="M166.4,245.3c-4-1-8.1-2.1-12.1-3.1c-0.5,0.6-0.9,1.2-1.2,1.8c-0.9,1.8-1.2,3.7-0.9,5.7c4,1.2,8,2.3,12,3.5
		c1.9-1.1,2.9-3.6,2.9-5.8C167,246.7,166.8,246,166.4,245.3z M28.4,210c-0.3,0.3-0.5,0.6-0.7,1c-0.5,1.1-0.6,2.2-0.6,3.5l3.8,1.1
		c0.1-1.2,0.2-2.4,0.7-3.6c0.2-0.4,0.4-0.7,0.6-1L28.4,210z"/>
	<path class="st10" d="M28.4,210.2c-0.3,0.3-0.4,0.5-0.6,0.8l3.8,1c0.2,0,0.3-0.6,0.6-0.9L28.4,210.2z M166.3,245.5
		c-4.1-1.1-7.9-2.1-12-3.1c-0.5,0.6-0.9,1.1-1.2,1.7l13.6,3.6C166.9,247,166.7,246.2,166.3,245.5"/>
	<path class="st3" d="M84.8,250.1c10.5-1.1,26.1-20.6,36.3-32.3c7.9-9,27.2-17.6,28.5-20.9c-5.9-5.8-15.4-4.7-18.9-0.8
		c-11.7-17.7-9.8-41.1-17.7-52c-5.8-9.3-64.9,23.9-60,38.6c2.1,6.2,22.5,18.7,31.8,36.8c-5,2.9-11.5,15-7.9,25.1
		C78.5,247.9,81.4,250,84.8,250.1"/>
	<path class="st11" d="M84.8,250.1c10.5-1.1,26.1-20.6,36.3-32.3c7.9-9,27.2-17.6,28.5-20.9c-5.9-5.8-15.4-4.7-18.9-0.8
		c-11.7-17.7-9.8-41.1-17.7-52c-5.8-9.3-64.9,23.9-60,38.6c2.1,6.2,22.5,18.7,31.8,36.8c-5,2.9-11.5,15-7.9,25.1
		C78.5,247.9,81.4,250,84.8,250.1z"/>
	<path class="st12" d="M87.6,225.8c3.1,4,11.9,5.1,17.6,0.3c2.5-4.4,7.2-10.7,10.2-14.7c-10.5,8.6-27.7,11.7-32.3,5.7
		C83.5,217.9,86.7,224.3,87.6,225.8"/>
	<path class="st11" d="M87.6,225.8c3.1,4,11.9,5.1,17.6,0.3c2.5-4.4,7.2-10.7,10.2-14.7c-10.5,8.6-27.7,11.7-32.3,5.7
		C83.5,217.9,86.7,224.3,87.6,225.8z"/>
	<path class="st8" d="M148.6,198c0.4-0.4,0.6-0.5,0.7-1c-3.9-4-13.4-5.4-18.8-0.4c-7.5,6.1-14.5,13.4-20.6,22.5
		c-5.4,7.2-9.2,15.3-16.6,23.2c-3.5,4.4-8.1,6.7-11.6,4.6c-8.7-7.9-0.5-20.9,4.1-24.5c-0.3-1.2-0.6-1.1-1.1-2.3
		c-4.3,3.5-8.1,10.3-8.5,17.6c-0.2,4.8,1.1,8.9,5.5,11.2c2.8,1,3.9,1.1,7.5-0.8c10.8-6.6,16.3-20.4,22.2-28.3
		c6.3-7.9,13.4-17,20.9-22.2C138.9,193.2,144.5,195.8,148.6,198 M75.3,157.1c15.7-7.7,36.2-9.7,27,8.7c9.9-8.2,13.6-16.1,10-21.5
		C110.3,140.6,96,143.8,75.3,157.1"/>
	<path class="st3" d="M357.4,258h2.7v-2h3.5v5.5h-11.7V258h1.6v-10h-1.6v-3.5h7v3.5h-1.5V258z M341.2,256.6l-0.5,1.4h1.3v3.5h-7
		v-3.5h1.6l3.6-10h-1.6v-3.5h6l4.9,13.5h1.6v3.5h-7v-3.5h1.3l-0.4-1.4H341.2z M344.3,253.3l-1.1-3.9l-1.1,3.9H344.3z M323.5,257.9
		h1.5v3.5h-7v-3.5h1.6v-10H318v-3.5h5.1l5.9,9.5v-6h-1.6v-3.5h7v3.5H333v13.5h-3.5l-6-9.5V257.9z M300,252.8c0-1.2,0.2-2.3,0.6-3.4
		c0.4-1.1,1-2,1.8-2.8c0.8-0.8,1.7-1.4,2.7-1.9c1-0.4,2-0.6,3.2-0.6c1.1,0,2.1,0.2,3.1,0.6c1,0.4,1.8,1.1,2.6,1.9
		c0.8,0.8,1.4,1.8,1.8,2.9c0.4,1.1,0.6,2.2,0.6,3.4c0,1.2-0.2,2.4-0.6,3.4c-0.4,1.1-1,2-1.7,2.9c-0.8,0.9-1.7,1.5-2.7,2
		c-1,0.5-2.1,0.7-3.2,0.7c-1.2,0-2.3-0.2-3.3-0.7c-1-0.5-1.9-1.1-2.7-2c-0.8-0.9-1.3-1.8-1.7-2.9C300.2,255.2,300,254,300,252.8
		 M304.1,252.8c0,1.3,0.4,2.4,1.2,3.3c0.8,0.9,1.8,1.4,3,1.4c1.2,0,2.2-0.5,3-1.4c0.8-0.9,1.2-2,1.2-3.4c0-1.2-0.4-2.3-1.2-3.2
		c-0.8-0.9-1.8-1.3-2.9-1.3c-1.2,0-2.2,0.4-3,1.3C304.5,250.5,304.1,251.6,304.1,252.8 M296.9,257.9h1.5v3.5h-7v-3.5h1.6v-10h-1.6
		v-3.5h7v3.5h-1.5V257.9z M285.3,257.9h1.5v3.5h-6.9v-3.5h1.5v-10h-1.5v2.3H277v-5.8h12.7v5.8h-2.9v-2.3h-1.5V257.9z M267.5,256.6
		l-0.5,1.4h1.3v3.5h-7v-3.5h1.6l3.6-10H265v-3.5h6l4.9,13.5h1.6v3.5h-7v-3.5h1.3l-0.4-1.4H267.5z M270.6,253.3l-1.1-3.9l-1.1,3.9
		H270.6z M249.8,257.9h1.5v3.5h-7v-3.5h1.6v-10h-1.6v-3.5h5.1l5.9,9.5v-6h-1.6v-3.5h7v3.5h-1.4v13.5h-3.5l-6-9.5V257.9z
		 M234.7,257.9h1v3.5h-6.5v-3.5h1.6v-10h-1.6v-3.5h6.5c1.4,0,2.4,0.1,3,0.2c0.6,0.1,1.1,0.4,1.6,0.7c0.7,0.5,1.2,1.2,1.6,2
		c0.4,0.8,0.6,1.7,0.6,2.7c0,1.2-0.3,2.2-0.8,3.1c-0.5,0.9-1.3,1.6-2.2,2.1l2,2.6h1.5v3.5h-3.5l-4.7-6.1V257.9z M234.7,252.3h0.8
		c1,0,1.8-0.2,2.2-0.5c0.5-0.3,0.7-0.8,0.7-1.5c0-0.7-0.2-1.2-0.6-1.5c-0.4-0.3-1.1-0.5-2.1-0.5h-1V252.3z M223.7,258v-2h3.5v5.5
		h-11.7V258h1.6v-10h-1.6v-3.5h11.7v5.5h-3.5v-2H221v3h3.5v3.8H221v3.2H223.7z M209.4,257.9h1.5v3.5H204v-3.5h1.5v-10H204v2.3h-2.9
		v-5.8h12.7v5.8h-2.9v-2.3h-1.5V257.9z M188.7,257.9h1.5v3.5h-7v-3.5h1.6v-10h-1.6v-3.5h5.1l5.9,9.5v-6h-1.6v-3.5h7v3.5h-1.4v13.5
		h-3.5l-6-9.5V257.9z M179.9,257.9h1.5v3.5h-7v-3.5h1.6v-10h-1.6v-3.5h7v3.5h-1.5V257.9z"/>
	<polygon class="st6" points="195,184.9 203.7,191.5 200.4,202.3 209,195.7 217.7,202.3 214.4,191.5 223,184.9 212.3,184.9 
		209,174.1 205.7,184.9 	"/>
	<path class="st13" d="M311.3,230h-23.5v-50.9V171c0-2.5,0-6.9-4.4-6.9c-4.5,0-4.5,4.4-4.5,6.9v34.1v2.1c0,2.9,0,7.3,3.8,7.3V230
		h-24v-49.5V171c0-2.5,0-6.9-4.5-6.9c-5.4,0-5.4,4.5-5.4,6.9v6.7v26.7v2.8c0,2.9,0,7.3,4.3,7.3V230H225v-15.6c5,0,5-2.8,5-4.3v-2.9
		v-3.1v-33c0-2.5,0-6.9-5-6.9v-15.8h24.6v4.5c1.9-2.6,3.8-4.4,5.7-5.2c1.9-0.8,4.3-1.3,7.3-1.3c3.4,0,5.9,0.4,7.6,1.2
		c1.7,0.8,3.5,2.9,5.3,6.4c2.5-2.6,4.9-4.6,7.1-5.8c2.2-1.2,5-1.8,8.3-1.8c5.3,0,9.2,1.7,12,5.1c2.7,3.4,4.4,8.8,4.4,17v38.7
		c0,2.9,0,7.3,4.5,7.2L311.3,230z"/>
	<path class="st14" d="M329.7,216c-0.6,0.1-1.2,0.2-1.7,0.2c-0.6,0.1-1.1,0.1-1.7,0.1c-2.3,0-4.2-0.6-5.6-1.7
		c-1.4-1.2-2.1-2.7-2.1-4.5c0-2.1,0.8-3.8,2.3-5.1c1.6-1.3,3.6-2,6-2c1.7,0,3.3,0.4,4.8,1.1c1.5,0.7,2.8,1.8,4.1,3.2
		c1.3-1.2,2.4-2.1,3.3-2.6c0.9-0.6,1.7-0.8,2.4-0.8c0.5,0,0.9,0.2,1.2,0.5c0.3,0.3,0.5,0.7,0.5,1.2c0,1.5-0.9,3.2-2.8,5
		c-1.9,1.8-4.4,3.4-7.6,4.8c-1.1,2.3-2.2,4.3-3.4,5.9c-1.1,1.6-2.4,3-3.7,4.1c1.1,0.5,2.3,0.8,3.3,1.1c1.1,0.2,2,0.4,2.9,0.4
		c0.9,0,1.8-0.2,2.7-0.7c0.8-0.4,1.8-1.2,2.7-2.2c0.1-0.1,0.3-0.3,0.5-0.5c0.3-0.4,0.6-0.6,0.7-0.6c0,0,0,0,0,0c0,0,0,0,0,0.1
		c0,0.1-0.1,0.3-0.4,0.7c-0.2,0.3-0.5,0.7-0.9,1c-1.2,1.2-2.3,2-3.4,2.6c-1.1,0.6-2.1,0.9-3,0.9c-0.7,0-1.5-0.1-2.5-0.4
		c-1-0.3-2.3-0.7-4-1.4c-1,0.6-2,1.1-2.8,1.3c-0.9,0.3-1.7,0.4-2.5,0.4c-1.1,0-2-0.2-2.7-0.6c-0.7-0.4-1-0.9-1-1.6
		c0-0.6,0.3-1.1,0.9-1.5c0.6-0.4,1.4-0.6,2.4-0.6c0.7,0,1.5,0.1,2.4,0.2c0.9,0.2,2.1,0.5,3.7,1c0.6-0.4,1.2-1.3,2-2.4
		C327,221.3,328.2,219.1,329.7,216 M323.2,225.8c-1.5-0.6-2.6-0.9-3.3-1.1c-0.7-0.2-1.4-0.3-2-0.3c-0.7,0-1.3,0.1-1.7,0.4
		c-0.4,0.2-0.6,0.6-0.6,1c0,0.5,0.3,0.9,0.9,1.2c0.6,0.3,1.3,0.5,2.2,0.5c0.8,0,1.5-0.1,2.3-0.4
		C321.8,226.8,322.5,226.4,323.2,225.8 M330.5,214.5c0.8-1.4,1.6-2.7,2.4-3.8c0.8-1.1,1.6-2.2,2.5-3.1c-1.2-1.4-2.5-2.4-3.9-3.2
		c-1.4-0.7-3-1.1-4.6-1.1c-2.2,0-4,0.6-5.4,1.8c-1.4,1.2-2.1,2.6-2.1,4.4c0,1.6,0.7,2.9,2.2,3.9c1.5,1,3.4,1.5,5.7,1.5
		c0.4,0,0.9,0,1.4-0.1C329.2,214.7,329.8,214.6,330.5,214.5 M333.1,213.8c2.8-1.1,5.1-2.4,6.8-4c1.7-1.6,2.6-3,2.6-4.3
		c0-0.4-0.1-0.8-0.3-1c-0.2-0.2-0.5-0.3-0.9-0.3c-0.6,0-1.3,0.3-2.2,1c-0.9,0.7-1.8,1.6-2.7,2.8c0.4,0.6,0.7,1,0.9,1.4
		c0.2,0.4,0.3,0.6,0.3,0.7c0,0.1,0,0.1,0,0.1c0,0,0,0-0.1,0c-0.1,0-0.3-0.2-0.6-0.7c-0.3-0.5-0.5-0.8-0.8-1.2
		c-0.6,0.9-1.1,1.7-1.6,2.6C334,212,333.5,212.9,333.1,213.8"/>
	<path class="st15" d="M329.7,216c-0.6,0.1-1.2,0.2-1.7,0.2c-0.6,0.1-1.1,0.1-1.7,0.1c-2.3,0-4.2-0.6-5.6-1.7
		c-1.4-1.2-2.1-2.7-2.1-4.5c0-2.1,0.8-3.8,2.3-5.1c1.6-1.3,3.6-2,6-2c1.7,0,3.3,0.4,4.8,1.1c1.5,0.7,2.8,1.8,4.1,3.2
		c1.3-1.2,2.4-2.1,3.3-2.6c0.9-0.6,1.7-0.8,2.4-0.8c0.5,0,0.9,0.2,1.2,0.5c0.3,0.3,0.5,0.7,0.5,1.2c0,1.5-0.9,3.2-2.8,5
		c-1.9,1.8-4.4,3.4-7.6,4.8c-1.1,2.3-2.2,4.3-3.4,5.9c-1.1,1.6-2.4,3-3.7,4.1c1.1,0.5,2.3,0.8,3.3,1.1c1.1,0.2,2,0.4,2.9,0.4
		c0.9,0,1.8-0.2,2.7-0.7c0.8-0.4,1.8-1.2,2.7-2.2c0.1-0.1,0.3-0.3,0.5-0.5c0.3-0.4,0.6-0.6,0.7-0.6c0,0,0,0,0,0c0,0,0,0,0,0.1
		c0,0.1-0.1,0.3-0.4,0.7c-0.2,0.3-0.5,0.7-0.9,1c-1.2,1.2-2.3,2-3.4,2.6c-1.1,0.6-2.1,0.9-3,0.9c-0.7,0-1.5-0.1-2.5-0.4
		c-1-0.3-2.3-0.7-4-1.4c-1,0.6-2,1.1-2.8,1.3c-0.9,0.3-1.7,0.4-2.5,0.4c-1.1,0-2-0.2-2.7-0.6c-0.7-0.4-1-0.9-1-1.6
		c0-0.6,0.3-1.1,0.9-1.5c0.6-0.4,1.4-0.6,2.4-0.6c0.7,0,1.5,0.1,2.4,0.2c0.9,0.2,2.1,0.5,3.7,1c0.6-0.4,1.2-1.3,2-2.4
		C327,221.3,328.2,219.1,329.7,216z M323.2,225.8c-1.5-0.6-2.6-0.9-3.3-1.1c-0.7-0.2-1.4-0.3-2-0.3c-0.7,0-1.3,0.1-1.7,0.4
		c-0.4,0.2-0.6,0.6-0.6,1c0,0.5,0.3,0.9,0.9,1.2c0.6,0.3,1.3,0.5,2.2,0.5c0.8,0,1.5-0.1,2.3-0.4
		C321.8,226.8,322.5,226.4,323.2,225.8z M330.5,214.5c0.8-1.4,1.6-2.7,2.4-3.8c0.8-1.1,1.6-2.2,2.5-3.1c-1.2-1.4-2.5-2.4-3.9-3.2
		c-1.4-0.7-3-1.1-4.6-1.1c-2.2,0-4,0.6-5.4,1.8c-1.4,1.2-2.1,2.6-2.1,4.4c0,1.6,0.7,2.9,2.2,3.9c1.5,1,3.4,1.5,5.7,1.5
		c0.4,0,0.9,0,1.4-0.1C329.2,214.7,329.8,214.6,330.5,214.5z M333.1,213.8c2.8-1.1,5.1-2.4,6.8-4c1.7-1.6,2.6-3,2.6-4.3
		c0-0.4-0.1-0.8-0.3-1c-0.2-0.2-0.5-0.3-0.9-0.3c-0.6,0-1.3,0.3-2.2,1c-0.9,0.7-1.8,1.6-2.7,2.8c0.4,0.6,0.7,1,0.9,1.4
		c0.2,0.4,0.3,0.6,0.3,0.7c0,0.1,0,0.1,0,0.1c0,0,0,0-0.1,0c-0.1,0-0.3-0.2-0.6-0.7c-0.3-0.5-0.5-0.8-0.8-1.2
		c-0.6,0.9-1.1,1.7-1.6,2.6C334,212,333.5,212.9,333.1,213.8z"/>
	<polygon class="st6" points="313.2,184.9 321.8,191.5 318.5,202.3 327.2,195.7 335.8,202.3 332.5,191.5 341.1,184.9 330.5,184.9 
		327.2,174.1 323.9,184.9 	"/>
	<path class="st0" d="M440.6,122.9c2,0,3.8,0.4,5.5,1.1c1.7,0.7,3.3,1.7,4.6,3.1c1.3,1.3,2.3,2.8,3,4.6c0.7,1.7,1.1,3.5,1.1,5.5
		c0,1.9-0.3,3.7-1,5.4c-0.7,1.7-1.7,3.2-3.1,4.5c-1.4,1.4-2.9,2.4-4.7,3.1c-1.7,0.7-3.5,1.1-5.4,1.1c-1.9,0-3.7-0.4-5.4-1.1
		c-1.7-0.7-3.2-1.8-4.6-3.1c-1.4-1.3-2.4-2.9-3.1-4.6c-0.7-1.7-1.1-3.5-1.1-5.4c0-1.9,0.4-3.7,1.1-5.4c0.7-1.7,1.8-3.3,3.1-4.7
		c1.3-1.3,2.8-2.3,4.5-3C436.8,123.2,438.6,122.9,440.6,122.9 M453.2,137.1c0-1.7-0.3-3.4-0.9-4.9c-0.6-1.5-1.5-2.9-2.7-4.1
		c-1.2-1.2-2.6-2.1-4.1-2.8c-1.5-0.6-3.2-1-4.9-1c-1.7,0-3.3,0.3-4.8,0.9c-1.5,0.6-2.9,1.5-4,2.7c-1.2,1.2-2.2,2.6-2.8,4.2
		c-0.7,1.5-1,3.1-1,4.8c0,1.7,0.3,3.3,1,4.8c0.6,1.5,1.6,2.9,2.8,4.1c1.2,1.2,2.6,2.1,4.1,2.7c1.5,0.6,3.1,1,4.8,1
		c1.7,0,3.3-0.3,4.9-1c1.6-0.6,2.9-1.6,4.2-2.8c1.2-1.1,2.1-2.5,2.7-3.9C452.9,140.4,453.2,138.8,453.2,137.1 M441,128.6
		c2.3,0,4,0.4,5.1,1.1c1.1,0.7,1.7,1.9,1.7,3.4c0,1.1-0.4,2.1-1.1,2.9c-0.7,0.8-1.6,1.2-2.8,1.4l3.6,7.5h-2.8l-3.4-7.2h-3.8v7.2H435
		v-16.3H441z M440.5,130.3h-3.1v5.9h3.1c1.7,0,2.9-0.2,3.6-0.6c0.7-0.4,1-1.2,1-2.2c0-1.1-0.4-1.8-1.1-2.3
		C443.4,130.5,442.2,130.3,440.5,130.3"/>
</g>
</svg>
